<svg width="19" height="22" viewBox="0 0 19 22" fill="none" xmlns="http://www.w3.org/2000/svg">
<path d="M2.8125 8.42631V14.0806C2.8125 14.8326 2.22168 15.4331 1.46973 15.4331C0.722656 15.4331 0 14.8277 0 14.0806V8.42631C0 7.689 0.722656 7.08353 1.46973 7.08353C2.20703 7.08353 2.8125 7.689 2.8125 8.42631ZM3.33984 16.0923C3.33984 16.8931 3.98438 17.5376 4.78516 17.5376H5.75684L5.77148 20.521C5.77148 22.3228 8.4668 22.3081 8.4668 20.521V17.5376H10.2832V20.521C10.2832 22.313 12.9932 22.3179 12.9932 20.521V17.5376H13.9795C14.7705 17.5376 15.415 16.8931 15.415 16.0923V7.33256H3.33984V16.0923V16.0923ZM15.4492 6.85892H3.28613C3.28613 4.76908 4.53613 2.95268 6.3916 2.00541L5.45898 0.281777C5.32227 0.0425192 5.66895 -0.108848 5.78613 0.0962301L6.7334 1.83451C8.4375 1.07768 10.3955 1.11674 12.0215 1.83451L12.9639 0.101113C13.0859 -0.108848 13.4277 0.0474019 13.291 0.28666L12.3584 2.00541C14.1992 2.95268 15.4492 4.76908 15.4492 6.85892V6.85892ZM7.11426 4.14896C7.11426 3.87064 6.88965 3.63627 6.60156 3.63627C6.32324 3.63627 6.10352 3.87064 6.10352 4.14896C6.10352 4.42728 6.32812 4.66166 6.60156 4.66166C6.88965 4.66166 7.11426 4.42728 7.11426 4.14896ZM12.6514 4.14896C12.6514 3.87064 12.4268 3.63627 12.1533 3.63627C11.8652 3.63627 11.6406 3.87064 11.6406 4.14896C11.6406 4.42728 11.8652 4.66166 12.1533 4.66166C12.4268 4.66166 12.6514 4.42728 12.6514 4.14896ZM17.2803 7.08353C16.543 7.08353 15.9375 7.67435 15.9375 8.42631V14.0806C15.9375 14.8326 16.543 15.4331 17.2803 15.4331C18.0322 15.4331 18.75 14.8277 18.75 14.0806V8.42631C18.75 7.67435 18.0273 7.08353 17.2803 7.08353Z" fill="#396CAA"/>
</svg>
