<svg width="26" height="18" viewBox="0 0 26 18" fill="none" xmlns="http://www.w3.org/2000/svg">
<path d="M21.5 7.85156C21.6602 7.43359 21.75 6.97656 21.75 6.5C21.75 4.42969 20.0703 2.75 18 2.75C17.2305 2.75 16.5117 2.98437 15.918 3.38281C14.8359 1.50781 12.8164 0.25 10.5 0.25C7.04687 0.25 4.25 3.04687 4.25 6.5C4.25 6.60547 4.25391 6.71094 4.25781 6.81641C2.07031 7.58594 0.5 9.67188 0.5 12.125C0.5 15.2305 3.01953 17.75 6.125 17.75H20.5C23.2617 17.75 25.5 15.5117 25.5 12.75C25.5 10.332 23.7812 8.3125 21.5 7.85156ZM16.3086 11.3164L12.1914 15.4336C11.9492 15.6758 11.5508 15.6758 11.3086 15.4336L7.19141 11.3164C6.79688 10.9219 7.07813 10.25 7.63281 10.25H10.1875V5.875C10.1875 5.53125 10.4687 5.25 10.8125 5.25H12.6875C13.0313 5.25 13.3125 5.53125 13.3125 5.875V10.25H15.8672C16.4219 10.25 16.7031 10.9219 16.3086 11.3164V11.3164Z" fill="#D946EF"/>
</svg>
