<!-- Generator: Adobe Illustrator 25.2.0, SVG Export Plug-In  -->
<svg version="1.1" xmlns="http://www.w3.org/2000/svg" xmlns:xlink="http://www.w3.org/1999/xlink" x="0px" y="0px"
	 width="2803.2px" height="2800px" viewBox="0 0 2803.2 2800" style="overflow:visible;enable-background:new 0 0 2803.2 2800;"
	 xml:space="preserve">
<style type="text/css">
	.st0{opacity:0.2;fill:#F97316;}
	.st1{fill:#F97316;}
	.st2{fill:#FFB07B;}
	.st3{opacity:0.3;}
	.st4{fill:#FFFFFF;}
	.st5{opacity:0.5;}
	.st6{opacity:0.43;}
	.st7{fill:#C42A4B;}
	.st8{fill:#F43F5E;}
	.st9{clip-path:url(#SVGID_2_);}
	.st10{fill:url(#SVGID_3_);}
	.st11{fill:url(#SVGID_4_);}
	.st12{fill:url(#SVGID_5_);}
	.st13{fill:url(#SVGID_6_);}
	.st14{fill:url(#SVGID_7_);}
	.st15{fill:#FFA364;}
	.st16{fill:url(#SVGID_8_);}
	.st17{fill:url(#SVGID_9_);}
	.st18{fill:url(#SVGID_10_);}
	.st19{fill:url(#SVGID_11_);}
	.st20{fill:url(#SVGID_12_);}
	.st21{fill:url(#SVGID_13_);}
	.st22{fill:url(#SVGID_14_);}
	.st23{fill:url(#SVGID_15_);}
	.st24{opacity:0.7;fill:#FFFFFF;}
	.st25{opacity:0.7;}
	.st26{fill:url(#SVGID_16_);}
	.st27{fill:url(#SVGID_17_);}
	.st28{fill:url(#SVGID_18_);}
	.st29{fill:url(#SVGID_19_);}
	.st30{fill:url(#SVGID_20_);}
	.st31{fill:url(#SVGID_21_);}
	.st32{fill:url(#SVGID_22_);}
	.st33{fill:url(#SVGID_23_);}
	.st34{opacity:0.39;fill:#FFFFFF;}
	.st35{fill:url(#SVGID_24_);}
	.st36{fill:url(#SVGID_25_);}
	.st37{fill:url(#SVGID_26_);}
	.st38{fill:url(#SVGID_27_);}
	.st39{opacity:0.56;fill:#FFFFFF;}
	.st40{clip-path:url(#SVGID_29_);}
	.st41{fill:url(#SVGID_30_);}
	.st42{fill:url(#SVGID_31_);}
	.st43{fill:url(#SVGID_32_);}
	.st44{fill:url(#SVGID_33_);}
	.st45{fill:url(#SVGID_34_);}
	.st46{fill:url(#SVGID_35_);}
	.st47{fill:url(#SVGID_36_);}
	.st48{fill:url(#SVGID_37_);}
	.st49{fill:url(#SVGID_38_);}
	.st50{fill:url(#SVGID_39_);}
	.st51{fill:url(#SVGID_40_);}
	.st52{fill:url(#SVGID_41_);}
	.st53{fill:url(#SVGID_42_);}
	.st54{fill:url(#SVGID_43_);}
	.st55{fill:url(#SVGID_44_);}
	.st56{fill:url(#SVGID_45_);}
	.st57{fill:url(#SVGID_46_);}
	.st58{fill:url(#SVGID_47_);}
	.st59{fill:url(#SVGID_48_);}
	.st60{fill:url(#SVGID_49_);}
	.st61{fill:url(#SVGID_50_);}
	.st62{fill:url(#SVGID_51_);}
	.st63{fill:url(#SVGID_52_);}
	.st64{fill:url(#SVGID_53_);}
	.st65{fill:url(#SVGID_54_);}
</style>
<defs>
</defs>
<g>
	<path class="st0" d="M2460.3,2404.1c-72.8,75.5-137.9,119.9-187.8,153.4c-486.4,326.7-1042.4,232.5-1214.3,200.3
		c-277.3-51.9-511.4-88.6-712.6-271.4C-111.4,2071.1-89.2,1204.6,260,667.8c41.4-63.6,390.1-583.6,947.3-656.9
		c13.6-1.8,23.8-2.8,32.7-3.8C1326.3-2,1860.4-50.5,2296,316.6c62.3,52.5,162.7,147.3,255.7,291.9
		C2891.9,1137,2892.9,1955.5,2460.3,2404.1z"/>
	<g>
		<g>
			<path class="st1" d="M2288.3,1334.4c0,0,296.6-348.6,282-785.4c-12.8-379.8-243-318.5-129.9-151.7
				c33.3,49.1,94.3,99.8,100.4,154.2C2568.3,796.3,2465.5,1073,2288.3,1334.4z"/>
		</g>
		<g>
			<path class="st1" d="M2261.4,1397.3c0,0,213.4-369.9,158.8-766.7c-47.5-345.1-233.4-249.3-122.9-116.4
				c32.6,39.2,88.3,75,98.6,123.7C2442.7,857.1,2383.9,1127.8,2261.4,1397.3z"/>
		</g>
		<g>
			<path class="st1" d="M2304.7,1308.5c0,0,177.7-208.9,168.9-470.6c-7.6-227.5-145.6-190.8-77.8-90.9c20,29.4,56.5,59.8,60.2,92.4
				C2472.4,986.1,2410.9,1151.9,2304.7,1308.5z"/>
		</g>
	</g>
	<g>
		<path class="st2" d="M1282.4,98.1c-0.2-7.7-3.5-14.9-9.2-20c-5.7-5.1-13.3-7.6-20.9-7l-770.5,66.7c-14.3,1.2-25.8,13.2-25.8,27.6
			v1548.9c0,15.3,13.3,26.6,28.6,26.6h806.8c7.5,0,14.6-2.4,19.8-7.8c5.2-5.3,8.1-12.3,7.9-19.7L1282.4,98.1z"/>
		<g class="st3">
			<path class="st4" d="M608.6,214.3l-58.8,4c-6.4,0.4-9.7,6.4-9.7,13.3v1412.8c0,7.1,1.4,15.5,8,15.5h61.4
				c6.6,0,11.9-7.1,11.9-14.2l-0.9-1418.9C620.5,219.8,615.1,213.8,608.6,214.3z"/>
			<path class="st4" d="M751.3,204.9l-61.5,4c-6.5,0.4-12.8,6.5-12.8,13.5l1.5,1423.2c0,7.1,6.4,14.2,13,14.2h62.2
				c6.6,0,11.1-7.1,11-14.3l-2.4-1428.1C762.3,210.5,757.9,204.5,751.3,204.9z"/>
			<path class="st4" d="M895.8,195.4l-62.3,4.1c-6.6,0.4-10.4,6.4-10.4,13.4l3,1432.6c0,7.2,3.9,14.3,10.6,14.3h63
				c6.7,0,13.8-7.2,13.8-14.4l-4-1437.5C909.5,200.9,902.5,195,895.8,195.4z"/>
			<path class="st4" d="M1042.3,185.8l-63.1,4.1c-6.7,0.4-11.6,6.5-11.6,13.5l4.6,1441.9c0,7.2,5,14.4,11.8,14.4h63.8
				c6.8,0,12.9-7.2,12.9-14.4l-5.5-1446.9C1055.1,191.4,1049,185.4,1042.3,185.8z"/>
			<path class="st4" d="M1190.6,176.1l-64,4.2c-6.8,0.4-12.8,6.6-12.8,13.7l6.2,1451.4c0,7.3,6.2,14.5,13,14.5h64.7
				c6.9,0,12-7.2,12-14.5l-7.2-1456.4C1202.6,181.8,1197.5,175.7,1190.6,176.1z"/>
		</g>
	</g>
	<g>
		<path class="st2" d="M2202.1,294.6c-0.3-15.1-12.6-27.8-27.7-27.8h-570.9c-15.3,0-28.6,13.6-28.6,28.9v1368.1
			c0,7.4,3.4,14.4,8.6,19.6c5.2,5.2,12.5,8.1,19.9,8.1l596.7-1.6c7.4,0,14.6-3,19.8-8.3c5.2-5.3,8.1-12.8,7.9-20.2L2202.1,294.6z"/>
		<g class="st5">
			<g>
				<path class="st4" d="M1766.8,321.3h-147.5c-4.4,0-3.7,7.5-3.7,12.2v26.7c0,4.7-0.7,11.7,3.7,11.7h147.5c4.4,0,7.2-7,7.2-11.7
					v-26.7C1774.1,328.8,1771.2,321.3,1766.8,321.3z"/>
				<path class="st4" d="M1964.3,321.3h-147.5c-4.4,0-5.6,7.5-5.6,12.2v26.7c0,4.7,1.2,11.7,5.6,11.7h147.5c4.4,0,5.4-7,5.4-11.7
					v-26.7C1969.6,328.8,1968.7,321.3,1964.3,321.3z"/>
				<path class="st4" d="M2161.7,321.3h-147.5c-4.4,0-10.9,7.5-10.9,12.2v26.7c0,4.7,6.5,11.7,10.9,11.7h147.5
					c4.4,0,10.2-7,10.2-11.7v-26.7C2171.9,328.8,2166.1,321.3,2161.7,321.3z"/>
			</g>
			<g>
				<path class="st4" d="M1766.8,436h-147.5c-4.4,0-3.7-1.6-3.7,3.1v26.7c0,4.7-0.7,14,3.7,14h147.5c4.4,0,7.2-9.3,7.2-14v-26.7
					C1774.1,434.4,1771.2,436,1766.8,436z"/>
				<path class="st4" d="M1964.3,436h-147.5c-4.4,0-5.6-1.6-5.6,3.1v26.7c0,4.7,1.2,14,5.6,14h147.5c4.4,0,5.4-9.3,5.4-14v-26.7
					C1969.6,434.4,1968.7,436,1964.3,436z"/>
				<path class="st4" d="M2161.7,436h-147.5c-4.4,0-10.9-1.6-10.9,3.1v26.7c0,4.7,6.5,14,10.9,14h147.5c4.4,0,10.2-9.3,10.2-14
					v-26.7C2171.9,434.4,2166.1,436,2161.7,436z"/>
			</g>
			<g>
				<path class="st4" d="M1766.8,537.1h-147.5c-4.4,0-3.7,2.9-3.7,7.6v26.7c0,4.7-0.7,9.6,3.7,9.6h147.5c4.4,0,7.2-4.9,7.2-9.6
					v-26.7C1774.1,540,1771.2,537.1,1766.8,537.1z"/>
				<path class="st4" d="M1964.3,537.1h-147.5c-4.4,0-5.6,2.9-5.6,7.6v26.7c0,4.7,1.2,9.6,5.6,9.6h147.5c4.4,0,5.4-4.9,5.4-9.6
					v-26.7C1969.6,540,1968.7,537.1,1964.3,537.1z"/>
				<path class="st4" d="M2161.7,537.1h-147.5c-4.4,0-10.9,2.9-10.9,7.6v26.7c0,4.7,6.5,9.6,10.9,9.6h147.5c4.4,0,10.2-4.9,10.2-9.6
					v-26.7C2171.9,540,2166.1,537.1,2161.7,537.1z"/>
			</g>
			<g>
				<path class="st4" d="M1766.8,645h-147.5c-4.4,0-3.7,0.6-3.7,5.3V677c0,4.7-0.7,11.9,3.7,11.9h147.5c4.4,0,7.2-7.2,7.2-11.9
					v-26.7C1774.1,645.6,1771.2,645,1766.8,645z"/>
				<path class="st4" d="M1964.3,645h-147.5c-4.4,0-5.6,0.6-5.6,5.3V677c0,4.7,1.2,11.9,5.6,11.9h147.5c4.4,0,5.4-7.2,5.4-11.9
					v-26.7C1969.6,645.6,1968.7,645,1964.3,645z"/>
				<path class="st4" d="M2161.7,645h-147.5c-4.4,0-10.9,0.6-10.9,5.3V677c0,4.7,6.5,11.9,10.9,11.9h147.5c4.4,0,10.2-7.2,10.2-11.9
					v-26.7C2171.9,645.6,2166.1,645,2161.7,645z"/>
			</g>
			<g>
				<path class="st4" d="M1766.8,746.2h-147.5c-4.4,0-3.7,5-3.7,9.7v26.7c0,4.7-0.7,7.4,3.7,7.4h147.5c4.4,0,7.2-2.7,7.2-7.4v-26.7
					C1774.1,751.2,1771.2,746.2,1766.8,746.2z"/>
				<path class="st4" d="M1964.3,746.2h-147.5c-4.4,0-5.6,5-5.6,9.7v26.7c0,4.7,1.2,7.4,5.6,7.4h147.5c4.4,0,5.4-2.7,5.4-7.4v-26.7
					C1969.6,751.2,1968.7,746.2,1964.3,746.2z"/>
				<path class="st4" d="M2161.7,746.2h-147.5c-4.4,0-10.9,5-10.9,9.7v26.7c0,4.7,6.5,7.4,10.9,7.4h147.5c4.4,0,10.2-2.7,10.2-7.4
					v-26.7C2171.9,751.2,2166.1,746.2,2161.7,746.2z"/>
			</g>
			<g>
				<path class="st4" d="M1766.8,854h-147.5c-4.4,0-3.7,2.7-3.7,7.4v26.7c0,4.7-0.7,9.7,3.7,9.7h147.5c4.4,0,7.2-5.1,7.2-9.7v-26.7
					C1774.1,856.7,1771.2,854,1766.8,854z"/>
				<path class="st4" d="M1964.3,854h-147.5c-4.4,0-5.6,2.7-5.6,7.4v26.7c0,4.7,1.2,9.7,5.6,9.7h147.5c4.4,0,5.4-5.1,5.4-9.7v-26.7
					C1969.6,856.7,1968.7,854,1964.3,854z"/>
				<path class="st4" d="M2161.7,854h-147.5c-4.4,0-10.9,2.7-10.9,7.4v26.7c0,4.7,6.5,9.7,10.9,9.7h147.5c4.4,0,10.2-5.1,10.2-9.7
					v-26.7C2171.9,856.7,2166.1,854,2161.7,854z"/>
			</g>
			<g>
				<path class="st4" d="M1766.8,955.2h-147.5c-4.4,0-3.7,7.1-3.7,11.8v26.7c0,4.7-0.7,12,3.7,12h147.5c4.4,0,7.2-7.4,7.2-12V967
					C1774.1,962.3,1771.2,955.2,1766.8,955.2z"/>
				<path class="st4" d="M1964.3,955.2h-147.5c-4.4,0-5.6,7.1-5.6,11.8v26.7c0,4.7,1.2,12,5.6,12h147.5c4.4,0,5.4-7.4,5.4-12V967
					C1969.6,962.3,1968.7,955.2,1964.3,955.2z"/>
				<path class="st4" d="M2161.7,955.2h-147.5c-4.4,0-10.9,7.1-10.9,11.8v26.7c0,4.7,6.5,12,10.9,12h147.5c4.4,0,10.2-7.4,10.2-12
					V967C2171.9,962.3,2166.1,955.2,2161.7,955.2z"/>
			</g>
			<g>
				<path class="st4" d="M1766.8,1063.1h-147.5c-4.4,0-3.7,4.8-3.7,9.5v26.7c0,4.7-0.7,14.3,3.7,14.3h147.5c4.4,0,7.2-9.7,7.2-14.3
					v-26.7C1774.1,1067.9,1771.2,1063.1,1766.8,1063.1z"/>
				<path class="st4" d="M1964.3,1063.1h-147.5c-4.4,0-5.6,4.8-5.6,9.5v26.7c0,4.7,1.2,14.3,5.6,14.3h147.5c4.4,0,5.4-9.7,5.4-14.3
					v-26.7C1969.6,1067.9,1968.7,1063.1,1964.3,1063.1z"/>
				<path class="st4" d="M2161.7,1063.1h-147.5c-4.4,0-10.9,4.8-10.9,9.5v26.7c0,4.7,6.5,14.3,10.9,14.3h147.5
					c4.4,0,10.2-9.7,10.2-14.3v-26.7C2171.9,1067.9,2166.1,1063.1,2161.7,1063.1z"/>
			</g>
			<g>
				<path class="st4" d="M1766.8,1167.6h-147.5c-4.4,0-3.7,5.9-3.7,10.6v26.7c0,4.7-0.7,9.9,3.7,9.9h147.5c4.4,0,7.2-5.2,7.2-9.9
					v-26.7C1774.1,1173.5,1771.2,1167.6,1766.8,1167.6z"/>
				<path class="st4" d="M1964.3,1167.6h-147.5c-4.4,0-5.6,5.9-5.6,10.6v26.7c0,4.7,1.2,9.9,5.6,9.9h147.5c4.4,0,5.4-5.2,5.4-9.9
					v-26.7C1969.6,1173.5,1968.7,1167.6,1964.3,1167.6z"/>
				<path class="st4" d="M2161.7,1167.6h-147.5c-4.4,0-10.9,5.9-10.9,10.6v26.7c0,4.7,6.5,9.9,10.9,9.9h147.5
					c4.4,0,10.2-5.2,10.2-9.9v-26.7C2171.9,1173.5,2166.1,1167.6,2161.7,1167.6z"/>
			</g>
			<g>
				<path class="st4" d="M1766.8,1278.9h-147.5c-4.4,0-3.7,0.2-3.7,4.9v26.7c0,4.7-0.7,12.2,3.7,12.2h147.5c4.4,0,7.2-7.5,7.2-12.2
					v-26.7C1774.1,1279.1,1771.2,1278.9,1766.8,1278.9z"/>
				<path class="st4" d="M1964.3,1278.9h-147.5c-4.4,0-5.6,0.2-5.6,4.9v26.7c0,4.7,1.2,12.2,5.6,12.2h147.5c4.4,0,5.4-7.5,5.4-12.2
					v-26.7C1969.6,1279.1,1968.7,1278.9,1964.3,1278.9z"/>
				<path class="st4" d="M2161.7,1278.9h-147.5c-4.4,0-10.9,0.2-10.9,4.9v26.7c0,4.7,6.5,12.2,10.9,12.2h147.5
					c4.4,0,10.2-7.5,10.2-12.2v-26.7C2171.9,1279.1,2166.1,1278.9,2161.7,1278.9z"/>
			</g>
			<g>
				<path class="st4" d="M1766.8,1386.8h-147.5c-4.4,0-3.7-2.1-3.7,2.6v26.7c0,4.7-0.7,7.8,3.7,7.8h147.5c4.4,0,7.2-3.1,7.2-7.8
					v-26.7C1774.1,1384.7,1771.2,1386.8,1766.8,1386.8z"/>
				<path class="st4" d="M1964.3,1386.8h-147.5c-4.4,0-5.6-2.1-5.6,2.6v26.7c0,4.7,1.2,7.8,5.6,7.8h147.5c4.4,0,5.4-3.1,5.4-7.8
					v-26.7C1969.6,1384.7,1968.7,1386.8,1964.3,1386.8z"/>
				<path class="st4" d="M2161.7,1386.8h-147.5c-4.4,0-10.9-2.1-10.9,2.6v26.7c0,4.7,6.5,7.8,10.9,7.8h147.5
					c4.4,0,10.2-3.1,10.2-7.8v-26.7C2171.9,1384.7,2166.1,1386.8,2161.7,1386.8z"/>
			</g>
			<g>
				<path class="st4" d="M1766.8,1487.9h-147.5c-4.4,0-3.7,2.4-3.7,7.1v26.7c0,4.7-0.7,10.1,3.7,10.1h147.5c4.4,0,7.2-5.4,7.2-10.1
					V1495C1774.1,1490.3,1771.2,1487.9,1766.8,1487.9z"/>
				<path class="st4" d="M1964.3,1487.9h-147.5c-4.4,0-5.6,2.4-5.6,7.1v26.7c0,4.7,1.2,10.1,5.6,10.1h147.5c4.4,0,5.4-5.4,5.4-10.1
					V1495C1969.6,1490.3,1968.7,1487.9,1964.3,1487.9z"/>
				<path class="st4" d="M2161.7,1487.9h-147.5c-4.4,0-10.9,2.4-10.9,7.1v26.7c0,4.7,6.5,10.1,10.9,10.1h147.5
					c4.4,0,10.2-5.4,10.2-10.1V1495C2171.9,1490.3,2166.1,1487.9,2161.7,1487.9z"/>
			</g>
		</g>
	</g>
	<g>
		<path class="st1" d="M621.7,349.6c-0.1-7.5-3.2-14.6-8.6-19.7c-5.4-5.1-12.7-7.9-20.2-7.6L25.2,345.1c-9.7,0.4-17.4,8.5-17.1,18.3
			l28.8,1213.5l574-7c7.4-0.1,14.4-3.1,19.5-8.4c5.1-5.3,8-12.4,7.9-19.7L621.7,349.6z"/>
		<g class="st5">
			<g>
				<polygon class="st4" points="164.5,572.6 73.2,572.2 72.1,415.7 163.7,415.7 				"/>
				<polygon class="st4" points="295.7,572.3 204.7,571.9 203.9,415.7 295.1,415.7 				"/>
				<polygon class="st4" points="433.5,572 342.9,571.6 342.4,415.7 433.2,415.7 				"/>
				<polygon class="st4" points="570.4,572.8 478.6,571.9 476.8,415.7 570.4,415.7 				"/>
			</g>
			<g>
				<polygon class="st4" points="165.8,795 74.7,795.4 73.6,640.5 164.9,640.2 				"/>
				<polygon class="st4" points="296.5,794.3 205.8,794.7 205,640.1 295.9,639.8 				"/>
				<polygon class="st4" points="434,793.5 343.6,794 343.1,639.6 433.7,639.3 				"/>
				<polygon class="st4" points="570.4,792.8 478.8,793.3 479.4,639.2 570.4,638.9 				"/>
			</g>
			<g>
				<polygon class="st4" points="167.1,1022.2 76.3,1023 75.2,869 166.2,868.4 				"/>
				<polygon class="st4" points="297.4,1021.1 206.9,1021.9 206.1,868.2 296.8,867.6 				"/>
				<polygon class="st4" points="434.4,1019.9 344.3,1020.7 343.8,867.3 434.1,866.7 				"/>
				<polygon class="st4" points="570.4,1018.8 479.1,1019.5 479.7,866.4 570.4,865.9 				"/>
			</g>
			<g>
				<polygon class="st4" points="168.3,1244.4 77.8,1245.4 76.8,1096.1 167.5,1095.2 				"/>
				<polygon class="st4" points="298.2,1242.9 208.1,1243.9 207.3,1094.8 297.6,1094 				"/>
				<polygon class="st4" points="434.8,1241.3 345,1242.3 344.5,1093.5 434.5,1092.6 				"/>
				<polygon class="st4" points="570.4,1239.7 479.4,1240.8 480,1092.2 570.4,1091.4 				"/>
			</g>
			<g>
				<polygon class="st4" points="169.6,1468.8 79.4,1470.1 78.4,1321.7 168.7,1320.6 				"/>
				<polygon class="st4" points="299.1,1466.8 209.2,1468.2 208.4,1320 298.5,1318.9 				"/>
				<polygon class="st4" points="435.2,1464.8 345.7,1466.2 345.2,1318.3 434.9,1317.1 				"/>
				<polygon class="st4" points="570.4,1462.8 479.7,1464.2 480.3,1316.6 570.4,1315.4 				"/>
			</g>
		</g>
	</g>
	<g>
		<path class="st1" d="M1766.6,471.5c-0.1-7.4-3.2-14.5-8.6-19.6c-5.4-5.1-12.6-7.9-20-7.6l-600.1,19.2
			c-15.3,0.5-27.3,13.2-26.8,28.5l29.6,993.9c0.4,15.1,12.9,27,28,26.9l588.1-5.7c7.4-0.1,14.4-3.1,19.6-8.4
			c5.2-5.3,8-12.4,7.8-19.8L1766.6,471.5z"/>
		<g class="st6">
			<path class="st4" d="M1704,520.3h-534.4c-5.2,0-9.4,2.7-9.3,7.6l0.5,46.6c0.1,5,4.3,10.3,9.6,10.3l535.9,0.4
				c5.3,0,9.4-5.8,9.2-10.8l-1.6-46.5C1713.7,523,1709.3,520.3,1704,520.3z"/>
			<path class="st4" d="M1707.5,620.7l-536.8-0.9c-5.2,0-9.4,5-9.3,9.9l0.5,47.7c0.1,5,4.3,9.7,9.6,9.7l538.3,1.5
				c5.3,0,9.5-4.7,9.3-9.8l-1.6-48.1C1717.3,625.7,1712.8,620.7,1707.5,620.7z"/>
			<path class="st4" d="M1711.1,728.2l-539.2-1.8c-5.2,0-9.5,2.4-9.4,7.4l0.5,48.1c0.1,5,4.4,8.8,9.6,8.9l540.6,2.4
				c5.4,0,9.6-3.8,9.4-8.9l-1.7-48.5C1720.9,730.7,1716.5,728.2,1711.1,728.2z"/>
			<path class="st4" d="M1714.6,833l-541.5-2.8c-5.3,0-9.5,3.4-9.4,8.4l0.5,48.5c0.1,5.1,4.4,7.9,9.6,8l543,3.3
				c5.4,0,9.6-2.8,9.5-7.9l-1.7-49C1724.5,836.5,1720,833,1714.6,833z"/>
			<path class="st4" d="M1718.2,938.7l-543.9-3.7c-5.3,0-9.5,4.4-9.5,9.5l0.5,48.9c0.1,5.1,4.4,10.7,9.7,10.7l545.5,4.3
				c5.4,0,9.6-5.5,9.4-10.7l-1.7-49.4C1728.1,943.3,1723.6,938.8,1718.2,938.7z"/>
			<path class="st4" d="M1721.8,1045.4l-546.3-4.7c-5.3,0-9.6,5.4-9.5,10.6l0.5,49.4c0.1,5.2,4.4,9.8,9.8,9.8l547.9,5.3
				c5.4,0.1,9.7-4.5,9.5-9.7l-1.7-49.8C1731.8,1051.1,1727.2,1045.5,1721.8,1045.4z"/>
			<path class="st4" d="M1725.6,1156.8l-548.9-5.7c-5.3-0.1-9.6,2.7-9.6,7.9l0.5,49.8c0.1,5.2,4.4,8.9,9.8,8.9l550.4,6.3
				c5.5,0.1,9.7-3.5,9.6-8.8l-1.7-50.3C1735.5,1159.8,1731,1156.8,1725.6,1156.8z"/>
			<path class="st4" d="M1729.2,1265.4l-551.3-6.7c-5.4-0.1-9.7,3.8-9.6,9l0.5,50.3c0.1,5.3,4.4,7.9,9.8,8l552.9,7.3
				c5.5,0.1,9.8-2.5,9.6-7.8l-1.7-50.8C1739.2,1269.4,1734.7,1265.5,1729.2,1265.4z"/>
			<path class="st4" d="M1732.9,1375l-553.8-7.7c-5.4-0.1-9.7,4.8-9.6,10.1l0.5,50.7c0.1,5.3,4.5,10.8,9.9,10.8l555.4,8.3
				c5.5,0.1,9.8-5.3,9.6-10.7l-1.7-51.2C1743,1380.1,1738.4,1375.1,1732.9,1375z"/>
		</g>
	</g>
	<g>
		<g>
			<polygon class="st7" points="1104.9,2282.2 1049,2667.9 1697.6,2667.9 1613.1,2282.2 			"/>
			<path class="st8" d="M15.4,1046.9v1148.3c0,94.5,75.3,171.7,169.7,174.1c419.4,10.8,1886.3,37,2285.5,31.2
				c68.6-1,124.2-55.9,126.2-124.5c7.7-266.8,20.2-908.2-26.1-1206c-9.7-62.7-62.7-109.6-126.1-111.6
				c-351.4-11.2-1906.4-46.9-2305.4-38C70.4,921.8,15.4,978.1,15.4,1046.9z"/>
			<path class="st2" d="M87.4,1041.3v1090.9c0,55.2,44.3,100.1,99.4,100.9l2226.3,27.5c54.7,0.8,99.5-43.2,99.7-97.8l3.7-1081.2
				c0.1-39.1-31-71.1-70.1-72.1l-2279.3-46C123.5,962.4,87.4,997.6,87.4,1041.3z"/>
			<path class="st1" d="M2529.6,2305.4C2529.6,2305.4,2529.6,2305.4,2529.6,2305.4L87.4,2263.8c-1.7,0-3.1-1.4-3-3.1
				c0-1.7,1.5-3,3.1-3l2442.2,41.6c1.7,0,3.1,1.4,3,3.1C2532.7,2304,2531.3,2305.4,2529.6,2305.4z"/>
			<g>
				<path class="st1" d="M1332.6,2356.2c-15.7,0-28.5-12.8-28.5-28.5c0-15.7,12.8-28.5,28.5-28.5c15.7,0,28.5,12.8,28.5,28.5
					C1361.1,2343.4,1348.3,2356.2,1332.6,2356.2z M1332.6,2305.4c-12.3,0-22.3,10-22.3,22.3c0,12.3,10,22.3,22.3,22.3
					c12.3,0,22.3-10,22.3-22.3C1354.9,2315.4,1344.9,2305.4,1332.6,2305.4z"/>
			</g>
			<path class="st8" d="M1837.3,2770.5H888c-25.8,0-45.2-18.4-40.2-38.1l12.2-48.2c3.7-14.5,19.6-25.1,38.5-25.7l915.1-28.6
				c19.8-0.6,37.3,9.9,41.6,24.9l22,76.7C1882.9,2751.6,1863.5,2770.5,1837.3,2770.5z"/>
			<path class="st1" d="M1399,2671.6c-1.7,0-3.1-1.4-3.1-3c0-1.7,1.3-3.1,3-3.1l39.2-0.6c1.6,0,3.1,1.3,3.1,3c0,1.7-1.3,3.1-3,3.1
				L1399,2671.6C1399,2671.6,1399,2671.6,1399,2671.6z"/>
			<path class="st1" d="M883,2744c-0.2,0-0.3,0-0.5,0c-1.7-0.3-2.8-1.9-2.6-3.5l5.6-35c3-18.8,19-32.7,38.1-33l415.9-6.1
				c0,0,0,0,0,0c1.7,0,3.1,1.4,3.1,3c0,1.7-1.3,3.1-3,3.1l-415.9,6.1c-16.1,0.2-29.5,11.9-32.1,27.8l-5.6,35
				C885.8,2742.9,884.5,2744,883,2744z"/>
		</g>
	</g>
	<g>
		<g>
			<path class="st8" d="M90,870.7l-4,64.3c-1.4,21.5,11.1,41.6,31,49.9l47.2,19.7c12.8,5.3,22,16.6,24.9,30.1
				c7.5,34,18.7,66.6,33.4,97.4c6,12.5,5.6,27.1-1.2,39.1l-25.3,44.5c-10.6,18.8-8.2,42.2,6.1,58.4l42.6,48.3
				c14.3,16.2,37.2,21.5,57.2,13.3l47.3-19.5c12.8-5.3,27.3-3.8,39,3.7c28.7,18.4,59.7,33.7,92.5,45.3c13,4.6,23.1,15.2,26.8,28.5
				l13.6,49.3c5.7,20.8,24,35.7,45.6,37l64.3,4c21.5,1.4,41.6-11.1,49.9-31l19.7-47.2c5.3-12.8,16.6-22,30.1-24.9
				c34-7.5,66.6-18.7,97.4-33.4c12.5-6,27.1-5.6,39.1,1.2l44.5,25.3c18.8,10.6,42.2,8.2,58.4-6.1l48.3-42.6
				c16.2-14.3,21.5-37.2,13.3-57.2l-19.5-47.3c-5.3-12.8-3.8-27.3,3.7-39c18.4-28.7,33.7-59.7,45.3-92.5c4.6-13,15.2-23.1,28.5-26.8
				l49.3-13.6c20.8-5.7,35.7-24,37-45.6l4-64.3c1.4-21.5-11.1-41.6-31-49.9l-47.2-19.7c-12.8-5.3-22-16.6-24.9-30.1
				c-7.5-34-18.7-66.6-33.4-97.4c-6-12.5-5.6-27.1,1.2-39.1l25.3-44.5c10.6-18.8,8.2-42.2-6.1-58.4l-42.6-48.3
				c-14.3-16.2-37.2-21.5-57.2-13.3l-47.3,19.5c-12.8,5.3-27.3,3.8-39-3.7c-28.7-18.4-59.7-33.7-92.5-45.3
				c-13-4.6-23.1-15.2-26.8-28.5L745,431.1c-5.7-20.8-24-35.7-45.6-37l-64.3-4c-21.5-1.4-41.6,11.1-49.9,31l-19.7,47.2
				c-5.3,12.8-16.6,22-30.1,24.9c-34,7.5-66.6,18.7-97.4,33.4c-12.5,6-27.1,5.6-39.1-1.2l-44.5-25.3c-18.8-10.6-42.2-8.2-58.4,6.1
				l-48.3,42.6c-16.2,14.3-21.5,37.2-13.3,57.2l19.5,47.3c5.3,12.8,3.8,27.3-3.7,39c-18.4,28.7-33.7,59.7-45.3,92.5
				c-4.6,13-15.2,23.1-28.5,26.8L127,825.1C106.2,830.8,91.4,849.1,90,870.7z M263.2,876c33.7-204.3,226.7-342.5,430.9-308.7
				c204.3,33.7,342.5,226.7,308.7,430.9c-33.7,204.3-226.7,342.5-430.9,308.7C367.7,1273.1,229.5,1080.2,263.2,876z"/>
		</g>
		<g>
			<defs>
				<circle id="SVGID_1_" cx="635.7" cy="937.5" r="376.5"/>
			</defs>
			<clipPath id="SVGID_2_">
				<use xlink:href="#SVGID_1_"  style="overflow:visible;"/>
			</clipPath>
			<g class="st9">
				<linearGradient id="SVGID_3_" gradientUnits="userSpaceOnUse" x1="569.6037" y1="1170.5775" x2="1817.2592" y2="1149.7832">
					<stop  offset="0" style="stop-color:#FEBBBA"/>
					<stop  offset="1" style="stop-color:#FF928E"/>
				</linearGradient>
				<path class="st10" d="M727.5,1096.5c0,0,32.3,165.6,44.1,165.6c11.8,0,229.6-26.1,229.6-26.1v-47.2l-172.3,6.3l-41.6-123.1
					L727.5,1096.5z"/>
				<linearGradient id="SVGID_4_" gradientUnits="userSpaceOnUse" x1="1123.728" y1="310.9505" x2="951.7874" y2="553.6904">
					<stop  offset="0" style="stop-color:#FF928E"/>
					<stop  offset="1" style="stop-color:#FE7062"/>
				</linearGradient>
				<path class="st11" d="M686.5,1277.2H396l17.6-207.1c0,0-21.7-156,77.4-173.2c58.4-15.9,58.4-16.1,58.4-16.1
					s74.7-11.8,137.1,15.8c62.4,27.6,114,193.1,114,193.1l-74.7,29.8l-19-60.3L686.5,1277.2z"/>
				
					<linearGradient id="SVGID_5_" gradientUnits="userSpaceOnUse" x1="473.5121" y1="1514.7532" x2="380.6648" y2="1915.9857" gradientTransform="matrix(0.9877 0.1565 -0.1565 0.9877 407.0636 -808.8056)">
					<stop  offset="0" style="stop-color:#FEBBBA"/>
					<stop  offset="1" style="stop-color:#FF928E"/>
				</linearGradient>
				<path class="st12" d="M563.5,781.3l-29.6,113.6c0,0,61.8,29.8,114.3,4l-16.6-110.1L563.5,781.3z"/>
				
					<linearGradient id="SVGID_6_" gradientUnits="userSpaceOnUse" x1="761.1627" y1="1970.0892" x2="572.9924" y2="2114.0681" gradientTransform="matrix(0.9382 0.346 -0.346 0.9382 653.6259 -1357.2373)">
					<stop  offset="0" style="stop-color:#FEBBBA"/>
					<stop  offset="1" style="stop-color:#FF928E"/>
				</linearGradient>
				<path class="st13" d="M702.7,689.6c0,0,4.7,82.3-6.9,120.3c-11.7,38-12.5,65.1-58.4,56.7c-45.8-8.4-74.2-43.2-80.1-87.5
					c0,0-9.7-68.5,5.8-89.4C578.6,668.9,702.7,689.6,702.7,689.6z"/>
				<path class="st8" d="M581.8,757.9l2.8-0.2c3.6-0.2,6.3-3.4,5.9-7.1c-1.7-14-3.7-45.2,13.9-45.8c22.7-0.8,106.6,12.1,133.7-9.4
					c26-20.6,24.3-60.3,6.4-78c-1.2-1.2-3.1-1.3-4.3-0.2l-3,2.7c-2.1,1.9-5.4,0.3-5.2-2.5c0.2-2.7-2.9-4.3-5-2.7
					c-8.2,6.4-27.2,14.7-67.1,7.8c-56.7-9.8-99.8-1.2-114.2,35.1c-0.9,2.3-3.9,2.7-5.4,0.7c-3-3.8-8.9-7.3-19.9-3.3
					c-19.1,6.9-24.9,40.9-2.5,78.9c1.1,1.8,0.2,4.2-1.9,4.6c-7.2,1.6-19.1,7.4-1.2,27.7c18.6,20.9,36.3,26.3,43.3,27.6
					c1.8,0.3,3.4-0.9,3.7-2.6l4.8-34.9c0.3-2,2.3-3.2,4.2-2.5L581.8,757.9z"/>
				
					<linearGradient id="SVGID_7_" gradientUnits="userSpaceOnUse" x1="737.8225" y1="1939.5846" x2="549.6525" y2="2083.5632" gradientTransform="matrix(0.9382 0.346 -0.346 0.9382 653.6259 -1357.2373)">
					<stop  offset="0" style="stop-color:#FEBBBA"/>
					<stop  offset="1" style="stop-color:#FF928E"/>
				</linearGradient>
				<path class="st14" d="M580.6,765.2c0,0,4.9-49.7-20.1-44.4c-25,5.2-8.2,54.7,7.5,62.4L580.6,765.2z"/>
				<g>
					<g>
						<g>
							<path class="st15" d="M642.4,828.4c-53.2-5-74.4-64.6-74.6-65.2l3.8-1.3c0.2,0.6,20.6,57.6,71.1,62.4L642.4,828.4z"/>
						</g>
						<path class="st8" d="M660.7,832.5h-26.3c-1,0-1.9-0.9-1.9-1.9v-9.9c0-1,0.9-1.9,1.9-1.9h26.3c1,0,1.9,0.9,1.9,1.9v9.9
							C662.6,831.6,661.8,832.5,660.7,832.5z"/>
					</g>
					<g>
						<path class="st15" d="M581,704c0,0,33.4-80.6,87.1-80.2c0,0-13.5-9.2-30.3-4.2c-16.8,5-63.4,39.4-70.2,84.4
							C577.5,709.2,581,704,581,704z"/>
						<path class="st15" d="M572.9,697.4c-29.9,0.9-32.6,38-32.6,38c-6.6,26.1-1.1,40.6,7.7,48.5c6,5.4,14.5,7.3,22.2,4.9
							c7.8-2.4,13.7-8.7,15.7-16.5c1.8-7.1,3.6-13.9,4.5-16.2C592.8,750.4,602.8,696.5,572.9,697.4z"/>
					</g>
					<path class="st15" d="M574,707.1c-5.8-2.1-12.3,0.1-15.6,5.3c-24.1,37-7.4,66.6,2.9,68.9c10.9,2.5,19.7-50.3,19.7-64.2
						C581,711.3,577.8,708.4,574,707.1z"/>
				</g>
				<path class="st15" d="M968.8,1260.4l-745.3,6.2c-3.1,0-5.8,6.5-6.2,14.4l-1.1,24.5c-0.4,8,1.8,14.5,4.9,14.4l749.2-10.8
					c2.6,0,4.5-6,4.2-13.3l-0.7-22.3C973.5,1266.2,971.3,1260.4,968.8,1260.4z"/>
				<path class="st8" d="M713.7,1261.5h93.7c0,0-21.3-45.7-60.2-43.4C708.2,1220.3,713.7,1261.5,713.7,1261.5z"/>
				<linearGradient id="SVGID_8_" gradientUnits="userSpaceOnUse" x1="265.7736" y1="1188.989" x2="1783.0015" y2="1163.7019">
					<stop  offset="0" style="stop-color:#FEBBBA"/>
					<stop  offset="1" style="stop-color:#FF928E"/>
				</linearGradient>
				<path class="st16" d="M458.3,1133.8l65.2-30l57.6,101.2c0,0,162.9-25.3,191.9,5.4c29,30.8,15.4,30.3,11.8,30.3
					c-3.6,0-20.4-18.1-20.4-18.1s14.7,22.1,6.8,23.1c-7.9,1-27.1-19.9-27.1-19.9s15.8,27.6,6.3,24.4c-9.5-3.2-17.2-18.1-17.2-18.1
					s12.7,17.7,4.1,18.4c-8.6,0.7-21.7-14.6-21.7-14.6s-20.1,9.1-31.7,9.1s-127.8,29-148.9,17C513.9,1250,458.3,1133.8,458.3,1133.8
					z"/>
				<g>
					<linearGradient id="SVGID_9_" gradientUnits="userSpaceOnUse" x1="622.394" y1="716.1843" x2="433.5867" y2="1296.0919">
						<stop  offset="0" style="stop-color:#E1473D"/>
						<stop  offset="1" style="stop-color:#E9605A"/>
					</linearGradient>
					<path class="st17" d="M523.5,1105.2c-0.4,0-0.8-0.2-1.1-0.5c-0.5-0.6-0.3-1.5,0.3-1.9l12-9L496.1,987c-0.3-0.7,0.1-1.5,0.8-1.7
						c0.7-0.3,1.5,0.1,1.7,0.8l38.9,107.7c0.2,0.6,0,1.2-0.5,1.5l-12.8,9.6C524.1,1105.1,523.8,1105.2,523.5,1105.2z"/>
				</g>
				<g>
					<linearGradient id="SVGID_10_" gradientUnits="userSpaceOnUse" x1="567.9427" y1="698.457" x2="379.1351" y2="1278.3655">
						<stop  offset="0" style="stop-color:#E1473D"/>
						<stop  offset="1" style="stop-color:#E9605A"/>
					</linearGradient>
					<path class="st18" d="M452.1,1129.5c-0.4,0-0.9-0.2-1.1-0.6l-32.6-48c-0.4-0.6-0.3-1.5,0.4-1.9c0.6-0.4,1.5-0.3,1.9,0.4
						l32.6,48c0.4,0.6,0.3,1.5-0.4,1.9C452.7,1129.4,452.4,1129.5,452.1,1129.5z"/>
				</g>
			</g>
		</g>
	</g>
	<g>
		<g>
			<g>
				<path class="st15" d="M919.6,1528.4H273.4c-11.7,0-22.9,5.8-30.9,16.3c-8,10.5-12,24.6-11.2,39l11.5,189.7
					c1.7,27.7,20.9,48.9,43.6,47.9l634.5-28.1c22.7-1,40.6-23.9,40.6-51.7v-161.7C961.5,1551.1,942.9,1528.4,919.6,1528.4z"/>
				<g>
					<linearGradient id="SVGID_11_" gradientUnits="userSpaceOnUse" x1="323.672" y1="1526.2449" x2="316.9289" y2="1748.7678">
						<stop  offset="0" style="stop-color:#FEBBBA"/>
						<stop  offset="1" style="stop-color:#FF928E"/>
					</linearGradient>
					<path class="st19" d="M351.5,1760l-25.9-11.2c-2-0.9-4.3-0.7-6.2,0.5l-23.9,15c-4.7,2.9-10.7-0.8-10.2-6.3l2.6-28.1
						c0.2-2.2-0.7-4.3-2.4-5.7l-21.7-18.1c-4.2-3.5-2.6-10.4,2.8-11.6l27.6-6.2c2.1-0.5,3.9-2,4.7-4l10.5-26.2
						c2.1-5.1,9.1-5.7,11.9-0.9l14.4,24.3c1.1,1.9,3.1,3.1,5.3,3.3l28.2,1.9c5.5,0.4,8.2,6.9,4.6,11.1l-18.7,21.2
						c-1.5,1.6-2,3.9-1.5,6l6.9,27.4C361.9,1757.6,356.6,1762.2,351.5,1760z"/>
				</g>
				<g>
					<linearGradient id="SVGID_12_" gradientUnits="userSpaceOnUse" x1="459.0486" y1="1530.348" x2="452.3055" y2="1752.871">
						<stop  offset="0" style="stop-color:#FEBBBA"/>
						<stop  offset="1" style="stop-color:#FF928E"/>
					</linearGradient>
					<path class="st20" d="M487,1760l-25.9-11.2c-2-0.9-4.3-0.7-6.2,0.5l-23.9,15c-4.7,2.9-10.7-0.8-10.2-6.3l2.6-28.1
						c0.2-2.2-0.7-4.3-2.4-5.7l-21.7-18.1c-4.2-3.5-2.6-10.4,2.8-11.6l27.6-6.2c2.1-0.5,3.9-2,4.7-4L445,1658
						c2.1-5.1,9.1-5.7,11.9-0.9l14.4,24.3c1.1,1.9,3.1,3.1,5.3,3.3l28.2,1.9c5.5,0.4,8.2,6.9,4.6,11.1l-18.7,21.2
						c-1.5,1.6-2,3.9-1.5,6l6.9,27.4C497.4,1757.6,492.1,1762.2,487,1760z"/>
				</g>
				<g>
					<linearGradient id="SVGID_13_" gradientUnits="userSpaceOnUse" x1="603.1766" y1="1534.7157" x2="596.4335" y2="1757.2386">
						<stop  offset="0" style="stop-color:#FEBBBA"/>
						<stop  offset="1" style="stop-color:#FF928E"/>
					</linearGradient>
					<path class="st21" d="M631.2,1760l-25.9-11.2c-2-0.9-4.3-0.7-6.2,0.5l-23.9,15c-4.7,2.9-10.7-0.8-10.2-6.3l2.6-28.1
						c0.2-2.2-0.7-4.3-2.4-5.7l-21.7-18.1c-4.2-3.5-2.6-10.4,2.8-11.6l27.6-6.2c2.1-0.5,3.9-2,4.7-4l10.5-26.2
						c2.1-5.1,9.1-5.7,11.9-0.9l14.4,24.3c1.1,1.9,3.1,3.1,5.3,3.3l28.2,1.9c5.5,0.4,8.2,6.9,4.6,11.1l-18.7,21.2
						c-1.5,1.6-2,3.9-1.5,6l6.9,27.4C641.7,1757.6,636.3,1762.2,631.2,1760z"/>
				</g>
				<g>
					<linearGradient id="SVGID_14_" gradientUnits="userSpaceOnUse" x1="742.5579" y1="1538.9387" x2="735.8148" y2="1761.4618">
						<stop  offset="0" style="stop-color:#FEBBBA"/>
						<stop  offset="1" style="stop-color:#FF928E"/>
					</linearGradient>
					<path class="st22" d="M770.7,1760l-25.9-11.2c-2-0.9-4.3-0.7-6.2,0.5l-23.9,15c-4.7,2.9-10.7-0.8-10.2-6.3l2.6-28.1
						c0.2-2.2-0.7-4.3-2.4-5.7l-21.7-18.1c-4.2-3.5-2.6-10.4,2.8-11.6l27.6-6.2c2.1-0.5,3.9-2,4.7-4l10.5-26.2
						c2.1-5.1,9.1-5.7,11.9-0.9l14.4,24.3c1.1,1.9,3.1,3.1,5.3,3.3l28.2,1.9c5.5,0.4,8.2,6.9,4.6,11.1l-18.7,21.2
						c-1.5,1.6-2,3.9-1.5,6l6.9,27.4C781.2,1757.6,775.8,1762.2,770.7,1760z"/>
				</g>
				<g>
					<linearGradient id="SVGID_15_" gradientUnits="userSpaceOnUse" x1="885.5798" y1="1543.2728" x2="878.8367" y2="1765.7958">
						<stop  offset="0" style="stop-color:#FEBBBA"/>
						<stop  offset="1" style="stop-color:#FF928E"/>
					</linearGradient>
					<path class="st23" d="M913.9,1760l-25.9-11.2c-2-0.9-4.3-0.7-6.2,0.5l-23.9,15c-4.7,2.9-10.7-0.8-10.2-6.3l2.6-28.1
						c0.2-2.2-0.7-4.3-2.4-5.7l-21.7-18.1c-4.2-3.5-2.6-10.4,2.8-11.6l27.6-6.2c2.1-0.5,3.9-2,4.7-4l10.5-26.2
						c2.1-5.1,9.1-5.7,11.9-0.9l14.4,24.3c1.1,1.9,3.1,3.1,5.3,3.3l28.2,1.9c5.5,0.4,8.2,6.9,4.6,11.1l-18.7,21.2
						c-1.5,1.6-2,3.9-1.5,6l6.9,27.4C924.4,1757.6,919,1762.2,913.9,1760z"/>
				</g>
				<path class="st24" d="M907.6,1595.4c0,12.1-8.8,20.6-19.7,20.6H357.5c-10.9,0-19.7-8.5-19.7-20.6v-1.1
					c0-12.1,8.8-22.1,19.7-22.1h530.3c10.9,0,19.7,10,19.7,22.1V1595.4z"/>
			</g>
		</g>
	</g>
	<g>
		<g>
			<g class="st25">
				<path class="st4" d="M2376.8,1270.7h-972.5c-6.6,0-12-5.4-12-12v-192c0-6.6,5.4-12,12-12h972.5c6.6,0,12,5.4,12,12v192
					C2388.8,1265.3,2383.4,1270.7,2376.8,1270.7z"/>
				<polygon class="st4" points="2166.8,1263.1 2213.3,1337.1 2256.2,1259.5 				"/>
			</g>
			
				<ellipse transform="matrix(0.7071 -0.7071 0.7071 0.7071 -378.0629 1422.1121)" class="st4" cx="1527.6" cy="1167.4" rx="86.6" ry="86.6"/>
			<g>
				<path class="st15" d="M1554,1134.6c0,14.8-11.9,30.5-26.6,30.1c-14.7-0.4-26.7-16.9-26.7-31.8c0-14.9,12-25.1,26.7-24.5
					C1542.1,1108.8,1554,1119.7,1554,1134.6z"/>
				<path class="st15" d="M1494.2,1221.1l65,1.6c6.8,0.2,12.8-4.1,14.9-10.7l3.5-10.9c2.5-8-1.6-16.8-9.4-20
					c-26.3-10.5-53.6-10.1-81.8-1.4c-7.9,2.4-12.3,10.9-10.1,19l2.7,10.2C1480.8,1216,1487.1,1221,1494.2,1221.1z"/>
			</g>
		</g>
		<g>
			<g class="st25">
				<path class="st4" d="M2393.6,1869.2h-972.5c-6.6,0-12-5.4-12-12v-192c0-6.6,5.4-12,12-12h972.5c6.6,0,12,5.4,12,12v192
					C2405.6,1863.8,2400.2,1869.2,2393.6,1869.2z"/>
				<polygon class="st4" points="2183.7,1861.7 2230.2,1935.6 2273,1858 				"/>
			</g>
			
				<ellipse transform="matrix(0.7071 -0.7071 0.7071 0.7071 -796.3478 1609.3386)" class="st4" cx="1544.5" cy="1765.9" rx="86.6" ry="86.6"/>
			<g>
				<path class="st15" d="M1570.8,1733.1c0,14.8-11.9,30.5-26.6,30.1c-14.7-0.4-26.7-16.9-26.7-31.8c0-14.9,12-25.1,26.7-24.5
					C1558.9,1707.3,1570.8,1718.2,1570.8,1733.1z"/>
				<path class="st15" d="M1511.1,1819.7l65,1.6c6.8,0.2,12.8-4.1,14.9-10.7l3.5-10.9c2.5-8-1.6-16.8-9.4-20
					c-26.3-10.5-53.6-10.1-81.8-1.4c-7.9,2.4-12.3,10.9-10.1,19l2.7,10.2C1497.7,1814.5,1503.9,1819.5,1511.1,1819.7z"/>
			</g>
		</g>
		<g>
			<g class="st25">
				<path class="st4" d="M1421.2,1568.5h972.5c6.6,0,12-5.4,12-12v-192c0-6.6-5.4-12-12-12h-972.5c-6.6,0-12,5.4-12,12v192
					C1409.2,1563.1,1414.6,1568.5,1421.2,1568.5z"/>
				<polygon class="st4" points="1631.2,1561 1584.6,1634.9 1541.8,1557.4 				"/>
			</g>
			
				<ellipse transform="matrix(0.7071 -0.7071 0.7071 0.7071 -371.1387 2034.5464)" class="st4" cx="2270.3" cy="1465.3" rx="86.6" ry="86.6"/>
			<g>
				<path class="st15" d="M2244,1432.4c0,14.8,11.9,30.5,26.6,30.1c14.7-0.4,26.7-16.9,26.7-31.8c0-14.9-12-25.1-26.7-24.5
					C2255.9,1406.6,2244,1417.6,2244,1432.4z"/>
				<path class="st15" d="M2303.7,1519l-65,1.6c-6.8,0.2-12.8-4.1-14.9-10.7l-3.5-10.9c-2.5-8,1.6-16.8,9.4-20
					c26.3-10.5,53.6-10.1,81.8-1.4c7.9,2.4,12.3,10.9,10.1,19l-2.7,10.2C2317.2,1513.8,2310.9,1518.8,2303.7,1519z"/>
			</g>
		</g>
		<g>
			<g class="st25">
				<path class="st4" d="M1432.4,2161.5h972.5c6.6,0,12-5.4,12-12v-192c0-6.6-5.4-12-12-12h-972.5c-6.6,0-12,5.4-12,12v192
					C1420.4,2156.1,1425.8,2161.5,1432.4,2161.5z"/>
				<polygon class="st4" points="1642.4,2153.9 1595.9,2227.8 1553,2150.3 				"/>
			</g>
			
				<ellipse transform="matrix(0.7071 -0.7071 0.7071 0.7071 -787.0957 2216.1528)" class="st4" cx="2281.6" cy="2058.2" rx="86.6" ry="86.6"/>
			<g>
				<path class="st15" d="M2255.2,2025.3c0,14.8,11.9,30.5,26.6,30.1c14.7-0.4,26.7-16.9,26.7-31.8c0-14.9-12-25.1-26.7-24.5
					C2267.1,1999.5,2255.2,2010.5,2255.2,2025.3z"/>
				<path class="st15" d="M2315,2111.9l-65,1.6c-6.8,0.2-12.8-4.1-14.9-10.7l-3.5-10.9c-2.5-8,1.6-16.8,9.4-20
					c26.3-10.5,53.6-10.1,81.8-1.4c7.9,2.4,12.3,10.9,10.1,19l-2.7,10.2C2328.4,2106.7,2322.1,2111.7,2315,2111.9z"/>
			</g>
		</g>
	</g>
	<g>
		<g>
			<g>
				<path class="st15" d="M2318,2784.2c28,2.4,76.7,6.4,115,8c23.1,1,36.3-1.2,44-4.3c0,0.9,0,1.7-0.1,2.4c-0.2,4-3.5,7.3-7.5,7.5
					c-72.5,4-130.1,1.4-150.6,0.2c-4.2-0.3-6.8-4.9-4.6-8.5C2315.3,2787.7,2316.6,2785.9,2318,2784.2z"/>
				<path class="st8" d="M2433,2792.2c-38.4-1.7-87-5.6-115-8c27.6-33.8,115-56.6,115-56.6h24.7c17,24.5,19.5,47.8,19.3,60.3
					C2469.4,2791,2456.1,2793.2,2433,2792.2z"/>
				
					<linearGradient id="SVGID_16_" gradientUnits="userSpaceOnUse" x1="-4602.8359" y1="2715.2517" x2="-4556.7495" y2="2715.2517" gradientTransform="matrix(-1 0 0 1 -2140.937 0)">
					<stop  offset="0" style="stop-color:#FEBBBA"/>
					<stop  offset="1" style="stop-color:#FF928E"/>
				</linearGradient>
				<path class="st26" d="M2461.9,2687.2l-2.3,45.7c-0.3,5-4,9.1-8.9,9.8c-4.9,0.7-11.5,0.8-18.6-1.5c-4.3-1.4-7.5-5.1-8.3-9.5
					l-8-44.5H2461.9z"/>
			</g>
			<g>
				<g>
					<path class="st15" d="M2782.8,2791.9c12.2-1.7,17.7-8,20-14.8c0,0.1,0,0.1,0,0.2c1.8,7.1-2.4,14.5-10.6,18
						c-10,4.2-21,5-29.5,4.6c-9.1-0.4-17.5-4.2-22.1-10.2l-0.1-0.1C2749.6,2794.2,2762.5,2794.7,2782.8,2791.9z"/>
					<path class="st8" d="M2725.5,2687h20.4c31-0.6,50.5,64.8,56.9,90.2c-2.3,6.8-7.8,13.1-20,14.8c-20.3,2.8-33.1,2.3-42.3-2.2
						c-16.8-22.1-25.1-54.4-29.1-73.2C2706.9,2695,2725.5,2687,2725.5,2687z"/>
				</g>
				
					<linearGradient id="SVGID_17_" gradientUnits="userSpaceOnUse" x1="-4895.8262" y1="2676.8323" x2="-4840.748" y2="2676.8323" gradientTransform="matrix(-1 0 0 1 -2140.937 0)">
					<stop  offset="0" style="stop-color:#FEBBBA"/>
					<stop  offset="1" style="stop-color:#FF928E"/>
				</linearGradient>
				<path class="st27" d="M2743.2,2644.5l11.3,45c1.4,5.5-1.3,11.2-6.4,13.8c-6.3,3.2-15.2,6.7-23.4,5.7c-3.9-0.5-7.1-3.2-8.3-6.8
					l-16.6-47.3L2743.2,2644.5z"/>
			</g>
			<path class="st15" d="M2756.7,2657.5c-14.1,12.5-59.9,14.1-59.9,14.1c-164.9-395.8-232.4-452-232.4-452
				c23.8,149.4,3.8,480.1,3.8,480.1c-27.2,12-62.3,0-62.3,0c-2.2-244.6-39.8-457.9-84.2-626c111.5-2.5,170.7-40.6,190.1-56
				C2604.8,2167.6,2756.7,2657.5,2756.7,2657.5z"/>
			
				<linearGradient id="SVGID_18_" gradientUnits="userSpaceOnUse" x1="-3382.5002" y1="-3816.0071" x2="-3433.0735" y2="-3563.1404" gradientTransform="matrix(-1 0 0 1 -2140.937 0)">
				<stop  offset="0" style="stop-color:#FF928E"/>
				<stop  offset="1" style="stop-color:#FE7062"/>
			</linearGradient>
			<path class="st28" d="M2483.6,1562.6c21.1,105.2,13.5,293.6,8.6,379.5c-1.4,24.1,15.5,57.6,29.1,80.5c2.1,3.6,0.8,8.2-2.9,10.1
				c-22.8,11.7-100.1,48.1-189.6,52.6c-6,0.3-11.3-3.8-12.9-9.5c-66.4-248.1-143.6-406.6-143.6-406.6
				C2257.5,1533.1,2483.6,1562.6,2483.6,1562.6z"/>
			<path class="st15" d="M2453.2,2210.2c0.9,0,1.9-0.3,2.7-0.8c2.5-1.5,3.3-4.8,1.8-7.3c-0.9-1.5-22.2-35.9-65.4-56.8
				c-2.6-1.3-5.8-0.2-7.1,2.5c-1.3,2.6-0.2,5.8,2.5,7.1c40.2,19.4,60.8,52.4,61,52.7C2449.7,2209.3,2451.5,2210.2,2453.2,2210.2z"/>
			<g>
				
					<linearGradient id="SVGID_19_" gradientUnits="userSpaceOnUse" x1="-4643.4883" y1="1873.999" x2="-4839.5571" y2="2047.6222" gradientTransform="matrix(-1 0 0 1 -2140.937 0)">
					<stop  offset="0" style="stop-color:#FEBBBA"/>
					<stop  offset="1" style="stop-color:#FF928E"/>
				</linearGradient>
				<path class="st29" d="M2615.9,1864.6c-6.8,49-26.8,102.5-66.8,159.3l-15.2-12.4c0,0,17.6-71.3,7.6-152.2
					C2566.1,1854.4,2595.3,1859.4,2615.9,1864.6z"/>
				
					<linearGradient id="SVGID_20_" gradientUnits="userSpaceOnUse" x1="-3560.9578" y1="-3851.7075" x2="-3611.531" y2="-3598.8406" gradientTransform="matrix(-1 0 0 1 -2140.937 0)">
					<stop  offset="0" style="stop-color:#FF928E"/>
					<stop  offset="1" style="stop-color:#FE7062"/>
				</linearGradient>
				<path class="st30" d="M2460,1692.4l23.6-129.8c0,0,157.4,120.3,132.3,302c-20.6-5.2-49.8-10.2-74.5-5.4
					C2534.2,1801,2512.7,1737.7,2460,1692.4z"/>
			</g>
			<g>
				
					<linearGradient id="SVGID_21_" gradientUnits="userSpaceOnUse" x1="-3194.9514" y1="-3778.5183" x2="-3245.5247" y2="-3525.6521" gradientTransform="matrix(-1 0 0 1 -2140.937 0)">
					<stop  offset="0" style="stop-color:#FF928E"/>
					<stop  offset="1" style="stop-color:#FE7062"/>
				</linearGradient>
				<path class="st31" d="M2172.3,1669.1L2233,1800c-9.8,79-52.3,113.2-98,126.3c-2.9-36-12-65.1-20.4-85.2
					C2173.1,1780.6,2172.3,1669.1,2172.3,1669.1z"/>
				
					<linearGradient id="SVGID_22_" gradientUnits="userSpaceOnUse" x1="-4275.9355" y1="1890.4218" x2="-4121.5239" y2="1890.4218" gradientTransform="matrix(-1 0 0 1 -2140.937 0)">
					<stop  offset="0" style="stop-color:#FEBBBA"/>
					<stop  offset="1" style="stop-color:#FF928E"/>
				</linearGradient>
				<path class="st32" d="M2114.6,1841c8.4,20.1,17.6,49.2,20.4,85.2c-122.1,47.4-154.4-44.5-154.4-44.5l22.6-4
					C2054.1,1883.1,2089.7,1866.7,2114.6,1841z"/>
			</g>
			
				<linearGradient id="SVGID_23_" gradientUnits="userSpaceOnUse" x1="-4426.0278" y1="1477.7775" x2="-4427.7144" y2="1766.1301" gradientTransform="matrix(-1 0 0 1 -2140.937 0)">
				<stop  offset="0" style="stop-color:#FEBBBA"/>
				<stop  offset="1" style="stop-color:#FF928E"/>
			</linearGradient>
			<path class="st33" d="M2228.3,1507.5l29.3,107.8c3.3,12.1,16.4,18.6,28.1,14c12.6-5,28.5-11.9,42.3-19.3
				c14.7-7.9,19.3-26.8,10-40.6l-61-90.9L2228.3,1507.5z"/>
		</g>
		<path class="st8" d="M1924.6,1809.6l751.8,273.6c31.5,11.5,46.6,47.4,32.7,77.9l-2.3,5c-12.3,27-44.2,38.9-71.2,26.4l-730-337.7
			L1924.6,1809.6z"/>
		<ellipse class="st34" cx="1579.1" cy="1645" rx="371.1" ry="364.4"/>
		<path class="st8" d="M1166.1,1645c0,223.9,184.9,405.5,412.9,405.5c228.1,0,412.9-181.5,412.9-405.5
			c0-223.9-184.9-405.5-412.9-405.5C1351,1239.5,1166.1,1421,1166.1,1645z M1226.8,1645c0-191,157.7-345.9,352.3-345.9
			c194.6,0,352.3,154.9,352.3,345.9c0,191.1-157.7,345.9-352.3,345.9C1384.5,1990.9,1226.8,1836,1226.8,1645z"/>
		<path class="st4" d="M1960.3,1695.2c-1.5-0.2-2.6-1.6-2.4-3.1c1.2-9.5,2.1-19.2,2.5-28.6c0.1-1.5,1.1-2.7,2.9-2.6
			c1.5,0.1,2.7,1.4,2.6,2.9c-0.5,9.6-1.3,19.4-2.6,29.1c-0.2,1.4-1.4,2.4-2.8,2.4C1960.5,1695.2,1960.4,1695.2,1960.3,1695.2z
			 M1955.1,1579.6c-4.6-25.7-12-51-21.9-75.1c0,0,0,0,0,0c-58.7-142.3-197.6-234.3-354-234.3c-72.9,0-143.8,20.3-205,58.6
			c-1.3,0.8-3,0.4-3.8-0.9c-0.8-1.3-0.4-3,0.9-3.8c62.1-38.9,134-59.4,208-59.4c158.7,0,299.6,93.3,359.2,237.7l0,0
			c10.1,24.5,17.6,50.2,22.3,76.2c0.3,1.5-0.7,2.9-2.2,3.2c-0.2,0-0.3,0-0.5,0C1956.5,1581.8,1955.3,1580.9,1955.1,1579.6z"/>
		<g>
			
				<linearGradient id="SVGID_24_" gradientUnits="userSpaceOnUse" x1="-4636.0181" y1="2342.8442" x2="-4777.9585" y2="2530.6199" gradientTransform="matrix(-0.9897 -0.1428 -0.1428 0.9897 -2062.186 -1550.3735)">
				<stop  offset="0" style="stop-color:#FEBBBA"/>
				<stop  offset="1" style="stop-color:#FF928E"/>
			</linearGradient>
			<path class="st35" d="M2164.1,1425.6c-0.3,1.9,24.5,123.1,24.5,123.1l68.9-15.6l-6.4-118.4
				C2251.1,1414.7,2168.5,1394.6,2164.1,1425.6z"/>
			<path class="st8" d="M2235.6,1441.1l8.2,62.1c0.1,0.8,0.1,1.6,0,2.4c-0.7,4.9-4.3,21.4-21,16.7c-15.2-4.3-29.1-8-38.7-5.1
				c-4.3,1.3-6.9,5.7-6,10.1c2.3,11,7.8,35.7,15.9,56.5c1.6,4.2,6.3,6.4,10.6,5.2c13.1-3.8,40.4-12.6,60.7-24.9
				c2.8-1.7,4.4-4.7,4.3-7.9c-0.7-15.7-2.5-63.3-1-76.6c1.4-12.5,16.8-20,23.5-22.7c2.2-0.9,3.9-2.6,4.8-4.8
				c3.1-7.8,7.4-25.7-15.2-33c-4.7-1.5-7.2-6.6-5.5-11.3c3.3-9.3,4.8-23.5-12.7-31.4c-17.8-8-31.1,1.5-38.2,9.2
				c-2.9,3.1-7.5,3.6-11.1,1.3c-2-1.3-4.7-1.7-7.9,0.3c-4.3,2.7-10,0.9-12.2-3.7c-4.3-8.7-12.9-18.1-30.3-15.1
				c-30.9,5.3-34.4,39.5-26.2,59.6c8.1,20.1,41.3,12.4,57.9,2.3c12.6-7.7,29.1,0.4,36.2,4.7
				C2233.7,1436.1,2235.2,1438.4,2235.6,1441.1z"/>
			
				<linearGradient id="SVGID_25_" gradientUnits="userSpaceOnUse" x1="-4843.9053" y1="2491.5479" x2="-4730.0576" y2="2374.7432" gradientTransform="matrix(-0.9897 -0.1428 -0.1428 0.9897 -2062.186 -1550.3735)">
				<stop  offset="0" style="stop-color:#FEBBBA"/>
				<stop  offset="1" style="stop-color:#FF928E"/>
			</linearGradient>
			<path class="st36" d="M2271.4,1502.1c0,0-12.7-35.6,0.3-44.3c13-8.7,32.4-4.2,28.1,21.6
				C2294.5,1511.5,2271.4,1502.1,2271.4,1502.1z"/>
		</g>
		
			<linearGradient id="SVGID_26_" gradientUnits="userSpaceOnUse" x1="-4566.061" y1="1961.4364" x2="-4762.1289" y2="2135.0591" gradientTransform="matrix(-1 0 0 1 -2140.937 0)">
			<stop  offset="0" style="stop-color:#FEBBBA"/>
			<stop  offset="1" style="stop-color:#FF928E"/>
		</linearGradient>
		<path class="st37" d="M2540.1,2009.3l-71.1-5.8l-30.8,28.4c0,0,7.3,10.1,30,4.3s53.9-7.2,53.9-7.2s31.4,14.2,31.8-12.3
			L2540.1,2009.3z"/>
		
			<linearGradient id="SVGID_27_" gradientUnits="userSpaceOnUse" x1="-4137.9287" y1="1872.2871" x2="-4082.6326" y2="1872.2871" gradientTransform="matrix(-1 0 0 1 -2140.937 0)">
			<stop  offset="0" style="stop-color:#FEBBBA"/>
			<stop  offset="1" style="stop-color:#FF928E"/>
		</linearGradient>
		<path class="st38" d="M1989.6,1898.6c-6.1,4.8-27.2-5.2-40.1-12.2c-6.3-3.4-9.3-10.7-7.2-17.5c3.1-9.8,8.3-22.4,14.6-24
			C1967.6,1842.3,2015,1878.8,1989.6,1898.6z"/>
		<path class="st4" d="M2661.5,2182c0.3,0,0.6,0,0.9-0.2c29.4-10.2,36.2-27.5,36.8-40.3c0.8-18.7-10.9-36-29.2-43.1l-90.3-35.2
			c-1.4-0.6-3,0.1-3.6,1.6c-0.6,1.4,0.1,3,1.6,3.6l90.3,35.2c16,6.3,26.3,21.4,25.6,37.7c-0.7,16.1-11.8,27.9-33,35.3
			c-1.4,0.5-2.2,2.1-1.7,3.5C2659.3,2181.3,2660.4,2182,2661.5,2182z"/>
		<path class="st4" d="M2551,2057.8c1.1,0,2.2-0.7,2.6-1.8c0.6-1.4-0.1-3-1.6-3.6l-11.7-4.6c-1.4-0.6-3,0.2-3.6,1.6
			c-0.6,1.4,0.1,3,1.6,3.6l11.7,4.6C2550.3,2057.8,2550.6,2057.8,2551,2057.8z"/>
	</g>
	<path class="st39" d="M1003.6,1990.9H175c-5.8,0-10.5-4.7-10.5-10.5v-49.8c0-5.8,4.7-10.5,10.5-10.5h828.6
		c5.8,0,10.5,4.7,10.5,10.5v49.8C1014.1,1986.2,1009.4,1990.9,1003.6,1990.9z"/>
	<path class="st39" d="M998.4,2098.8H169.8c-5.8,0-10.5-4.7-10.5-10.5v-49.8c0-5.8,4.7-10.5,10.5-10.5h828.6
		c5.8,0,10.5,4.7,10.5,10.5v49.8C1008.9,2094.1,1004.2,2098.8,998.4,2098.8z"/>
</g>
</svg>
