<!-- Generator: Adobe Illustrator 25.2.0, SVG Export Plug-In  -->
<svg version="1.1" xmlns="http://www.w3.org/2000/svg" xmlns:xlink="http://www.w3.org/1999/xlink" x="0px" y="0px" width="255.4px"
	 height="308.8px" viewBox="0 0 255.4 308.8" style="overflow:visible;enable-background:new 0 0 255.4 308.8;"
	 xml:space="preserve">
<style type="text/css">
	.st0{fill:#5793CE;}
	.st1{fill:#396CAA;}
	.st2{fill:#D4ECFF;}
	.st3{opacity:0.5;fill:#C4D9E8;}
	.st4{fill:#173D7A;}
	.st5{fill:#274F89;}
	.st6{fill:#FFFFFF;}
</style>
<defs>
</defs>
<g>
	<g>
		<g>
			<path class="st0" d="M194.2,117.8c-0.1,0-0.1,0-0.2,0c-0.5-0.1-0.9-0.7-0.8-1.2l9.8-42.3c0.1-0.5,0.7-0.9,1.2-0.8
				c0.5,0.1,0.9,0.7,0.8,1.2l-9.8,42.3C195,117.4,194.6,117.8,194.2,117.8z"/>
			<path class="st0" d="M181.2,114.8c-0.1,0-0.1,0-0.2,0c-0.5-0.1-0.9-0.7-0.8-1.2l9.8-42.3c0.1-0.5,0.7-0.9,1.2-0.8
				c0.5,0.1,0.9,0.7,0.8,1.2l-9.8,42.3C182.1,114.5,181.6,114.8,181.2,114.8z"/>
			<path class="st0" d="M168.2,111.8c-0.1,0-0.1,0-0.2,0c-0.5-0.1-0.9-0.7-0.8-1.2l9.8-42.3c0.1-0.5,0.7-0.9,1.2-0.8
				c0.5,0.1,0.9,0.7,0.8,1.2l-9.8,42.3C169.1,111.5,168.7,111.8,168.2,111.8z"/>
		</g>
		<g>
			<g>
				<g>
					<g>
						
							<rect x="171.7" y="78.8" transform="matrix(0.9736 0.2282 -0.2282 0.9736 23.9041 -37.5542)" class="st0" width="5.4" height="11.6"/>
						<path class="st0" d="M174.6,91.7c-1.2,0.3-2.8,0-3.7-0.9c-0.9-0.8-0.7-1.8,0.5-2.1s2.8,0,3.7,0.9
							C176,90.4,175.8,91.4,174.6,91.7z"/>
					</g>
					<g>
						
							<rect x="172.9" y="63" transform="matrix(0.9736 0.2282 -0.2282 0.9736 21.1305 -38.5541)" class="st0" width="8.7" height="18.1"/>
						<path class="st1" d="M172.6,80.2l-0.9,3.8c1.4,1.1,3.5,1.6,5.2,1.2l0.9-3.8C176.5,80.4,174.3,79.9,172.6,80.2z"/>
						<path class="st0" d="M177.8,83.4c-1.9,0.6-4.6-0.1-6-1.4c-1.4-1.3-1.1-2.9,0.8-3.5c1.9-0.6,4.6,0.1,6,1.4
							C180,81.2,179.7,82.8,177.8,83.4z"/>
					</g>
				</g>
			</g>
			<path class="st2" d="M172.5,89c-0.1,0.6-0.6,0.7-1,0.3c-0.4-0.4-0.6-1.2-0.5-1.7c0.1-0.6,0.6-0.7,1-0.3
				C172.4,87.7,172.7,88.5,172.5,89z"/>
		</g>
		<g>
			<g>
				<g>
					<g>
						
							<rect x="183.7" y="86" transform="matrix(0.9736 0.2282 -0.2282 0.9736 25.8547 -40.1084)" class="st0" width="5.4" height="11.6"/>
						<path class="st0" d="M186.6,98.9c-1.2,0.3-2.8,0-3.7-0.9c-0.9-0.8-0.7-1.8,0.5-2.1c1.2-0.3,2.8,0,3.7,0.9
							C188,97.6,187.8,98.5,186.6,98.9z"/>
					</g>
					<g>
						
							<rect x="185" y="70.2" transform="matrix(0.9736 0.2282 -0.2282 0.9736 23.0798 -41.1065)" class="st0" width="8.7" height="18.1"/>
						<path class="st1" d="M184.6,87.4l-0.9,3.8c1.4,1.1,3.5,1.6,5.2,1.2l0.9-3.8C188.5,87.5,186.3,87,184.6,87.4z"/>
						<path class="st0" d="M189.8,90.5c-1.9,0.6-4.6-0.1-6-1.4c-1.4-1.3-1.1-2.9,0.8-3.5c1.9-0.6,4.6,0.1,6,1.4
							C192,88.4,191.7,89.9,189.8,90.5z"/>
					</g>
				</g>
			</g>
			<path class="st2" d="M184.5,96.2c-0.1,0.6-0.6,0.7-1,0.3c-0.4-0.4-0.6-1.2-0.5-1.7c0.1-0.6,0.6-0.7,1-0.3
				C184.4,94.9,184.7,95.6,184.5,96.2z"/>
		</g>
		<g>
			<g>
				<g>
					<g>
						
							<rect x="195.8" y="93.1" transform="matrix(0.9736 0.2282 -0.2282 0.9736 27.7962 -42.6946)" class="st0" width="5.4" height="11.6"/>
						<path class="st0" d="M198.8,106c-1.2,0.3-2.8,0-3.7-0.9c-0.9-0.8-0.7-1.8,0.5-2.1c1.2-0.3,2.8,0,3.7,0.9
							C200.2,104.7,200,105.6,198.8,106z"/>
					</g>
					<g>
						
							<rect x="197.1" y="77.3" transform="matrix(0.9736 0.2282 -0.2282 0.9736 25.0213 -43.6927)" class="st0" width="8.7" height="18.1"/>
						<path class="st1" d="M196.8,94.5l-0.9,3.8c1.4,1.1,3.5,1.6,5.2,1.2l0.9-3.8C200.6,94.6,198.5,94.1,196.8,94.5z"/>
						<path class="st0" d="M202,97.6c-1.9,0.6-4.6-0.1-6-1.4c-1.4-1.3-1.1-2.9,0.8-3.5c1.9-0.6,4.6,0.1,6,1.4
							C204.2,95.5,203.8,97,202,97.6z"/>
					</g>
				</g>
			</g>
			<path class="st2" d="M196.7,103.3c-0.1,0.6-0.6,0.7-1,0.3c-0.4-0.4-0.6-1.2-0.5-1.7c0.1-0.6,0.6-0.7,1-0.3
				C196.6,102,196.8,102.8,196.7,103.3z"/>
		</g>
	</g>
	<g>
		<g>
			<path class="st3" d="M118.4,307.5L2.2,240.5c-3.3-1.9-2.9-5.2,0.9-7.4l79.1-45.6c3.8-2.2,9.5-2.4,12.8-0.5L211.2,254
				c3.3,1.9,2.9,5.2-0.9,7.4L131.2,307C127.4,309.2,121.6,309.4,118.4,307.5z"/>
			<path class="st4" d="M238.4,135.2L122.2,68.1c-1.3-0.8-2.7-0.9-3.9-0.5l0,0l-0.2,0.1c0,0,0,0-0.1,0l-4.2,1.6l3.8,1.8
				c0,0.1,0,0.1-0.1,0.2l-18.9,86.1c-0.9,4.3,0.9,9.3,4.2,11.2l113.3,65.4l-0.4,4.8l4.6-1.8c1.5-0.7,2.8-2.4,3.3-4.7l18.9-86.1
				C243.6,142.1,241.7,137.1,238.4,135.2z"/>
			<path class="st1" d="M238.4,135.2L122.2,68.1c-1.3-0.8-2.7-0.9-3.9-0.5l0,0l-0.2,0.1c0,0,0,0-0.1,0l-4.2,1.6l3.8,1.8
				c0,0.1,0,0.1-0.1,0.2l-12.5,56.8l56.8,44.3l80.1-32.6C241.3,137.8,240,136.1,238.4,135.2z"/>
			<path class="st5" d="M234,148.4l8.8-3.8c0.2-3.4-1.3-7-3.6-8.9l-14,5.9L234,148.4z"/>
			<path class="st2" d="M211.8,238.5L95.7,171.5c-3.3-1.9-5.2-6.9-4.2-11.2l18.9-86.1c0.9-4.3,4.4-6.3,7.7-4.4l116.1,67.1
				c3.3,1.9,5.2,6.9,4.2,11.2l-18.9,86.1C218.5,238.5,215.1,240.4,211.8,238.5z"/>
			<path class="st6" d="M209.3,232.1l-109.2-63c-3-1.7-4.7-6.3-3.9-10.3L113.5,80c0.9-3.9,4-5.7,7-4l109.2,63
				c3,1.7,4.7,6.3,3.9,10.3l-17.3,78.8C215.4,232.1,212.3,233.8,209.3,232.1z"/>
			<path class="st6" d="M209.3,232.1l-109.2-63c-3-1.7-4.7-6.3-3.9-10.3L113.5,80c0.9-3.9,4-5.7,7-4l109.2,63
				c3,1.7,4.7,6.3,3.9,10.3l-17.3,78.8C215.4,232.1,212.3,233.8,209.3,232.1z"/>
			<path class="st4" d="M213.4,241.4l-15.9-2.1L95,180.2c-3.3-1.9-9-1.7-12.8,0.5L9.6,222.6L0,221.3v5.4l0,0
				c-0.1,1.3,0.7,2.5,2.2,3.4l116.1,67.1c3.3,1.9,9,1.7,12.8-0.5l79.1-45.6c2.1-1.2,3.2-2.8,3.1-4.3h0V241.4z"/>
			<path class="st1" d="M136.4,204l-7.3-4.2h-80L9.6,222.6L0,221.3v5.4l0,0c-0.1,1.3,0.7,2.5,2.2,3.4l116.1,67.1
				c1.7,1,4.2,1.4,6.6,1.2L136.4,204z"/>
			<path class="st0" d="M4.3,221.9L0,221.3v5.4l0,0c-0.1,1.3,0.7,2.5,2.2,3.4l2,1.2V221.9z"/>
			<path class="st5" d="M119.5,297.8c3.1,1.2,7.6,0.9,10.9-0.7v-12.1h-10.9V297.8z"/>
			<path class="st2" d="M118.4,291.8L2.2,224.7c-3.3-1.9-2.9-5.2,0.9-7.4l79.1-45.6c3.8-2.2,9.5-2.4,12.8-0.5l116.1,67.1
				c3.3,1.9,2.9,5.2-0.9,7.4l-79.1,45.6C127.4,293.4,121.6,293.7,118.4,291.8z"/>
			<path class="st6" d="M210.3,243.6l-79.1,45.6c-3.8,2.2-9.5,2.4-12.8,0.5L2.2,222.7c-1.1-0.6-1.7-1.4-2-2.2
				c-0.5,1.6,0.1,3.1,2,4.2l116.1,67.1c3.3,1.9,9,1.7,12.8-0.5l79.1-45.6c2.5-1.5,3.6-3.5,3-5.2
				C212.9,241.6,211.9,242.7,210.3,243.6z"/>
			<g>
				<path class="st4" d="M51.6,202.5l-5.3-3c-0.4-0.2-0.4-0.7,0.1-1l6.2-3.6c0.5-0.3,1.2-0.3,1.6-0.1l5.3,3c0.4,0.2,0.4,0.7-0.1,1
					l-6.2,3.6C52.8,202.7,52,202.8,51.6,202.5z"/>
				<path class="st4" d="M59.7,207.2l-5.3-3c-0.4-0.2-0.4-0.7,0.1-1l6.2-3.6c0.5-0.3,1.2-0.3,1.6-0.1l5.3,3c0.4,0.2,0.4,0.7-0.1,1
					l-6.2,3.6C60.9,207.4,60.2,207.4,59.7,207.2z"/>
				<path class="st4" d="M67.8,211.9l-5.3-3c-0.4-0.2-0.4-0.7,0.1-1l6.2-3.6c0.5-0.3,1.2-0.3,1.6-0.1l5.3,3c0.4,0.2,0.4,0.7-0.1,1
					l-6.2,3.6C69,212.1,68.3,212.1,67.8,211.9z"/>
				<path class="st4" d="M79.1,208l-5.3-3c-0.4-0.2-0.4-0.7,0.1-1l5.2-3c0.5-0.3,1.2-0.3,1.6-0.1l5.3,3c0.4,0.2,0.4,0.7-0.1,1
					l-5.2,3C80.2,208.2,79.5,208.3,79.1,208z"/>
				<path class="st4" d="M87.2,212.7l-5.3-3c-0.4-0.2-0.4-0.7,0.1-1l5.2-3c0.5-0.3,1.2-0.3,1.6-0.1l5.3,3c0.4,0.2,0.4,0.7-0.1,1
					l-5.2,3C88.3,212.9,87.6,212.9,87.2,212.7z"/>
				<path class="st4" d="M95.3,217.4l-5.3-3c-0.4-0.2-0.4-0.7,0.1-1l5.2-3c0.5-0.3,1.2-0.3,1.6-0.1l5.3,3c0.4,0.2,0.4,0.7-0.1,1
					l-5.2,3C96.5,217.6,95.7,217.6,95.3,217.4z"/>
				<path class="st4" d="M103.4,222.1l-5.3-3c-0.4-0.2-0.4-0.7,0.1-1l5.2-3c0.5-0.3,1.2-0.3,1.6-0.1l5.3,3c0.4,0.2,0.4,0.7-0.1,1
					l-5.2,3C104.6,222.3,103.8,222.3,103.4,222.1z"/>
				<path class="st4" d="M111.5,226.8l-5.3-3c-0.4-0.2-0.4-0.7,0.1-1l5.2-3c0.5-0.3,1.2-0.3,1.6-0.1l5.3,3c0.4,0.2,0.4,0.7-0.1,1
					l-5.2,3C112.7,227,112,227,111.5,226.8z"/>
				<path class="st4" d="M119.6,231.4l-5.3-3c-0.4-0.2-0.4-0.7,0.1-1l5.2-3c0.5-0.3,1.2-0.3,1.6-0.1l5.3,3c0.4,0.2,0.4,0.7-0.1,1
					l-5.2,3C120.8,231.7,120.1,231.7,119.6,231.4z"/>
				<path class="st4" d="M127.8,236.1l-5.3-3c-0.4-0.2-0.4-0.7,0.1-1l5.2-3c0.5-0.3,1.2-0.3,1.6-0.1l5.3,3c0.4,0.2,0.4,0.7-0.1,1
					l-5.2,3C128.9,236.3,128.2,236.4,127.8,236.1z"/>
				<path class="st4" d="M135.9,240.8l-5.3-3c-0.4-0.2-0.4-0.7,0.1-1l5.2-3c0.5-0.3,1.2-0.3,1.6-0.1l5.3,3c0.4,0.2,0.4,0.7-0.1,1
					l-5.2,3C137,241,136.3,241.1,135.9,240.8z"/>
				<path class="st4" d="M144,245.5l-5.3-3c-0.4-0.2-0.4-0.7,0.1-1l5.2-3c0.5-0.3,1.2-0.3,1.6-0.1l5.3,3c0.4,0.2,0.4,0.7-0.1,1
					l-5.2,3C145.2,245.7,144.4,245.7,144,245.5z"/>
				<path class="st4" d="M152.1,250.2l-5.3-3c-0.4-0.2-0.4-0.7,0.1-1l5.2-3c0.5-0.3,1.2-0.3,1.6-0.1l5.3,3c0.4,0.2,0.4,0.7-0.1,1
					l-5.2,3C153.3,250.4,152.5,250.4,152.1,250.2z"/>
				<path class="st1" d="M91,205.8l-5.3-3c-0.4-0.2-0.4-0.7,0.1-1l5.2-3c0.5-0.3,1.2-0.3,1.6-0.1l5.3,3c0.4,0.2,0.4,0.7-0.1,1
					l-5.2,3C92.2,206,91.4,206,91,205.8z"/>
				<path class="st1" d="M82.8,201l-5.3-3c-0.4-0.2-0.4-0.7,0.1-1l5.2-3c0.5-0.3,1.2-0.3,1.6-0.1l5.3,3c0.4,0.2,0.4,0.7-0.1,1
					l-5.2,3C83.9,201.3,83.2,201.3,82.8,201z"/>
				<path class="st4" d="M74.5,196.3l-11.3-6.5c-0.4-0.2-0.4-0.7,0.1-1l5.2-3c0.5-0.3,1.2-0.3,1.6-0.1l11.3,6.5
					c0.4,0.2,0.4,0.7-0.1,1l-5.2,3C75.7,196.5,75,196.5,74.5,196.3z"/>
				<path class="st4" d="M80.3,190.5l-9.2-5.3c-0.4-0.2-0.4-0.7,0.1-1l5.2-3c0.5-0.3,1.2-0.3,1.6-0.1l9.2,5.3c0.4,0.2,0.4,0.7-0.1,1
					l-5.2,3C81.5,190.7,80.7,190.7,80.3,190.5z"/>
				<path class="st1" d="M99.1,210.5l-5.3-3c-0.4-0.2-0.4-0.7,0.1-1l5.2-3c0.5-0.3,1.2-0.3,1.6-0.1l5.3,3c0.4,0.2,0.4,0.7-0.1,1
					l-5.2,3C100.3,210.7,99.6,210.7,99.1,210.5z"/>
				<path class="st4" d="M107.3,215.2l-5.3-3c-0.4-0.2-0.4-0.7,0.1-1l5.2-3c0.5-0.3,1.2-0.3,1.6-0.1l5.3,3c0.4,0.2,0.4,0.7-0.1,1
					l-5.2,3C108.4,215.4,107.7,215.4,107.3,215.2z"/>
				<path class="st4" d="M115.4,219.9l-5.3-3c-0.4-0.2-0.4-0.7,0.1-1l5.2-3c0.5-0.3,1.2-0.3,1.6-0.1l5.3,3c0.4,0.2,0.4,0.7-0.1,1
					l-5.2,3C116.5,220.1,115.8,220.1,115.4,219.9z"/>
				<path class="st4" d="M123.5,224.5l-5.3-3c-0.4-0.2-0.4-0.7,0.1-1l5.2-3c0.5-0.3,1.2-0.3,1.6-0.1l5.3,3c0.4,0.2,0.4,0.7-0.1,1
					l-5.2,3C124.6,224.8,123.9,224.8,123.5,224.5z"/>
				<path class="st4" d="M131.6,229.2l-5.3-3c-0.4-0.2-0.4-0.7,0.1-1l5.2-3c0.5-0.3,1.2-0.3,1.6-0.1l5.3,3c0.4,0.2,0.4,0.7-0.1,1
					l-5.2,3C132.8,229.4,132,229.5,131.6,229.2z"/>
				<path class="st4" d="M139.7,233.9l-5.3-3c-0.4-0.2-0.4-0.7,0.1-1l5.2-3c0.5-0.3,1.2-0.3,1.6-0.1l5.3,3c0.4,0.2,0.4,0.7-0.1,1
					l-5.2,3C140.9,234.1,140.1,234.2,139.7,233.9z"/>
				<path class="st4" d="M147.8,238.6l-5.3-3c-0.4-0.2-0.4-0.7,0.1-1l5.2-3c0.5-0.3,1.2-0.3,1.6-0.1l5.3,3c0.4,0.2,0.4,0.7-0.1,1
					l-5.2,3C149,238.8,148.3,238.8,147.8,238.6z"/>
				<path class="st4" d="M155.9,243.3l-5.3-3c-0.4-0.2-0.4-0.7,0.1-1l5.2-3c0.5-0.3,1.2-0.3,1.6-0.1l5.3,3c0.4,0.2,0.4,0.7-0.1,1
					l-5.2,3C157.1,243.5,156.4,243.5,155.9,243.3z"/>
				<path class="st4" d="M164.1,248l-5.3-3c-0.4-0.2-0.4-0.7,0.1-1l5.2-3c0.5-0.3,1.2-0.3,1.6-0.1l5.3,3c0.4,0.2,0.4,0.7-0.1,1
					l-5.2,3C165.2,248.2,164.5,248.2,164.1,248z"/>
				<path class="st4" d="M178.5,256.3l-11.5-6.6c-0.4-0.2-0.4-0.7,0.1-1l5.2-3c0.5-0.3,1.2-0.3,1.6-0.1l11.5,6.6
					c0.4,0.2,0.4,0.7-0.1,1l-5.2,3C179.6,256.5,178.9,256.5,178.5,256.3z"/>
				<path class="st4" d="M194.3,247.2l-9.7-5.6c-0.4-0.2-0.4-0.7,0.1-1l5.2-3c0.5-0.3,1.2-0.3,1.6-0.1l9.7,5.6
					c0.4,0.2,0.4,0.7-0.1,1l-5.2,3C195.4,247.4,194.7,247.4,194.3,247.2z"/>
				<path class="st4" d="M113.4,209.6l-5.3-3c-0.4-0.2-0.4-0.7,0.1-1l5.2-3c0.5-0.3,1.2-0.3,1.6-0.1l5.3,3c0.4,0.2,0.4,0.7-0.1,1
					l-5.2,3C114.5,209.8,113.8,209.8,113.4,209.6z"/>
				<path class="st4" d="M105,204.8l-5.3-3c-0.4-0.2-0.4-0.7,0.1-1l5.2-3c0.5-0.3,1.2-0.3,1.6-0.1l5.3,3c0.4,0.2,0.4,0.7-0.1,1
					l-5.2,3C106.2,205,105.5,205,105,204.8z"/>
				<path class="st1" d="M96.7,200l-5.3-3c-0.4-0.2-0.4-0.7,0.1-1l5.2-3c0.5-0.3,1.2-0.3,1.6-0.1l5.3,3c0.4,0.2,0.4,0.7-0.1,1
					l-5.2,3C97.9,200.2,97.1,200.2,96.7,200z"/>
				<path class="st4" d="M88.4,195.2l-5.3-3c-0.4-0.2-0.4-0.7,0.1-1l5.2-3c0.5-0.3,1.2-0.3,1.6-0.1l5.3,3c0.4,0.2,0.4,0.7-0.1,1
					l-5.2,3C89.6,195.4,88.8,195.4,88.4,195.2z"/>
				<path class="st4" d="M121.5,214.3l-5.3-3c-0.4-0.2-0.4-0.7,0.1-1l5.2-3c0.5-0.3,1.2-0.3,1.6-0.1l5.3,3c0.4,0.2,0.4,0.7-0.1,1
					l-5.2,3C122.6,214.5,121.9,214.5,121.5,214.3z"/>
				<path class="st4" d="M129.6,218.9l-5.3-3c-0.4-0.2-0.4-0.7,0.1-1l5.2-3c0.5-0.3,1.2-0.3,1.6-0.1l5.3,3c0.4,0.2,0.4,0.7-0.1,1
					l-5.2,3C130.7,219.1,130,219.2,129.6,218.9z"/>
				<path class="st4" d="M137.7,223.6l-5.3-3c-0.4-0.2-0.4-0.7,0.1-1l5.2-3c0.5-0.3,1.2-0.3,1.6-0.1l5.3,3c0.4,0.2,0.4,0.7-0.1,1
					l-5.2,3C138.9,223.8,138.1,223.9,137.7,223.6z"/>
				<path class="st4" d="M145.8,228.3l-5.3-3c-0.4-0.2-0.4-0.7,0.1-1l5.2-3c0.5-0.3,1.2-0.3,1.6-0.1l5.3,3c0.4,0.2,0.4,0.7-0.1,1
					l-5.2,3C147,228.5,146.2,228.6,145.8,228.3z"/>
				<path class="st4" d="M153.9,233l-5.3-3c-0.4-0.2-0.4-0.7,0.1-1l5.2-3c0.5-0.3,1.2-0.3,1.6-0.1l5.3,3c0.4,0.2,0.4,0.7-0.1,1
					l-5.2,3C155.1,233.2,154.4,233.2,153.9,233z"/>
				<path class="st4" d="M162,237.7l-5.3-3c-0.4-0.2-0.4-0.7,0.1-1l5.2-3c0.5-0.3,1.2-0.3,1.6-0.1l5.3,3c0.4,0.2,0.4,0.7-0.1,1
					l-5.2,3C163.2,237.9,162.5,237.9,162,237.7z"/>
				<path class="st4" d="M170.2,242.4l-5.3-3c-0.4-0.2-0.4-0.7,0.1-1l5.2-3c0.5-0.3,1.2-0.3,1.6-0.1l5.3,3c0.4,0.2,0.4,0.7-0.1,1
					l-5.2,3C171.3,242.6,170.6,242.6,170.2,242.4z"/>
				<path class="st4" d="M178.3,247l-5.3-3c-0.4-0.2-0.4-0.7,0.1-1l5.2-3c0.5-0.3,1.2-0.3,1.6-0.1l5.3,3c0.4,0.2,0.4,0.7-0.1,1
					l-5.2,3C179.4,247.3,178.7,247.3,178.3,247z"/>
				<path class="st4" d="M186.4,251.7l-5.3-3c-0.4-0.2-0.4-0.7,0.1-1l5.2-3c0.5-0.3,1.2-0.3,1.6-0.1l5.3,3c0.4,0.2,0.4,0.7-0.1,1
					l-5.2,3C187.5,251.9,186.8,252,186.4,251.7z"/>
				<path class="st4" d="M109.1,198l-5.3-3c-0.4-0.2-0.4-0.7,0.1-1l5.2-3c0.5-0.3,1.2-0.3,1.6-0.1l5.3,3c0.4,0.2,0.4,0.7-0.1,1
					l-5.2,3C110.2,198.2,109.5,198.2,109.1,198z"/>
				<path class="st4" d="M101,193.3l-5.3-3c-0.4-0.2-0.4-0.7,0.1-1l5.2-3c0.5-0.3,1.2-0.3,1.6-0.1l5.3,3c0.4,0.2,0.4,0.7-0.1,1
					l-5.2,3C102.2,193.5,101.4,193.6,101,193.3z"/>
				<path class="st4" d="M92.9,188.7l-5.3-3c-0.4-0.2-0.4-0.7,0.1-1l5.2-3c0.5-0.3,1.2-0.3,1.6-0.1l5.3,3c0.4,0.2,0.4,0.7-0.1,1
					l-5.2,3C94.1,188.9,93.4,188.9,92.9,188.7z"/>
				<path class="st4" d="M84.9,184l-5.3-3c-0.4-0.2-0.4-0.7,0.1-1l5.2-3c0.5-0.3,1.2-0.3,1.6-0.1l5.3,3c0.4,0.2,0.4,0.7-0.1,1
					l-5.2,3C86,184.2,85.3,184.2,84.9,184z"/>
				<path class="st4" d="M93.2,179.2l-5.3-3c-0.4-0.2-0.4-0.7,0.1-1l1.7-1c0.5-0.3,1.2-0.3,1.6-0.1l5.3,3c0.4,0.2,0.4,0.7-0.1,1
					l-1.7,1C94.3,179.4,93.6,179.4,93.2,179.2z"/>
				<path class="st4" d="M103.7,185.3l-5.3-3c-0.4-0.2-0.4-0.7,0.1-1l1.7-1c0.5-0.3,1.2-0.3,1.6-0.1l5.3,3c0.4,0.2,0.4,0.7-0.1,1
					l-1.7,1C104.9,185.5,104.1,185.5,103.7,185.3z"/>
				<path class="st4" d="M111.7,189.9l-5.3-3c-0.4-0.2-0.4-0.7,0.1-1l1.7-1c0.5-0.3,1.2-0.3,1.6-0.1l5.3,3c0.4,0.2,0.4,0.7-0.1,1
					l-1.7,1C112.9,190.1,112.2,190.2,111.7,189.9z"/>
				<path class="st4" d="M119.8,194.6l-5.3-3c-0.4-0.2-0.4-0.7,0.1-1l1.7-1c0.5-0.3,1.2-0.3,1.6-0.1l5.3,3c0.4,0.2,0.4,0.7-0.1,1
					l-1.7,1C120.9,194.8,120.2,194.8,119.8,194.6z"/>
				<path class="st4" d="M127.8,199.2l-5.3-3c-0.4-0.2-0.4-0.7,0.1-1l1.7-1c0.5-0.3,1.2-0.3,1.6-0.1l5.3,3c0.4,0.2,0.4,0.7-0.1,1
					l-1.7,1C129,199.4,128.2,199.5,127.8,199.2z"/>
				<path class="st4" d="M172.7,225.1l-5.3-3c-0.4-0.2-0.4-0.7,0.1-1l1.7-1c0.5-0.3,1.2-0.3,1.6-0.1l5.3,3c0.4,0.2,0.4,0.7-0.1,1
					l-1.7,1C173.9,225.3,173.1,225.4,172.7,225.1z"/>
				<path class="st4" d="M180.8,229.8l-5.3-3c-0.4-0.2-0.4-0.7,0.1-1l1.7-1c0.5-0.3,1.2-0.3,1.6-0.1l5.3,3c0.4,0.2,0.4,0.7-0.1,1
					l-1.7,1C181.9,230,181.2,230,180.8,229.8z"/>
				<path class="st4" d="M188.8,234.4l-5.3-3c-0.4-0.2-0.4-0.7,0.1-1l1.7-1c0.5-0.3,1.2-0.3,1.6-0.1l5.3,3c0.4,0.2,0.4,0.7-0.1,1
					l-1.7,1C190,234.6,189.2,234.7,188.8,234.4z"/>
				<path class="st4" d="M196.8,239.1l-5.3-3c-0.4-0.2-0.4-0.7,0.1-1l1.7-1c0.5-0.3,1.2-0.3,1.6-0.1l5.3,3c0.4,0.2,0.4,0.7-0.1,1
					l-1.7,1C198,239.3,197.3,239.3,196.8,239.1z"/>
				<path class="st4" d="M117.2,202.7l-5.3-3c-0.4-0.2-0.4-0.7,0.1-1l5.2-3c0.5-0.3,1.2-0.3,1.6-0.1l5.3,3c0.4,0.2,0.4,0.7-0.1,1
					l-5.2,3C118.4,202.9,117.6,202.9,117.2,202.7z"/>
				<path class="st4" d="M125.3,207.3l-5.3-3c-0.4-0.2-0.4-0.7,0.1-1l5.2-3c0.5-0.3,1.2-0.3,1.6-0.1l5.3,3c0.4,0.2,0.4,0.7-0.1,1
					l-5.2,3C126.5,207.6,125.7,207.6,125.3,207.3z"/>
				<path class="st4" d="M133.4,212l-5.3-3c-0.4-0.2-0.4-0.7,0.1-1l5.2-3c0.5-0.3,1.2-0.3,1.6-0.1l5.3,3c0.4,0.2,0.4,0.7-0.1,1
					l-5.2,3C134.6,212.2,133.8,212.3,133.4,212z"/>
				<path class="st4" d="M141.5,216.7l-5.3-3c-0.4-0.2-0.4-0.7,0.1-1l5.2-3c0.5-0.3,1.2-0.3,1.6-0.1l5.3,3c0.4,0.2,0.4,0.7-0.1,1
					l-5.2,3C142.7,216.9,142,217,141.5,216.7z"/>
				<path class="st4" d="M149.7,221.4l-5.3-3c-0.4-0.2-0.4-0.7,0.1-1l5.2-3c0.5-0.3,1.2-0.3,1.6-0.1l5.3,3c0.4,0.2,0.4,0.7-0.1,1
					l-5.2,3C150.8,221.6,150.1,221.6,149.7,221.4z"/>
				<path class="st4" d="M157.8,226.1l-5.3-3c-0.4-0.2-0.4-0.7,0.1-1l5.2-3c0.5-0.3,1.2-0.3,1.6-0.1l5.3,3c0.4,0.2,0.4,0.7-0.1,1
					l-5.2,3C158.9,226.3,158.2,226.3,157.8,226.1z"/>
				<path class="st4" d="M165.9,230.8l-5.3-3c-0.4-0.2-0.4-0.7,0.1-1l5.2-3c0.5-0.3,1.2-0.3,1.6-0.1l5.3,3c0.4,0.2,0.4,0.7-0.1,1
					l-5.2,3C167,231,166.3,231,165.9,230.8z"/>
				<path class="st4" d="M174,235.5l-5.3-3c-0.4-0.2-0.4-0.7,0.1-1l5.2-3c0.5-0.3,1.2-0.3,1.6-0.1l5.3,3c0.4,0.2,0.4,0.7-0.1,1
					l-5.2,3C175.2,235.7,174.4,235.7,174,235.5z"/>
				<path class="st4" d="M182.1,240.1l-5.3-3c-0.4-0.2-0.4-0.7,0.1-1l5.2-3c0.5-0.3,1.2-0.3,1.6-0.1l5.3,3c0.4,0.2,0.4,0.7-0.1,1
					l-5.2,3C183.3,240.4,182.5,240.4,182.1,240.1z"/>
				<path class="st4" d="M70.8,203.2l-15.5-8.9c-0.4-0.2-0.4-0.7,0.1-1l5.2-3c0.5-0.3,1.2-0.3,1.6-0.1l15.5,8.9
					c0.4,0.2,0.4,0.7-0.1,1l-5.2,3C72,203.5,71.2,203.5,70.8,203.2z"/>
				<path class="st4" d="M170.5,260.8l-15.5-8.9c-0.4-0.2-0.4-0.7,0.1-1l5.2-3c0.5-0.3,1.2-0.3,1.6-0.1l15.5,8.9
					c0.4,0.2,0.4,0.7-0.1,1l-5.2,3C171.7,261,170.9,261,170.5,260.8z"/>
				<path class="st4" d="M138,252.4l-5.3-3c-0.4-0.2-0.4-0.7,0.1-1l6.2-3.6c0.5-0.3,1.2-0.3,1.6-0.1l5.3,3c0.4,0.2,0.4,0.7-0.1,1
					l-6.2,3.6C139.2,252.6,138.5,252.7,138,252.4z"/>
				<path class="st4" d="M79.1,218.4l-8.4-4.9c-0.4-0.2-0.4-0.7,0.1-1L77,209c0.5-0.3,1.2-0.3,1.6-0.1l8.4,4.9
					c0.4,0.2,0.4,0.7-0.1,1l-6.2,3.6C80.3,218.6,79.5,218.6,79.1,218.4z"/>
				<path class="st4" d="M130.2,247.9l-8.4-4.9c-0.4-0.2-0.4-0.7,0.1-1l6.2-3.6c0.5-0.3,1.2-0.3,1.6-0.1l8.4,4.9
					c0.4,0.2,0.4,0.7-0.1,1l-6.2,3.6C131.4,248.1,130.6,248.1,130.2,247.9z"/>
				<path class="st4" d="M90.8,225.1l-8.4-4.9c-0.4-0.2-0.4-0.7,0.1-1l6.2-3.6c0.5-0.3,1.2-0.3,1.6-0.1l8.4,4.9
					c0.4,0.2,0.4,0.7-0.1,1l-6.2,3.6C92,225.4,91.2,225.4,90.8,225.1z"/>
				<path class="st4" d="M90.4,215.7l36.5,21.1c0.5,0.3,0.5,0.7,0,0.9l-6.3,3.7c-0.5,0.3-1.2,0.3-1.6,0l-36.5-21.1L90.4,215.7z"/>
				<path class="st4" d="M160.7,260.9l5.9,3.4c0.3,0.2,0.3,0.5-0.1,0.8l-2.5,1.5c-0.4,0.2-1,0.3-1.3,0.1l-5.9-3.4
					c-0.3-0.2-0.3-0.5,0.1-0.8l2.5-1.5C159.8,260.7,160.4,260.7,160.7,260.9z"/>
				<path class="st4" d="M152.5,256.2l5.9,3.4c0.3,0.2,0.3,0.5-0.1,0.8l-2.5,1.5c-0.4,0.2-1,0.3-1.3,0.1l-5.9-3.4
					c-0.3-0.2-0.3-0.5,0.1-0.8l2.5-1.5C151.6,256,152.2,256,152.5,256.2z"/>
				<path class="st4" d="M144.4,251.5l5.9,3.4c0.3,0.2,0.3,0.5-0.1,0.8l-2.5,1.5c-0.4,0.2-1,0.3-1.3,0.1l-5.9-3.4
					c-0.3-0.2-0.3-0.5,0.1-0.8l2.5-1.5C143.5,251.3,144.1,251.3,144.4,251.5z"/>
				<path class="st4" d="M157,253.6l5.9,3.4c0.3,0.2,0.3,0.5-0.1,0.8l-2.5,1.5c-0.4,0.2-1,0.3-1.3,0.1l-5.9-3.4
					c-0.3-0.2-0.3-0.5,0.1-0.8l2.5-1.5C156.1,253.4,156.7,253.4,157,253.6z"/>
			</g>
		</g>
		<g>
			<g>
				<path class="st2" d="M146.3,110l-7.8-4.5c-0.7-0.4-1.1-1.4-0.9-2.3l0,0c0.2-0.9,0.9-1.2,1.7-0.8l7.8,4.5
					c0.7,0.4,1.1,1.4,0.9,2.3l0,0C147.7,110,147,110.4,146.3,110z"/>
				<path class="st2" d="M164.8,120.7l-11.5-6.6c-0.7-0.4-1.1-1.4-0.9-2.3l0,0c0.2-0.9,0.9-1.2,1.7-0.8l11.5,6.6
					c0.7,0.4,1.1,1.4,0.9,2.3l0,0C166.2,120.7,165.5,121.1,164.8,120.7z"/>
				<path class="st2" d="M132.7,146.2l-7.8-4.5c-0.7-0.4-1.1-1.4-0.9-2.3l0,0c0.2-0.9,0.9-1.2,1.7-0.8l7.8,4.5
					c0.7,0.4,1.1,1.4,0.9,2.3l0,0C134.2,146.3,133.5,146.6,132.7,146.2z"/>
				<path class="st2" d="M149.2,155.7l-11.5-6.6c-0.7-0.4-1.1-1.4-0.9-2.3l0,0c0.2-0.9,0.9-1.2,1.7-0.8l11.5,6.6
					c0.7,0.4,1.1,1.4,0.9,2.3l0,0C150.7,155.8,149.9,156.2,149.2,155.7z"/>
				<path class="st2" d="M123.4,104.1l-4.9-2.8c-0.7-0.4-1.1-1.4-0.9-2.3l0,0c0.2-0.9,0.9-1.2,1.7-0.8l4.9,2.8
					c0.7,0.4,1.1,1.4,0.9,2.3l0,0C124.8,104.2,124.1,104.5,123.4,104.1z"/>
				<path class="st2" d="M138.3,120.1l-14.8-8.6c-0.7-0.4-1.1-1.4-0.9-2.3l0,0c0.2-0.9,0.9-1.2,1.7-0.8L139,117
					c0.7,0.4,1.1,1.4,0.9,2.3l0,0C139.8,120.1,139,120.5,138.3,120.1z"/>
				<path class="st2" d="M125.4,127.3l-4.9-2.8c-0.7-0.4-1.1-1.4-0.9-2.3l0,0c0.2-0.9,0.9-1.2,1.7-0.8l4.9,2.8
					c0.7,0.4,1.1,1.4,0.9,2.3l0,0C126.8,127.3,126.1,127.7,125.4,127.3z"/>
				<path class="st2" d="M151.7,171.9l-13-7.5c-0.7-0.4-1.1-1.4-0.9-2.3v0c0.2-0.9,0.9-1.2,1.7-0.8l13,7.5c0.7,0.4,1.1,1.4,0.9,2.3
					l0,0C153.2,171.9,152.4,172.3,151.7,171.9z"/>
				<path class="st2" d="M120.6,139.2l-3.1-1.8c-0.7-0.4-1.1-1.4-0.9-2.3l0,0c0.2-0.9,0.9-1.2,1.7-0.8l3.1,1.8
					c0.7,0.4,1.1,1.4,0.9,2.3l0,0C122.1,139.3,121.3,139.6,120.6,139.2z"/>
				<path class="st2" d="M118.4,152.6l-3.9-2.2c-0.7-0.4-1.1-1.4-0.9-2.3l0,0c0.2-0.9,0.9-1.2,1.7-0.8l3.9,2.2
					c0.7,0.4,1.1,1.4,0.9,2.3l0,0C119.8,152.7,119.1,153,118.4,152.6z"/>
				<path class="st2" d="M133.4,161.3l-10.2-5.9c-0.7-0.4-1.1-1.4-0.9-2.3l0,0c0.2-0.9,0.9-1.2,1.7-0.8l10.2,5.9
					c0.7,0.4,1.1,1.4,0.9,2.3l0,0C134.9,161.4,134.1,161.7,133.4,161.3z"/>
				<path class="st2" d="M120.4,161.1l-7.3-4.2c-0.7-0.4-1.1-1.4-0.9-2.3l0,0c0.2-0.9,0.9-1.2,1.7-0.8l7.3,4.2
					c0.7,0.4,1.1,1.4,0.9,2.3l0,0C121.8,161.2,121.1,161.5,120.4,161.1z"/>
				<path class="st2" d="M162.8,178.3l-4.7-2.7c-0.7-0.4-1.1-1.4-0.9-2.3l0,0c0.2-0.9,0.9-1.2,1.7-0.8l4.7,2.7
					c0.7,0.4,1.1,1.4,0.9,2.3v0C164.3,178.4,163.6,178.7,162.8,178.3z"/>
				<path class="st2" d="M143.4,137.7l-13-7.5c-0.7-0.4-1.1-1.4-0.9-2.3l0,0c0.2-0.9,0.9-1.2,1.7-0.8l13,7.5
					c0.7,0.4,1.1,1.4,0.9,2.3l0,0C144.9,137.8,144.1,138.1,143.4,137.7z"/>
				<path class="st2" d="M144.6,131L122,118c-0.7-0.4-1.1-1.4-0.9-2.3l0,0c0.2-0.9,0.9-1.2,1.7-0.8l22.6,13c0.7,0.4,1.1,1.4,0.9,2.3
					l0,0C146,131.1,145.3,131.4,144.6,131z"/>
				<path class="st2" d="M132,138.4l-13-7.5c-0.7-0.4-1.1-1.4-0.9-2.3l0,0c0.2-0.9,0.9-1.2,1.7-0.8l13,7.5c0.7,0.4,1.1,1.4,0.9,2.3
					l0,0C133.4,138.5,132.7,138.9,132,138.4z"/>
				<path class="st2" d="M153.2,143.4l-4.7-2.7c-0.7-0.4-1.1-1.4-0.9-2.3l0,0c0.2-0.9,0.9-1.2,1.7-0.8l4.7,2.7
					c0.7,0.4,1.1,1.4,0.9,2.3l0,0C154.7,143.4,153.9,143.8,153.2,143.4z"/>
				<path class="st2" d="M199.7,140.8l-27.9-16.1c-0.7-0.4-1.1-1.4-0.9-2.3l0,0c0.2-0.9,0.9-1.2,1.7-0.8l27.9,16.1
					c0.7,0.4,1.1,1.4,0.9,2.3l0,0C201.2,140.9,200.4,141.2,199.7,140.8z"/>
				<path class="st2" d="M131.6,152.9l-15.6-9c-0.7-0.4-1.1-1.4-0.9-2.3l0,0c0.2-0.9,0.9-1.2,1.7-0.8l15.6,9
					c0.7,0.4,1.1,1.4,0.9,2.3l0,0C133.1,153,132.3,153.3,131.6,152.9z"/>
				<path class="st2" d="M131.5,101.4L120,94.8c-0.7-0.4-1.1-1.4-0.9-2.3l0,0c0.2-0.9,0.9-1.2,1.7-0.8l11.5,6.6
					c0.7,0.4,1.1,1.4,0.9,2.3l0,0C132.9,101.5,132.2,101.8,131.5,101.4z"/>
				<path class="st2" d="M118.3,167.3l-13.3-7.7c-0.7-0.4-1.1-1.4-0.9-2.3l0,0c0.2-0.9,0.9-1.2,1.7-0.8l13.3,7.7
					c0.7,0.4,1.1,1.4,0.9,2.3l0,0C119.8,167.3,119,167.7,118.3,167.3z"/>
			</g>
			<g>
				<path class="st2" d="M208.1,195.2l-7.8-4.5c-0.7-0.4-1.1-1.4-0.9-2.3l0,0c0.2-0.9,0.9-1.2,1.7-0.8l7.8,4.5
					c0.7,0.4,1.1,1.4,0.9,2.3l0,0C209.5,195.3,208.8,195.6,208.1,195.2z"/>
				<path class="st2" d="M213.6,169.1l-14.8-8.6c-0.7-0.4-1.1-1.4-0.9-2.3l0,0c0.2-0.9,0.9-1.2,1.7-0.8l14.8,8.6
					c0.7,0.4,1.1,1.4,0.9,2.3l0,0C215.1,169.1,214.4,169.5,213.6,169.1z"/>
				<path class="st2" d="M200.7,176.3l-4.9-2.8c-0.7-0.4-1.1-1.4-0.9-2.3l0,0c0.2-0.9,0.9-1.2,1.7-0.8l4.9,2.8
					c0.7,0.4,1.1,1.4,0.9,2.3l0,0C202.1,176.3,201.4,176.7,200.7,176.3z"/>
				<path class="st2" d="M195.9,188.2l-3.1-1.8c-0.7-0.4-1.1-1.4-0.9-2.3v0c0.2-0.9,0.9-1.2,1.7-0.8l3.1,1.8
					c0.7,0.4,1.1,1.4,0.9,2.3l0,0C197.4,188.3,196.7,188.6,195.9,188.2z"/>
				<path class="st2" d="M218.7,186.7l-13-7.5c-0.7-0.4-1.1-1.4-0.9-2.3l0,0c0.2-0.9,0.9-1.2,1.7-0.8l13,7.5
					c0.7,0.4,1.1,1.4,0.9,2.3l0,0C220.2,186.8,219.4,187.1,218.7,186.7z"/>
				<path class="st2" d="M219.9,180l-22.6-13c-0.7-0.4-1.1-1.4-0.9-2.3v0c0.2-0.9,0.9-1.2,1.7-0.8l22.6,13c0.7,0.4,1.1,1.4,0.9,2.3
					l0,0C221.4,180.1,220.6,180.4,219.9,180z"/>
				<path class="st2" d="M207.3,187.4l-13-7.5c-0.7-0.4-1.1-1.4-0.9-2.3l0,0c0.2-0.9,0.9-1.2,1.7-0.8l13,7.5
					c0.7,0.4,1.1,1.4,0.9,2.3l0,0C208.8,187.5,208,187.9,207.3,187.4z"/>
				<path class="st2" d="M206.9,201.9l-15.6-9c-0.7-0.4-1.1-1.4-0.9-2.3l0,0c0.2-0.9,0.9-1.2,1.7-0.8l15.6,9
					c0.7,0.4,1.1,1.4,0.9,2.3l0,0C208.4,202,207.6,202.3,206.9,201.9z"/>
			</g>
		</g>
	</g>
	<g>
		<g>
			<polygon class="st0" points="236.1,104.4 248.4,99.5 245.6,81.5 239.7,86.8 			"/>
			<path class="st0" d="M154.2,20.5l29.6-11.8c0,0-5.4,11.8-5.5,11.8c0,0-15.8,3.7-15.8,3.7L154.2,20.5z"/>
			<path class="st0" d="M247,69.4c-1.6-0.9-3.2-1.4-4.8-1.6c1.6-10.9-3.1-22.4-12.1-27.6c-2.7-1.6-5.7-2.5-8.5-2.7
				c3.5-13.2-1.9-28.2-13.1-34.6c-5.8-3.4-12.1-3.8-17.6-1.7l0,0l-0.3,0.1c-0.1,0.1-0.3,0.1-0.4,0.2L181,5.2l3.7,3.2
				c-5,1.6-9.3,5.6-11.6,11.6c-4.2,11,0.1,24.5,9.7,30l56.8,47.9c7.2,4.1,11.5,2.4,14.7-5.9C257.4,83.7,254.1,73.6,247,69.4z"/>
			<path class="st0" d="M175.6,15.1l31.9-12.7c-5.5-2.8-11.4-3-16.6-1.1l0,0l-0.3,0.1c-0.1,0.1-0.3,0.1-0.4,0.2L181,5.2l3.7,3.2
				C181.2,9.5,178,11.8,175.6,15.1z"/>
			<path class="st0" d="M220,62.9l21-8.4c-1.9-6-5.8-11.3-11.1-14.3c-0.7-0.4-1.4-0.8-2.1-1.1l-29,11.6L220,62.9z"/>
			<path class="st2" d="M187.4,6.5l9,5.2l15.7-6.2c-1.1-0.9-2.3-1.8-3.6-2.5c-2-1.2-4.1-2-6.1-2.4L187.4,6.5z"/>
			<path class="st2" d="M239.6,51l-15.1,6l4.5,6.3l13-5.2C241.5,55.6,240.7,53.2,239.6,51z"/>
			<path class="st2" d="M236.8,73.4c-1.6-0.9-3.2-1.4-4.8-1.6c1.6-10.9-3.2-22.4-12.2-27.7c-2.7-1.6-5.5-2.4-8.3-2.6
				c3.5-13.2-1.9-28.2-13.1-34.6c-12-6.9-26-1.3-31.2,12.5c-0.2,0.5-0.3,0.9-0.5,1.4c-9.1-4.1-19.2,0.5-23.2,10.9
				c-4.2,11,0.1,24.5,9.7,30l72.2,41.7c7.2,4.1,15.6,0.8,18.7-7.5C247.3,87.7,244,77.6,236.8,73.4z"/>
			<g>
				<path class="st6" d="M238.3,72.6c-1.6-0.9-3.2-1.4-4.8-1.6c1.6-10.9-3.2-22.4-12.2-27.7c-2.7-1.6-5.5-2.4-8.3-2.6
					c3.5-13.2-1.9-28.2-13.1-34.6c-7.1-4.1-15-3.8-21.3,0.1c6-3.1,13.2-3.1,19.8,0.7c11.1,6.4,16.6,21.4,13.1,34.6
					c2.8,0.2,5.6,1,8.3,2.6c9,5.2,13.8,16.8,12.2,27.7c1.6,0.2,3.2,0.7,4.8,1.6c7.2,4.1,10.4,14.2,7.3,22.5
					c-1.2,3.2-3.2,5.7-5.6,7.2c3.1-1.5,5.7-4.2,7.1-8.1C248.7,86.8,245.5,76.7,238.3,72.6z"/>
				<path class="st6" d="M166.7,20.9c0.1-0.4,0.3-0.8,0.4-1.2c-4.9-1.8-10.1-1.2-14.3,1.5C157.1,19,162,18.8,166.7,20.9z"/>
			</g>
			<g>
				<path class="st1" d="M158.5,23c-1.3,0-2.6,0.3-3.8,0.8c-2.9,1.3-5.3,4.2-6.8,8c-3.7,9.7,0.3,22,8.7,26.8l72.2,41.7
					c2.3,1.3,4.6,1.6,6.4,0.9c1.8-0.7,3.4-2.7,4.4-5.3c2.7-7-0.2-15.9-6.2-19.4c-1.1-0.6-2.3-1-3.4-1.2l-2.9-0.4l0.4-2.5
					c1.5-10-3.1-20.6-11-25.2c-2.2-1.3-4.4-2-6.6-2.1l-3.6-0.2l0.8-3c3.2-12.1-2-26.1-11.9-31.8c-4.6-2.7-9.5-3.2-13.7-1.5
					c-4.2,1.7-7.7,5.6-9.7,10.9c-0.2,0.4-0.3,0.8-0.4,1.3l-1.9,6l-5.7-2.5C161.9,23.4,160.2,23,158.5,23z"/>
			</g>
		</g>
		<g>
			<polygon class="st0" points="193.9,69.4 196.4,68.4 194.5,66.9 			"/>
			<polygon class="st0" points="192.7,42.5 195.1,41.5 194.9,42.5 			"/>
			<polygon class="st0" points="201.7,63.1 204.2,62.1 200.6,58.4 			"/>
			<g>
				<path class="st0" d="M195.7,68.4l-9.6-5.6c-0.5-0.3-0.8-1-0.7-1.6l2.3-10.9l11.4,6.6l-2.3,10.9
					C196.7,68.4,196.2,68.6,195.7,68.4z"/>
				<path class="st0" d="M195.1,41.5l-13,6.6c-0.6,0.3-0.4,1.3,0.3,1.7l10.6,6.1l10.6,6.1c0.7,0.4,1.2-0.2,0.9-1l-7.7-18.5
					C196.4,41.7,195.6,41.2,195.1,41.5z"/>
			</g>
			<g>
				<path class="st2" d="M193.2,69.4l-9.6-5.6c-0.5-0.3-0.8-1-0.7-1.6l2.3-10.9l11.4,6.6l-2.3,10.9
					C194.2,69.4,193.7,69.7,193.2,69.4z"/>
				<path class="st2" d="M192.5,42.5l-13,6.6c-0.6,0.3-0.4,1.3,0.3,1.7l10.6,6.1l10.6,6.1c0.7,0.4,1.2-0.2,0.9-1l-7.7-18.5
					C193.9,42.7,193.1,42.2,192.5,42.5z"/>
			</g>
		</g>
	</g>
</g>
</svg>
