<!-- Generator: Adobe Illustrator 25.2.0, SVG Export Plug-In  -->
<svg version="1.1" xmlns="http://www.w3.org/2000/svg" xmlns:xlink="http://www.w3.org/1999/xlink" x="0px" y="0px" width="309.9px"
	 height="312.3px" viewBox="0 0 309.9 312.3" style="overflow:visible;enable-background:new 0 0 309.9 312.3;"
	 xml:space="preserve">
<style type="text/css">
	.st0{opacity:0.5;fill:#C4D9E8;}
	.st1{fill:#173D7A;}
	.st2{fill:#396CAA;}
	.st3{fill:#274F89;}
	.st4{fill:#D4ECFF;}
	.st5{fill:#FFFFFF;}
	.st6{fill:#5793CE;}
	.st7{fill:#983BE9;}
	.st8{fill:#B45EF4;}
	.st9{fill:#C285F9;}
	.st10{fill:#8A2AE3;}
	.st11{fill:#6614CF;}
	.st12{fill:#FF2C9C;}
	.st13{fill:#721BD5;}
	.st14{fill:#7E23DC;}
	.st15{fill:#E8A200;}
	.st16{fill:#FDD762;}
	.st17{fill:#FFC2B0;}
	.st18{fill:#EA9C92;}
	.st19{fill:#D8892B;}
	.st20{fill:#D29FFF;}
</style>
<defs>
</defs>
<g>
	<path class="st0" d="M163.5,282.5l-110.8-64c-3.1-1.8-2.7-5,0.9-7.1l75.5-43.6c3.6-2.1,9.1-2.3,12.2-0.5l110.8,64
		c3.1,1.8,2.7,5-0.9,7.1L175.7,282C172.1,284.1,166.6,284.3,163.5,282.5z"/>
	<path class="st1" d="M278,118L167.2,54c-1.3-0.7-2.6-0.9-3.8-0.5l0,0l-0.2,0.1c0,0,0,0,0,0l-4,1.5l3.6,1.8c0,0.1,0,0.1-0.1,0.2
		l-18.1,82.2c-0.9,4.1,0.9,8.9,4,10.7l108.2,62.4l-0.4,4.6l4.4-1.7c1.5-0.7,2.6-2.2,3.1-4.5l18.1-82.2
		C282.9,124.6,281.1,119.8,278,118z"/>
	<path class="st2" d="M278,118L167.2,54c-1.3-0.7-2.6-0.9-3.8-0.5l0,0l-0.2,0.1c0,0,0,0,0,0l-4,1.5l3.6,1.8c0,0.1,0,0.1-0.1,0.2
		l-11.9,54.2l54.2,42.2l76.5-31.1C280.8,120.5,279.5,118.9,278,118z"/>
	<path class="st3" d="M273.8,130.7l8.4-3.6c0.2-3.3-1.2-6.6-3.4-8.4l-13.4,5.6L273.8,130.7z"/>
	<path class="st4" d="M252.6,216.6l-110.8-64c-3.1-1.8-4.9-6.6-4-10.7l18.1-82.2c0.9-4.1,4.2-6,7.3-4.2l110.8,64
		c3.1,1.8,4.9,6.6,4,10.7l-18.1,82.2C259,216.6,255.8,218.4,252.6,216.6z"/>
	<path class="st5" d="M250.2,210.5L146,150.4c-2.9-1.7-4.5-6-3.7-9.8l16.5-75.2c0.8-3.8,3.8-5.5,6.7-3.8l104.2,60.1
		c2.9,1.7,4.5,6,3.7,9.8l-16.5,75.2C256.1,210.5,253.1,212.2,250.2,210.5z"/>
	<path class="st5" d="M250.2,210.5L146,150.4c-2.9-1.7-4.5-6-3.7-9.8l16.5-75.2c0.8-3.8,3.8-5.5,6.7-3.8l104.2,60.1
		c2.9,1.7,4.5,6,3.7,9.8l-16.5,75.2C256.1,210.5,253.1,212.2,250.2,210.5z"/>
	<path class="st1" d="M254.1,219.4l-15.1-2L141.2,161c-3.1-1.8-8.6-1.6-12.2,0.5l-69.3,40l-9.2-1.2v5.2l0,0
		c-0.1,1.2,0.6,2.4,2.1,3.2l110.8,64c3.1,1.8,8.6,1.6,12.2-0.5l75.5-43.6c2-1.2,3.1-2.7,3-4.1l0,0V219.4z"/>
	<path class="st2" d="M180.7,183.7l-6.9-4H97.4l-37.7,21.7l-9.2-1.2v5.2l0,0c-0.1,1.2,0.6,2.4,2.1,3.2l110.8,64c1.7,1,4,1.3,6.3,1.2
		L180.7,183.7z"/>
	<path class="st6" d="M54.6,200.8l-4.1-0.5v5.2l0,0c-0.1,1.2,0.6,2.4,2.1,3.2l2,1.1V200.8z"/>
	<path class="st3" d="M164.6,273.2c3,1.1,7.2,0.9,10.4-0.6v-11.6h-10.4V273.2z"/>
	<path class="st4" d="M163.5,267.4l-110.8-64c-3.1-1.8-2.7-5,0.9-7.1l75.5-43.6c3.6-2.1,9.1-2.3,12.2-0.5l110.8,64
		c3.1,1.8,2.7,5-0.9,7.1l-75.5,43.6C172.1,269,166.6,269.3,163.5,267.4z"/>
	<path class="st5" d="M251.2,221.5L175.7,265c-3.6,2.1-9.1,2.3-12.2,0.5l-110.8-64c-1-0.6-1.7-1.3-1.9-2.1c-0.5,1.5,0.1,3,1.9,4
		l110.8,64c3.1,1.8,8.6,1.6,12.2-0.5l75.5-43.6c2.4-1.4,3.4-3.3,2.8-4.9C253.6,219.5,252.7,220.6,251.2,221.5z"/>
	<g>
		<path class="st1" d="M99.8,182.3l-5-2.9c-0.4-0.2-0.4-0.6,0.1-0.9l5.9-3.4c0.5-0.3,1.2-0.3,1.6-0.1l5,2.9c0.4,0.2,0.4,0.6-0.1,0.9
			l-5.9,3.4C100.9,182.5,100.2,182.5,99.8,182.3z"/>
		<path class="st1" d="M107.5,186.8l-5-2.9c-0.4-0.2-0.4-0.6,0.1-0.9l5.9-3.4c0.5-0.3,1.2-0.3,1.6-0.1l5,2.9
			c0.4,0.2,0.4,0.6-0.1,0.9l-5.9,3.4C108.6,187,107.9,187,107.5,186.8z"/>
		<path class="st1" d="M115.3,191.2l-5-2.9c-0.4-0.2-0.4-0.6,0.1-0.9l5.9-3.4c0.5-0.3,1.2-0.3,1.6-0.1l5,2.9
			c0.4,0.2,0.4,0.6-0.1,0.9l-5.9,3.4C116.4,191.4,115.7,191.5,115.3,191.2z"/>
		<path class="st1" d="M126,187.5l-5-2.9c-0.4-0.2-0.4-0.6,0.1-0.9l5-2.9c0.5-0.3,1.2-0.3,1.6-0.1l5,2.9c0.4,0.2,0.4,0.6-0.1,0.9
			l-5,2.9C127.1,187.7,126.4,187.8,126,187.5z"/>
		<path class="st1" d="M133.7,192l-5-2.9c-0.4-0.2-0.4-0.6,0.1-0.9l5-2.9c0.5-0.3,1.2-0.3,1.6-0.1l5,2.9c0.4,0.2,0.4,0.6-0.1,0.9
			l-5,2.9C134.8,192.2,134.1,192.2,133.7,192z"/>
		<path class="st1" d="M141.5,196.5l-5-2.9c-0.4-0.2-0.4-0.6,0.1-0.9l5-2.9c0.5-0.3,1.2-0.3,1.6-0.1l5,2.9c0.4,0.2,0.4,0.6-0.1,0.9
			l-5,2.9C142.6,196.7,141.9,196.7,141.5,196.5z"/>
		<path class="st1" d="M149.2,200.9l-5-2.9c-0.4-0.2-0.4-0.6,0.1-0.9l5-2.9c0.5-0.3,1.2-0.3,1.6-0.1l5,2.9c0.4,0.2,0.4,0.6-0.1,0.9
			l-5,2.9C150.3,201.2,149.6,201.2,149.2,200.9z"/>
		<path class="st1" d="M157,205.4l-5-2.9c-0.4-0.2-0.4-0.6,0.1-0.9l5-2.9c0.5-0.3,1.2-0.3,1.6-0.1l5,2.9c0.4,0.2,0.4,0.6-0.1,0.9
			l-5,2.9C158.1,205.6,157.4,205.7,157,205.4z"/>
		<path class="st1" d="M164.7,209.9l-5-2.9c-0.4-0.2-0.4-0.6,0.1-0.9l5-2.9c0.5-0.3,1.2-0.3,1.6-0.1l5,2.9c0.4,0.2,0.4,0.6-0.1,0.9
			l-5,2.9C165.8,210.1,165.1,210.1,164.7,209.9z"/>
		<path class="st1" d="M172.4,214.4l-5-2.9c-0.4-0.2-0.4-0.6,0.1-0.9l5-2.9c0.5-0.3,1.2-0.3,1.6-0.1l5,2.9c0.4,0.2,0.4,0.6-0.1,0.9
			l-5,2.9C173.5,214.6,172.8,214.6,172.4,214.4z"/>
		<path class="st1" d="M180.2,218.8l-5-2.9c-0.4-0.2-0.4-0.6,0.1-0.9l5-2.9c0.5-0.3,1.2-0.3,1.6-0.1l5,2.9c0.4,0.2,0.4,0.6-0.1,0.9
			l-5,2.9C181.3,219,180.6,219.1,180.2,218.8z"/>
		<path class="st1" d="M187.9,223.3l-5-2.9c-0.4-0.2-0.4-0.6,0.1-0.9l5-2.9c0.5-0.3,1.2-0.3,1.6-0.1l5,2.9c0.4,0.2,0.4,0.6-0.1,0.9
			l-5,2.9C189,223.5,188.3,223.5,187.9,223.3z"/>
		<path class="st1" d="M195.7,227.8l-5-2.9c-0.4-0.2-0.4-0.6,0.1-0.9l5-2.9c0.5-0.3,1.2-0.3,1.6-0.1l5,2.9c0.4,0.2,0.4,0.6-0.1,0.9
			l-5,2.9C196.8,228,196.1,228,195.7,227.8z"/>
		<path class="st2" d="M137.4,185.4l-5-2.9c-0.4-0.2-0.4-0.6,0.1-0.9l5-2.9c0.5-0.3,1.2-0.3,1.6-0.1l5,2.9c0.4,0.2,0.4,0.6-0.1,0.9
			l-5,2.9C138.5,185.6,137.8,185.7,137.4,185.4z"/>
		<path class="st2" d="M129.5,180.9l-5-2.9c-0.4-0.2-0.4-0.6,0.1-0.9l5-2.9c0.5-0.3,1.2-0.3,1.6-0.1l5,2.9c0.4,0.2,0.4,0.6-0.1,0.9
			l-5,2.9C130.6,181.1,129.9,181.1,129.5,180.9z"/>
		<path class="st1" d="M121.7,176.3l-10.8-6.2c-0.4-0.2-0.4-0.6,0.1-0.9l5-2.9c0.5-0.3,1.2-0.3,1.6-0.1l10.8,6.2
			c0.4,0.2,0.4,0.6-0.1,0.9l-5,2.9C122.8,176.5,122.1,176.6,121.7,176.3z"/>
		<path class="st1" d="M127.2,170.8l-8.8-5.1c-0.4-0.2-0.4-0.6,0.1-0.9l5-2.9c0.5-0.3,1.2-0.3,1.6-0.1l8.8,5.1
			c0.4,0.2,0.4,0.6-0.1,0.9l-5,2.9C128.3,171,127.6,171,127.2,170.8z"/>
		<path class="st2" d="M145.1,189.9l-5-2.9c-0.4-0.2-0.4-0.6,0.1-0.9l5-2.9c0.5-0.3,1.2-0.3,1.6-0.1l5,2.9c0.4,0.2,0.4,0.6-0.1,0.9
			l-5,2.9C146.2,190.1,145.5,190.1,145.1,189.9z"/>
		<path class="st1" d="M152.9,194.4l-5-2.9c-0.4-0.2-0.4-0.6,0.1-0.9l5-2.9c0.5-0.3,1.2-0.3,1.6-0.1l5,2.9c0.4,0.2,0.4,0.6-0.1,0.9
			l-5,2.9C154,194.6,153.3,194.6,152.9,194.4z"/>
		<path class="st1" d="M160.6,198.8l-5-2.9c-0.4-0.2-0.4-0.6,0.1-0.9l5-2.9c0.5-0.3,1.2-0.3,1.6-0.1l5,2.9c0.4,0.2,0.4,0.6-0.1,0.9
			l-5,2.9C161.7,199,161,199.1,160.6,198.8z"/>
		<path class="st1" d="M168.4,203.3l-5-2.9c-0.4-0.2-0.4-0.6,0.1-0.9l5-2.9c0.5-0.3,1.2-0.3,1.6-0.1l5,2.9c0.4,0.2,0.4,0.6-0.1,0.9
			l-5,2.9C169.5,203.5,168.8,203.5,168.4,203.3z"/>
		<path class="st1" d="M176.1,207.8l-5-2.9c-0.4-0.2-0.4-0.6,0.1-0.9l5-2.9c0.5-0.3,1.2-0.3,1.6-0.1l5,2.9c0.4,0.2,0.4,0.6-0.1,0.9
			l-5,2.9C177.2,208,176.5,208,176.1,207.8z"/>
		<path class="st1" d="M183.8,212.2l-5-2.9c-0.4-0.2-0.4-0.6,0.1-0.9l5-2.9c0.5-0.3,1.2-0.3,1.6-0.1l5,2.9c0.4,0.2,0.4,0.6-0.1,0.9
			l-5,2.9C185,212.4,184.2,212.5,183.8,212.2z"/>
		<path class="st1" d="M191.6,216.7l-5-2.9c-0.4-0.2-0.4-0.6,0.1-0.9l5-2.9c0.5-0.3,1.2-0.3,1.6-0.1l5,2.9c0.4,0.2,0.4,0.6-0.1,0.9
			l-5,2.9C192.7,216.9,192,216.9,191.6,216.7z"/>
		<path class="st1" d="M199.3,221.2l-5-2.9c-0.4-0.2-0.4-0.6,0.1-0.9l5-2.9c0.5-0.3,1.2-0.3,1.6-0.1l5,2.9c0.4,0.2,0.4,0.6-0.1,0.9
			l-5,2.9C200.4,221.4,199.7,221.4,199.3,221.2z"/>
		<path class="st1" d="M207.1,225.7l-5-2.9c-0.4-0.2-0.4-0.6,0.1-0.9l5-2.9c0.5-0.3,1.2-0.3,1.6-0.1l5,2.9c0.4,0.2,0.4,0.6-0.1,0.9
			l-5,2.9C208.2,225.9,207.5,225.9,207.1,225.7z"/>
		<path class="st1" d="M220.8,233.6l-10.9-6.3c-0.4-0.2-0.4-0.6,0.1-0.9l5-2.9c0.5-0.3,1.2-0.3,1.6-0.1l10.9,6.3
			c0.4,0.2,0.4,0.6-0.1,0.9l-5,2.9C221.9,233.8,221.2,233.8,220.8,233.6z"/>
		<path class="st1" d="M235.9,224.9l-9.2-5.3c-0.4-0.2-0.4-0.6,0.1-0.9l5-2.9c0.5-0.3,1.2-0.3,1.6-0.1l9.2,5.3
			c0.4,0.2,0.4,0.6-0.1,0.9l-5,2.9C237,225.1,236.3,225.1,235.9,224.9z"/>
		<path class="st1" d="M158.7,189l-5-2.9c-0.4-0.2-0.4-0.6,0.1-0.9l5-2.9c0.5-0.3,1.2-0.3,1.6-0.1l5,2.9c0.4,0.2,0.4,0.6-0.1,0.9
			l-5,2.9C159.8,189.2,159.1,189.2,158.7,189z"/>
		<path class="st1" d="M150.8,184.4l-5-2.9c-0.4-0.2-0.4-0.6,0.1-0.9l5-2.9c0.5-0.3,1.2-0.3,1.6-0.1l5,2.9c0.4,0.2,0.4,0.6-0.1,0.9
			l-5,2.9C151.9,184.6,151.2,184.7,150.8,184.4z"/>
		<path class="st2" d="M142.8,179.9l-5-2.9c-0.4-0.2-0.4-0.6,0.1-0.9l5-2.9c0.5-0.3,1.2-0.3,1.6-0.1l5,2.9c0.4,0.2,0.4,0.6-0.1,0.9
			l-5,2.9C143.9,180.1,143.2,180.1,142.8,179.9z"/>
		<path class="st1" d="M134.9,175.3l-5-2.9c-0.4-0.2-0.4-0.6,0.1-0.9l5-2.9c0.5-0.3,1.2-0.3,1.6-0.1l5,2.9c0.4,0.2,0.4,0.6-0.1,0.9
			l-5,2.9C136,175.5,135.3,175.5,134.9,175.3z"/>
		<path class="st1" d="M166.4,193.5l-5-2.9c-0.4-0.2-0.4-0.6,0.1-0.9l5-2.9c0.5-0.3,1.2-0.3,1.6-0.1l5,2.9c0.4,0.2,0.4,0.6-0.1,0.9
			l-5,2.9C167.5,193.7,166.8,193.7,166.4,193.5z"/>
		<path class="st1" d="M174.2,198l-5-2.9c-0.4-0.2-0.4-0.6,0.1-0.9l5-2.9c0.5-0.3,1.2-0.3,1.6-0.1l5,2.9c0.4,0.2,0.4,0.6-0.1,0.9
			l-5,2.9C175.3,198.2,174.6,198.2,174.2,198z"/>
		<path class="st1" d="M181.9,202.4l-5-2.9c-0.4-0.2-0.4-0.6,0.1-0.9l5-2.9c0.5-0.3,1.2-0.3,1.6-0.1l5,2.9c0.4,0.2,0.4,0.6-0.1,0.9
			l-5,2.9C183,202.6,182.3,202.7,181.9,202.4z"/>
		<path class="st1" d="M189.7,206.9l-5-2.9c-0.4-0.2-0.4-0.6,0.1-0.9l5-2.9c0.5-0.3,1.2-0.3,1.6-0.1l5,2.9c0.4,0.2,0.4,0.6-0.1,0.9
			l-5,2.9C190.8,207.1,190.1,207.1,189.7,206.9z"/>
		<path class="st1" d="M197.4,211.4l-5-2.9c-0.4-0.2-0.4-0.6,0.1-0.9l5-2.9c0.5-0.3,1.2-0.3,1.6-0.1l5,2.9c0.4,0.2,0.4,0.6-0.1,0.9
			l-5,2.9C198.5,211.6,197.8,211.6,197.4,211.4z"/>
		<path class="st1" d="M205.1,215.8l-5-2.9c-0.4-0.2-0.4-0.6,0.1-0.9l5-2.9c0.5-0.3,1.2-0.3,1.6-0.1l5,2.9c0.4,0.2,0.4,0.6-0.1,0.9
			l-5,2.9C206.3,216,205.6,216.1,205.1,215.8z"/>
		<path class="st1" d="M212.9,220.3l-5-2.9c-0.4-0.2-0.4-0.6,0.1-0.9l5-2.9c0.5-0.3,1.2-0.3,1.6-0.1l5,2.9c0.4,0.2,0.4,0.6-0.1,0.9
			l-5,2.9C214,220.5,213.3,220.5,212.9,220.3z"/>
		<path class="st1" d="M220.6,224.8l-5-2.9c-0.4-0.2-0.4-0.6,0.1-0.9l5-2.9c0.5-0.3,1.2-0.3,1.6-0.1l5,2.9c0.4,0.2,0.4,0.6-0.1,0.9
			l-5,2.9C221.7,225,221,225,220.6,224.8z"/>
		<path class="st1" d="M228.4,229.3l-5-2.9c-0.4-0.2-0.4-0.6,0.1-0.9l5-2.9c0.5-0.3,1.2-0.3,1.6-0.1l5,2.9c0.4,0.2,0.4,0.6-0.1,0.9
			l-5,2.9C229.5,229.5,228.8,229.5,228.4,229.3z"/>
		<path class="st1" d="M154.6,178l-5-2.9c-0.4-0.2-0.4-0.6,0.1-0.9l5-2.9c0.5-0.3,1.2-0.3,1.6-0.1l5,2.9c0.4,0.2,0.4,0.6-0.1,0.9
			l-5,2.9C155.7,178.2,155,178.2,154.6,178z"/>
		<path class="st1" d="M146.9,173.5l-5-2.9c-0.4-0.2-0.4-0.6,0.1-0.9l5-2.9c0.5-0.3,1.2-0.3,1.6-0.1l5,2.9c0.4,0.2,0.4,0.6-0.1,0.9
			l-5,2.9C148,173.7,147.3,173.7,146.9,173.5z"/>
		<path class="st1" d="M139.2,169.1l-5-2.9c-0.4-0.2-0.4-0.6,0.1-0.9l5-2.9c0.5-0.3,1.2-0.3,1.6-0.1l5,2.9c0.4,0.2,0.4,0.6-0.1,0.9
			l-5,2.9C140.3,169.3,139.6,169.3,139.2,169.1z"/>
		<path class="st1" d="M131.5,164.6l-5-2.9c-0.4-0.2-0.4-0.6,0.1-0.9l5-2.9c0.5-0.3,1.2-0.3,1.6-0.1l5,2.9c0.4,0.2,0.4,0.6-0.1,0.9
			l-5,2.9C132.6,164.8,131.9,164.8,131.5,164.6z"/>
		<path class="st1" d="M139.4,160l-5-2.9c-0.4-0.2-0.4-0.6,0.1-0.9l1.6-0.9c0.5-0.3,1.2-0.3,1.6-0.1l5,2.9c0.4,0.2,0.4,0.6-0.1,0.9
			L141,160C140.5,160.2,139.8,160.3,139.4,160z"/>
		<path class="st1" d="M149.5,165.8l-5-2.9c-0.4-0.2-0.4-0.6,0.1-0.9l1.6-0.9c0.5-0.3,1.2-0.3,1.6-0.1l5,2.9
			c0.4,0.2,0.4,0.6-0.1,0.9l-1.6,0.9C150.6,166,149.9,166.1,149.5,165.8z"/>
		<path class="st1" d="M157.1,170.3l-5-2.9c-0.4-0.2-0.4-0.6,0.1-0.9l1.6-0.9c0.5-0.3,1.2-0.3,1.6-0.1l5,2.9
			c0.4,0.2,0.4,0.6-0.1,0.9l-1.6,0.9C158.3,170.5,157.6,170.5,157.1,170.3z"/>
		<path class="st1" d="M164.8,174.7l-5-2.9c-0.4-0.2-0.4-0.6,0.1-0.9l1.6-0.9c0.5-0.3,1.2-0.3,1.6-0.1l5,2.9
			c0.4,0.2,0.4,0.6-0.1,0.9l-1.6,0.9C165.9,174.9,165.2,174.9,164.8,174.7z"/>
		<path class="st1" d="M172.5,179.1l-5-2.9c-0.4-0.2-0.4-0.6,0.1-0.9l1.6-0.9c0.5-0.3,1.2-0.3,1.6-0.1l5,2.9
			c0.4,0.2,0.4,0.6-0.1,0.9l-1.6,0.9C173.6,179.3,172.9,179.4,172.5,179.1z"/>
		<path class="st1" d="M215.3,203.9l-5-2.9c-0.4-0.2-0.4-0.6,0.1-0.9l1.6-0.9c0.5-0.3,1.2-0.3,1.6-0.1l5,2.9
			c0.4,0.2,0.4,0.6-0.1,0.9l-1.6,0.9C216.4,204.1,215.7,204.1,215.3,203.9z"/>
		<path class="st1" d="M223,208.3l-5-2.9c-0.4-0.2-0.4-0.6,0.1-0.9l1.6-0.9c0.5-0.3,1.2-0.3,1.6-0.1l5,2.9c0.4,0.2,0.4,0.6-0.1,0.9
			l-1.6,0.9C224.1,208.5,223.4,208.5,223,208.3z"/>
		<path class="st1" d="M230.7,212.7l-5-2.9c-0.4-0.2-0.4-0.6,0.1-0.9l1.6-0.9c0.5-0.3,1.2-0.3,1.6-0.1l5,2.9
			c0.4,0.2,0.4,0.6-0.1,0.9l-1.6,0.9C231.8,212.9,231.1,213,230.7,212.7z"/>
		<path class="st1" d="M238.3,217.2l-5-2.9c-0.4-0.2-0.4-0.6,0.1-0.9l1.6-0.9c0.5-0.3,1.2-0.3,1.6-0.1l5,2.9
			c0.4,0.2,0.4,0.6-0.1,0.9l-1.6,0.9C239.5,217.4,238.7,217.4,238.3,217.2z"/>
		<path class="st1" d="M162.4,182.4l-5-2.9c-0.4-0.2-0.4-0.6,0.1-0.9l5-2.9c0.5-0.3,1.2-0.3,1.6-0.1l5,2.9c0.4,0.2,0.4,0.6-0.1,0.9
			l-5,2.9C163.5,182.6,162.8,182.7,162.4,182.4z"/>
		<path class="st1" d="M170.1,186.9l-5-2.9c-0.4-0.2-0.4-0.6,0.1-0.9l5-2.9c0.5-0.3,1.2-0.3,1.6-0.1l5,2.9c0.4,0.2,0.4,0.6-0.1,0.9
			l-5,2.9C171.2,187.1,170.5,187.1,170.1,186.9z"/>
		<path class="st1" d="M177.8,191.4l-5-2.9c-0.4-0.2-0.4-0.6,0.1-0.9l5-2.9c0.5-0.3,1.2-0.3,1.6-0.1l5,2.9c0.4,0.2,0.4,0.6-0.1,0.9
			l-5,2.9C178.9,191.6,178.2,191.6,177.8,191.4z"/>
		<path class="st1" d="M185.6,195.8l-5-2.9c-0.4-0.2-0.4-0.6,0.1-0.9l5-2.9c0.5-0.3,1.2-0.3,1.6-0.1l5,2.9c0.4,0.2,0.4,0.6-0.1,0.9
			l-5,2.9C186.7,196,186,196.1,185.6,195.8z"/>
		<path class="st1" d="M193.3,200.3l-5-2.9c-0.4-0.2-0.4-0.6,0.1-0.9l5-2.9c0.5-0.3,1.2-0.3,1.6-0.1l5,2.9c0.4,0.2,0.4,0.6-0.1,0.9
			l-5,2.9C194.4,200.5,193.7,200.5,193.3,200.3z"/>
		<path class="st1" d="M201.1,204.8l-5-2.9c-0.4-0.2-0.4-0.6,0.1-0.9l5-2.9c0.5-0.3,1.2-0.3,1.6-0.1l5,2.9c0.4,0.2,0.4,0.6-0.1,0.9
			l-5,2.9C202.2,205,201.5,205,201.1,204.8z"/>
		<path class="st1" d="M208.8,209.3l-5-2.9c-0.4-0.2-0.4-0.6,0.1-0.9l5-2.9c0.5-0.3,1.2-0.3,1.6-0.1l5,2.9c0.4,0.2,0.4,0.6-0.1,0.9
			l-5,2.9C209.9,209.5,209.2,209.5,208.8,209.3z"/>
		<path class="st1" d="M216.6,213.7l-5-2.9c-0.4-0.2-0.4-0.6,0.1-0.9l5-2.9c0.5-0.3,1.2-0.3,1.6-0.1l5,2.9c0.4,0.2,0.4,0.6-0.1,0.9
			l-5,2.9C217.7,213.9,217,214,216.6,213.7z"/>
		<path class="st1" d="M224.3,218.2l-5-2.9c-0.4-0.2-0.4-0.6,0.1-0.9l5-2.9c0.5-0.3,1.2-0.3,1.6-0.1l5,2.9c0.4,0.2,0.4,0.6-0.1,0.9
			l-5,2.9C225.4,218.4,224.7,218.4,224.3,218.2z"/>
		<path class="st1" d="M118.1,183l-14.8-8.5c-0.4-0.2-0.4-0.6,0.1-0.9l5-2.9c0.5-0.3,1.2-0.3,1.6-0.1l14.8,8.5
			c0.4,0.2,0.4,0.6-0.1,0.9l-5,2.9C119.2,183.2,118.5,183.2,118.1,183z"/>
		<path class="st1" d="M213.2,237.9l-14.8-8.5c-0.4-0.2-0.4-0.6,0.1-0.9l5-2.9c0.5-0.3,1.2-0.3,1.6-0.1l14.8,8.5
			c0.4,0.2,0.4,0.6-0.1,0.9l-5,2.9C214.3,238.1,213.6,238.1,213.2,237.9z"/>
		<path class="st1" d="M182.2,229.9l-5-2.9c-0.4-0.2-0.4-0.6,0.1-0.9l5.9-3.4c0.5-0.3,1.2-0.3,1.6-0.1l5,2.9
			c0.4,0.2,0.4,0.6-0.1,0.9l-5.9,3.4C183.4,230.1,182.7,230.1,182.2,229.9z"/>
		<path class="st1" d="M126,197.4l-8-4.6c-0.4-0.2-0.4-0.6,0.1-0.9l5.9-3.4c0.5-0.3,1.2-0.3,1.6-0.1l8,4.6c0.4,0.2,0.4,0.6-0.1,0.9
			l-5.9,3.4C127.1,197.6,126.4,197.7,126,197.4z"/>
		<path class="st1" d="M174.8,225.6l-8-4.6c-0.4-0.2-0.4-0.6,0.1-0.9l5.9-3.4c0.5-0.3,1.2-0.3,1.6-0.1l8,4.6
			c0.4,0.2,0.4,0.6-0.1,0.9l-5.9,3.4C175.9,225.8,175.2,225.8,174.8,225.6z"/>
		<path class="st1" d="M137.2,203.9l-8-4.6c-0.4-0.2-0.4-0.6,0.1-0.9l5.9-3.4c0.5-0.3,1.2-0.3,1.6-0.1l8,4.6
			c0.4,0.2,0.4,0.6-0.1,0.9l-5.9,3.4C138.3,204.1,137.6,204.1,137.2,203.9z"/>
		<path class="st1" d="M136.8,194.9l34.9,20.1c0.4,0.2,0.4,0.7,0,0.9l-6,3.5c-0.4,0.2-1.1,0.2-1.6,0l-34.9-20.1L136.8,194.9z"/>
		<path class="st1" d="M203.9,238l5.6,3.2c0.3,0.2,0.3,0.5-0.1,0.7l-2.4,1.4c-0.4,0.2-1,0.2-1.3,0.1l-5.6-3.2
			c-0.3-0.2-0.3-0.5,0.1-0.7l2.4-1.4C203,237.8,203.6,237.8,203.9,238z"/>
		<path class="st1" d="M196.1,233.5l5.6,3.2c0.3,0.2,0.3,0.5-0.1,0.7l-2.4,1.4c-0.4,0.2-1,0.2-1.3,0.1l-5.6-3.2
			c-0.3-0.2-0.3-0.5,0.1-0.7l2.4-1.4C195.2,233.3,195.8,233.3,196.1,233.5z"/>
		<path class="st1" d="M188.3,229l5.6,3.2c0.3,0.2,0.3,0.5-0.1,0.7l-2.4,1.4c-0.4,0.2-1,0.2-1.3,0.1l-5.6-3.2
			c-0.3-0.2-0.3-0.5,0.1-0.7l2.4-1.4C187.4,228.9,188,228.8,188.3,229z"/>
		<path class="st1" d="M200.4,231l5.6,3.2c0.3,0.2,0.3,0.5-0.1,0.7l-2.4,1.4c-0.4,0.2-1,0.2-1.3,0.1l-5.6-3.2
			c-0.3-0.2-0.3-0.5,0.1-0.7l2.4-1.4C199.5,230.9,200,230.8,200.4,231z"/>
	</g>
</g>
<g>
	<g>
		<path class="st4" d="M190.1,94l-7.4-4.3c-0.7-0.4-1.1-1.4-0.9-2.2l0,0c0.2-0.8,0.9-1.2,1.6-0.8l7.4,4.3c0.7,0.4,1.1,1.4,0.9,2.2
			l0,0C191.5,94.1,190.8,94.4,190.1,94z"/>
		<path class="st4" d="M207.7,104.2l-10.9-6.3c-0.7-0.4-1.1-1.4-0.9-2.2l0,0c0.2-0.8,0.9-1.2,1.6-0.8l10.9,6.3
			c0.7,0.4,1.1,1.4,0.9,2.2l0,0C209.1,104.2,208.4,104.6,207.7,104.2z"/>
		<path class="st4" d="M177.2,128.6l-7.4-4.3c-0.7-0.4-1.1-1.4-0.9-2.2l0,0c0.2-0.8,0.9-1.2,1.6-0.8l7.4,4.3
			c0.7,0.4,1.1,1.4,0.9,2.2l0,0C178.6,128.6,177.9,129,177.2,128.6z"/>
		<path class="st4" d="M192.9,137.7l-10.9-6.3c-0.7-0.4-1.1-1.4-0.9-2.2v0c0.2-0.8,0.9-1.2,1.6-0.8l10.9,6.3
			c0.7,0.4,1.1,1.4,0.9,2.2l0,0C194.3,137.7,193.6,138.1,192.9,137.7z"/>
		<path class="st4" d="M168.2,88.4l-4.6-2.7c-0.7-0.4-1.1-1.4-0.9-2.2l0,0c0.2-0.8,0.9-1.2,1.6-0.8l4.6,2.7c0.7,0.4,1.1,1.4,0.9,2.2
			l0,0C169.6,88.4,168.9,88.8,168.2,88.4z"/>
		<path class="st4" d="M182.5,103.6l-14.1-8.2c-0.7-0.4-1.1-1.4-0.9-2.2h0c0.2-0.8,0.9-1.2,1.6-0.8l14.1,8.2
			c0.7,0.4,1.1,1.4,0.9,2.2l0,0C183.9,103.7,183.2,104,182.5,103.6z"/>
		<path class="st4" d="M170.1,110.5l-4.6-2.7c-0.7-0.4-1.1-1.4-0.9-2.2l0,0c0.2-0.8,0.9-1.2,1.6-0.8l4.6,2.7
			c0.7,0.4,1.1,1.4,0.9,2.2l0,0C171.5,110.6,170.8,110.9,170.1,110.5z"/>
		<path class="st4" d="M195.3,153.1l-12.4-7.1c-0.7-0.4-1.1-1.4-0.9-2.2l0,0c0.2-0.8,0.9-1.2,1.6-0.8l12.4,7.1
			c0.7,0.4,1.1,1.4,0.9,2.2l0,0C196.7,153.1,196,153.5,195.3,153.1z"/>
		<path class="st4" d="M165.6,121.9l-3-1.7c-0.7-0.4-1.1-1.4-0.9-2.2l0,0c0.2-0.8,0.9-1.2,1.6-0.8l3,1.7c0.7,0.4,1.1,1.4,0.9,2.2
			l0,0C167,122,166.3,122.3,165.6,121.9z"/>
		<path class="st4" d="M163.5,134.7l-3.7-2.1c-0.7-0.4-1.1-1.4-0.9-2.2l0,0c0.2-0.8,0.9-1.2,1.6-0.8l3.7,2.1
			c0.7,0.4,1.1,1.4,0.9,2.2l0,0C164.9,134.7,164.2,135.1,163.5,134.7z"/>
		<path class="st4" d="M177.8,143l-9.7-5.6c-0.7-0.4-1.1-1.4-0.9-2.2l0,0c0.2-0.8,0.9-1.2,1.6-0.8l9.7,5.6c0.7,0.4,1.1,1.4,0.9,2.2
			l0,0C179.2,143,178.5,143.4,177.8,143z"/>
		<path class="st4" d="M165.4,142.8l-7-4c-0.7-0.4-1.1-1.4-0.9-2.2l0,0c0.2-0.8,0.9-1.2,1.6-0.8l7,4c0.7,0.4,1.1,1.4,0.9,2.2l0,0
			C166.8,142.8,166.1,143.2,165.4,142.8z"/>
		<path class="st4" d="M205.9,159.2l-4.5-2.6c-0.7-0.4-1.1-1.4-0.9-2.2l0,0c0.2-0.8,0.9-1.2,1.6-0.8l4.5,2.6
			c0.7,0.4,1.1,1.4,0.9,2.2l0,0C207.3,159.3,206.6,159.6,205.9,159.2z"/>
		<path class="st4" d="M187.4,120.4l-12.4-7.1c-0.7-0.4-1.1-1.4-0.9-2.2h0c0.2-0.8,0.9-1.2,1.6-0.8l12.4,7.1
			c0.7,0.4,1.1,1.4,0.9,2.2l0,0C188.8,120.5,188,120.8,187.4,120.4z"/>
		<path class="st4" d="M188.5,114.1l-21.5-12.4c-0.7-0.4-1.1-1.4-0.9-2.2l0,0c0.2-0.8,0.9-1.2,1.6-0.8l21.5,12.4
			c0.7,0.4,1.1,1.4,0.9,2.2l0,0C189.9,114.1,189.2,114.5,188.5,114.1z"/>
		<path class="st4" d="M176.4,121.1l-12.4-7.1c-0.7-0.4-1.1-1.4-0.9-2.2l0,0c0.2-0.8,0.9-1.2,1.6-0.8l12.4,7.1
			c0.7,0.4,1.1,1.4,0.9,2.2l0,0C177.8,121.2,177.1,121.5,176.4,121.1z"/>
		<path class="st4" d="M196.7,125.9l-4.5-2.6c-0.7-0.4-1.1-1.4-0.9-2.2l0,0c0.2-0.8,0.9-1.2,1.6-0.8l4.5,2.6
			c0.7,0.4,1.1,1.4,0.9,2.2l0,0C198.1,125.9,197.4,126.3,196.7,125.9z"/>
		<path class="st4" d="M241.1,123.4l-26.6-15.4c-0.7-0.4-1.1-1.4-0.9-2.2l0,0c0.2-0.8,0.9-1.2,1.6-0.8l26.6,15.4
			c0.7,0.4,1.1,1.4,0.9,2.2l0,0C242.5,123.5,241.8,123.8,241.1,123.4z"/>
		<path class="st4" d="M176.1,135l-14.9-8.6c-0.7-0.4-1.1-1.4-0.9-2.2l0,0c0.2-0.8,0.9-1.2,1.6-0.8l14.9,8.6
			c0.7,0.4,1.1,1.4,0.9,2.2v0C177.5,135,176.8,135.4,176.1,135z"/>
		<path class="st4" d="M176,85.8L165,79.5c-0.7-0.4-1.1-1.4-0.9-2.2l0,0c0.2-0.8,0.9-1.2,1.6-0.8l10.9,6.3c0.7,0.4,1.1,1.4,0.9,2.2
			l0,0C177.4,85.9,176.7,86.2,176,85.8z"/>
		<path class="st4" d="M163.4,148.7l-12.7-7.3c-0.7-0.4-1.1-1.4-0.9-2.2l0,0c0.2-0.8,0.9-1.2,1.6-0.8l12.7,7.3
			c0.7,0.4,1.1,1.4,0.9,2.2l0,0C164.8,148.7,164.1,149.1,163.4,148.7z"/>
	</g>
	<g>
		<path class="st4" d="M249.1,175.3l-7.4-4.3c-0.7-0.4-1.1-1.4-0.9-2.2l0,0c0.2-0.8,0.9-1.2,1.6-0.8l7.4,4.3
			c0.7,0.4,1.1,1.4,0.9,2.2l0,0C250.5,175.4,249.7,175.7,249.1,175.3z"/>
		<path class="st4" d="M254.4,150.4l-14.1-8.2c-0.7-0.4-1.1-1.4-0.9-2.2l0,0c0.2-0.8,0.9-1.2,1.6-0.8l14.1,8.2
			c0.7,0.4,1.1,1.4,0.9,2.2l0,0C255.8,150.4,255.1,150.8,254.4,150.4z"/>
		<path class="st4" d="M242,157.3l-4.6-2.7c-0.7-0.4-1.1-1.4-0.9-2.2l0,0c0.2-0.8,0.9-1.2,1.6-0.8l4.6,2.7c0.7,0.4,1.1,1.4,0.9,2.2
			l0,0C243.4,157.3,242.7,157.6,242,157.3z"/>
		<path class="st4" d="M237.5,168.7l-3-1.7c-0.7-0.4-1.1-1.4-0.9-2.2l0,0c0.2-0.8,0.9-1.2,1.6-0.8l3,1.7c0.7,0.4,1.1,1.4,0.9,2.2
			l0,0C238.9,168.7,238.2,169.1,237.5,168.7z"/>
		<path class="st4" d="M259.2,167.2l-12.4-7.1c-0.7-0.4-1.1-1.4-0.9-2.2l0,0c0.2-0.8,0.9-1.2,1.6-0.8l12.4,7.1
			c0.7,0.4,1.1,1.4,0.9,2.2l0,0C260.6,167.3,259.9,167.6,259.2,167.2z"/>
		<path class="st4" d="M260.4,160.8l-21.5-12.4c-0.7-0.4-1.1-1.4-0.9-2.2l0,0c0.2-0.8,0.9-1.2,1.6-0.8l21.5,12.4
			c0.7,0.4,1.1,1.4,0.9,2.2l0,0C261.8,160.9,261,161.2,260.4,160.8z"/>
		<path class="st4" d="M248.3,167.9l-12.4-7.1c-0.7-0.4-1.1-1.4-0.9-2.2l0,0c0.2-0.8,0.9-1.2,1.6-0.8L249,165
			c0.7,0.4,1.1,1.4,0.9,2.2l0,0C249.7,168,249,168.3,248.3,167.9z"/>
		<path class="st4" d="M248,181.7l-14.9-8.6c-0.7-0.4-1.1-1.4-0.9-2.2l0,0c0.2-0.8,0.9-1.2,1.6-0.8l14.9,8.6
			c0.7,0.4,1.1,1.4,0.9,2.2l0,0C249.4,181.8,248.6,182.1,248,181.7z"/>
	</g>
</g>
<g>
	<polygon class="st7" points="276.3,99.6 287.9,95 285.3,77.8 279.6,82.8 	"/>
	<path class="st8" d="M198.1,19.5l28.2-11.3c0,0-5.2,11.3-5.2,11.3c0,0-15.1,3.5-15.1,3.5L198.1,19.5z"/>
	<path class="st7" d="M286.6,66.3c-1.5-0.9-3-1.4-4.6-1.6c1.6-10.4-2.9-21.3-11.5-26.3c-2.6-1.5-5.4-2.4-8.1-2.5
		c3.4-12.6-1.8-26.9-12.5-33c-5.5-3.2-11.5-3.6-16.8-1.6l0,0l-0.3,0.1c-0.1,0.1-0.3,0.1-0.4,0.2l-8.8,3.5l3.5,3
		c-4.8,1.5-8.9,5.4-11.1,11.1c-4,10.5,0.1,23.3,9.2,28.6l54.2,45.7c6.8,4,11,2.3,14-5.6C296.5,79.8,293.4,70.2,286.6,66.3z"/>
	<path class="st8" d="M218.5,14.4l30.4-12.1c-5.3-2.7-10.8-2.9-15.8-1.1l0,0l-0.3,0.1c-0.1,0.1-0.3,0.1-0.4,0.2l-8.8,3.5l3.5,3
		C223.8,9,220.8,11.2,218.5,14.4z"/>
	<path class="st8" d="M260.9,60l20.1-8c-1.9-5.7-5.5-10.8-10.6-13.7c-0.7-0.4-1.3-0.7-2-1l-27.7,11L260.9,60z"/>
	<path class="st9" d="M229.8,6.2l8.6,5l15-6c-1.1-0.9-2.2-1.7-3.4-2.4c-1.9-1.1-3.9-1.9-5.8-2.3L229.8,6.2z"/>
	<path class="st9" d="M279.6,48.6l-14.5,5.8l4.3,6l12.4-4.9C281.4,53.1,280.6,50.8,279.6,48.6z"/>
	<path class="st10" d="M276.9,70.1c-1.5-0.9-3-1.4-4.6-1.6c1.6-10.4-3-21.4-11.7-26.4c-2.6-1.5-5.3-2.3-8-2.5
		c3.4-12.6-1.8-26.9-12.5-33c-11.4-6.6-24.8-1.2-29.8,11.9c-0.2,0.4-0.3,0.9-0.5,1.4c-8.7-3.9-18.3,0.5-22.1,10.4
		c-4,10.5,0.1,23.3,9.2,28.6L266,98.7c6.8,4,14.8,0.7,17.9-7.2C286.9,83.6,283.8,74,276.9,70.1z"/>
	<g>
		<path class="st11" d="M202.2,22c-1.3,0-2.5,0.2-3.6,0.7c-2.7,1.2-5.1,4-6.5,7.6c-3.5,9.3,0.2,21,8.3,25.6l68.9,39.8
			c2.2,1.3,4.4,1.6,6.1,0.9c1.7-0.7,3.3-2.5,4.2-5c2.6-6.7-0.2-15.1-6-18.5c-1.1-0.6-2.2-1-3.3-1.1l-2.8-0.4l0.4-2.4
			c1.4-9.6-3-19.7-10.5-24c-2.1-1.2-4.2-1.9-6.3-2l-3.5-0.2l0.8-2.9c3.1-11.5-1.9-24.9-11.4-30.3c-4.4-2.5-9-3.1-13.1-1.4
			c-4,1.6-7.3,5.3-9.3,10.4c-0.2,0.4-0.3,0.8-0.4,1.2l-1.9,5.7l-5.4-2.4C205.4,22.3,203.8,22,202.2,22z"/>
	</g>
	<g>
		<path class="st12" d="M237.2,58.4c-0.4,1.1,0,2.4,1,3c1,0.5,2.1,0.1,2.5-1c0.4-1.1,0-2.4-1-3C238.7,56.9,237.6,57.3,237.2,58.4z"
			/>
		<path class="st12" d="M231.6,55.2c-0.4,1.1,0,2.4,1,3c1,0.5,2.1,0.1,2.5-1s0-2.4-1-3C233.2,53.7,232.1,54.1,231.6,55.2z"/>
		<path class="st12" d="M226.1,52c-0.4,1.1,0,2.4,1,3c1,0.5,2.1,0.1,2.5-1c0.4-1.1,0-2.4-1-3C227.6,50.5,226.5,50.9,226.1,52z"/>
	</g>
</g>
<g>
	<path class="st0" d="M89.4,158.3l-24.5-14.2c-1.5-0.9-1.3-2.4,0.4-3.4L88.9,127c1.7-1,4.4-1.1,5.9-0.2l24.5,14.2
		c1.5,0.9,1.3,2.4-0.4,3.4L95.2,158C93.5,159,90.9,159.1,89.4,158.3z"/>
	<g>
		<path class="st2" d="M127.5,130.2L127.5,130.2v-10.6l-23.8,0l-8.2-4.7c-1.9-1.1-5.2-1-7.4,0.3l-7.7,4.4l-23.8,0v10.9
			c-0.1,0.7,0.4,1.4,1.3,2l30.7,17.7c1.9,1.1,5.2,1,7.4-0.3l29.6-17.1C126.9,132,127.5,131,127.5,130.2z"/>
		<path class="st2" d="M92.1,114.1c-1.4,0-2.8,0.4-3.9,1l-7.7,4.4l-23.8,0v10.9c-0.1,0.7,0.4,1.4,1.3,2l30.7,17.7
			c0.9,0.5,2.1,0.8,3.4,0.7V114.1z"/>
		<path class="st6" d="M59.4,119.5l-2.7,0v10.9c-0.1,0.7,0.4,1.4,1.3,2l1.4,0.8V119.5z"/>
		<path class="st6" d="M89.2,150.4c1.6,0.7,4,0.7,5.9-0.1v-12.4h-5.9V150.4z"/>
		<path class="st4" d="M88.7,139.3L58,121.5c-1.9-1.1-1.6-3,0.5-4.2l29.6-17.1c2.2-1.3,5.5-1.4,7.4-0.3l30.7,17.7
			c1.9,1.1,1.6,3-0.5,4.2L96,139C93.9,140.2,90.6,140.4,88.7,139.3z"/>
		<path class="st6" d="M89.2,136.1l-25.7-14.9c-1.6-0.9-1.4-2.5,0.4-3.6l24.8-14.3c1.8-1.1,4.6-1.2,6.2-0.3l25.7,14.9
			c1.6,0.9,1.4,2.5-0.4,3.6l-24.8,14.3C93.6,136.9,90.8,137,89.2,136.1z"/>
		<g>
			<path class="st4" d="M116.2,133c0,0.8-0.6,1.8-1.2,2.1c-0.7,0.4-1.2,0.1-1.2-0.7s0.6-1.8,1.2-2.1
				C115.6,131.9,116.2,132.2,116.2,133z"/>
			<path class="st4" d="M120.2,130.7c0,0.8-0.6,1.8-1.2,2.1s-1.2,0.1-1.2-0.7s0.6-1.8,1.2-2.1S120.2,129.9,120.2,130.7z"/>
			<path class="st4" d="M124.2,128.4c0,0.8-0.6,1.8-1.2,2.1c-0.7,0.4-1.2,0.1-1.2-0.7s0.6-1.8,1.2-2.1
				C123.6,127.2,124.2,127.6,124.2,128.4z"/>
		</g>
	</g>
	<g>
		<path class="st2" d="M127.5,113.2L127.5,113.2v-10.6l-23.8,0l-8.2-4.7c-1.9-1.1-5.2-1-7.4,0.3l-7.7,4.4l-23.8,0v10.9
			c-0.1,0.7,0.4,1.4,1.3,2l30.7,17.7c1.9,1.1,5.2,1,7.4-0.3l29.6-17.1C126.9,115.1,127.5,114.1,127.5,113.2z"/>
		<path class="st2" d="M92.1,97.2c-1.4,0-2.8,0.4-3.9,1l-7.7,4.4l-23.8,0v10.9c-0.1,0.7,0.4,1.4,1.3,2l30.7,17.7
			c0.9,0.5,2.1,0.8,3.4,0.7V97.2z"/>
		<path class="st6" d="M59.4,102.6l-2.7,0v10.9c-0.1,0.7,0.4,1.4,1.3,2l1.4,0.8V102.6z"/>
		<path class="st6" d="M89.2,133.4c1.6,0.7,4,0.7,5.9-0.1V121h-5.9V133.4z"/>
		<path class="st4" d="M88.7,122.3L58,104.6c-1.9-1.1-1.6-3,0.5-4.2l29.6-17.1c2.2-1.3,5.5-1.4,7.4-0.3l30.7,17.7
			c1.9,1.1,1.6,3-0.5,4.2L96,122C93.9,123.3,90.6,123.4,88.7,122.3z"/>
		<path class="st6" d="M89.2,119.2l-25.7-14.9c-1.6-0.9-1.4-2.5,0.4-3.6l24.8-14.3c1.8-1.1,4.6-1.2,6.2-0.3l25.7,14.9
			c1.6,0.9,1.4,2.5-0.4,3.6l-24.8,14.3C93.6,120,90.8,120.1,89.2,119.2z"/>
		<g>
			<path class="st4" d="M116.2,116c0,0.8-0.6,1.8-1.2,2.1c-0.7,0.4-1.2,0.1-1.2-0.7c0-0.8,0.6-1.8,1.2-2.1
				C115.6,114.9,116.2,115.2,116.2,116z"/>
			<path class="st4" d="M120.2,113.7c0,0.8-0.6,1.8-1.2,2.1s-1.2,0.1-1.2-0.7c0-0.8,0.6-1.8,1.2-2.1S120.2,112.9,120.2,113.7z"/>
			<path class="st4" d="M124.2,111.4c0,0.8-0.6,1.8-1.2,2.1c-0.7,0.4-1.2,0.1-1.2-0.7s0.6-1.8,1.2-2.1
				C123.6,110.3,124.2,110.6,124.2,111.4z"/>
		</g>
	</g>
	<g>
		<path class="st2" d="M127.5,96.3L127.5,96.3V85.7l-23.8,0L95.5,81c-1.9-1.1-5.2-1-7.4,0.3l-7.7,4.4l-23.8,0v10.9
			c-0.1,0.7,0.4,1.4,1.3,2l30.7,17.7c1.9,1.1,5.2,1,7.4-0.3l29.6-17.1C126.9,98.1,127.5,97.2,127.5,96.3z"/>
		<path class="st2" d="M92.1,80.2c-1.4,0-2.8,0.4-3.9,1l-7.7,4.4l-23.8,0v10.9c-0.1,0.7,0.4,1.4,1.3,2l30.7,17.7
			c0.9,0.5,2.1,0.8,3.4,0.7V80.2z"/>
		<path class="st6" d="M59.4,85.7l-2.7,0v10.9c-0.1,0.7,0.4,1.4,1.3,2l1.4,0.8V85.7z"/>
		<path class="st6" d="M89.2,116.5c1.6,0.7,4,0.7,5.9-0.1v-12.4h-5.9V116.5z"/>
		<path class="st4" d="M88.7,105.4L58,87.7c-1.9-1.1-1.6-3,0.5-4.2l29.6-17.1c2.2-1.3,5.5-1.4,7.4-0.3l30.7,17.7
			c1.9,1.1,1.6,3-0.5,4.2L96,105.1C93.9,106.4,90.6,106.5,88.7,105.4z"/>
		<path class="st5" d="M125.7,85.9L96,103c-2.2,1.3-5.5,1.4-7.4,0.3L58,85.6c-0.4-0.2-0.7-0.5-0.9-0.8c-0.6,1-0.4,2.2,0.9,2.9
			l30.7,17.7c1.9,1.1,5.2,1,7.4-0.3L125.7,88c1.7-1,2.2-2.3,1.5-3.4C126.9,85.1,126.4,85.5,125.7,85.9z"/>
		<g>
			<path class="st4" d="M116.2,99.1c0,0.8-0.6,1.8-1.2,2.1c-0.7,0.4-1.2,0.1-1.2-0.7s0.6-1.8,1.2-2.1
				C115.6,98,116.2,98.3,116.2,99.1z"/>
			<path class="st4" d="M120.2,96.8c0,0.8-0.6,1.8-1.2,2.1c-0.7,0.4-1.2,0.1-1.2-0.7c0-0.8,0.6-1.8,1.2-2.1
				C119.6,95.7,120.2,96,120.2,96.8z"/>
			<path class="st4" d="M124.2,94.5c0,0.8-0.6,1.8-1.2,2.1c-0.7,0.4-1.2,0.1-1.2-0.7c0-0.8,0.6-1.8,1.2-2.1
				C123.6,93.4,124.2,93.7,124.2,94.5z"/>
		</g>
		<g>
			<path class="st6" d="M90.5,94.4l-14.4-8.3c-0.9-0.5-0.8-1.4,0.2-2l13.9-8c1-0.6,2.6-0.7,3.4-0.1l14.4,8.3c0.9,0.5,0.8,1.4-0.2,2
				l-13.9,8C92.9,94.9,91.4,94.9,90.5,94.4z"/>
			<path class="st4" d="M91.9,87.5l-2-1.1c-0.1-0.1-0.1-0.2,0-0.3l1.9-1.1c0.1-0.1,0.4-0.1,0.5,0l2,1.1c0.1,0.1,0.1,0.2,0,0.3
				l-1.9,1.1C92.2,87.5,92,87.6,91.9,87.5z"/>
			<path class="st2" d="M76.1,86.1L76.1,86.1c0.1,0,0.2-0.1,0.2-0.1l13.9-8c1-0.6,2.6-0.7,3.4-0.1l14.3,8.3c0.8-0.6,0.9-1.4,0-1.8
				L93.7,76c-0.9-0.5-2.4-0.4-3.4,0.1l-13.9,8C75.4,84.7,75.3,85.6,76.1,86.1z"/>
		</g>
	</g>
</g>
<g>
	<path class="st0" d="M271.8,281l-24.5-14.2c-1.5-0.9-1.3-2.4,0.4-3.4l23.7-13.7c1.7-1,4.4-1.1,5.9-0.2l24.5,14.2
		c1.5,0.9,1.3,2.4-0.4,3.4l-23.7,13.7C275.9,281.8,273.3,281.9,271.8,281z"/>
	<g>
		<path class="st13" d="M309.9,252.9L309.9,252.9v-10.6l-23.8,0l-8.2-4.7c-1.9-1.1-5.2-1-7.4,0.3l-7.7,4.4l-23.8,0v10.9
			c-0.1,0.7,0.4,1.4,1.3,2l30.7,17.7c1.9,1.1,5.2,1,7.4-0.3l29.6-17.1C309.4,254.7,310,253.8,309.9,252.9z"/>
		<path class="st7" d="M274.5,236.9c-1.4,0-2.8,0.4-3.9,1l-7.7,4.4l-23.8,0v10.9c-0.1,0.7,0.4,1.4,1.3,2l30.7,17.7
			c0.9,0.5,2.1,0.8,3.4,0.7V236.9z"/>
		<path class="st8" d="M241.9,242.3l-2.7,0v10.9c-0.1,0.7,0.4,1.4,1.3,2l1.4,0.8V242.3z"/>
		<path class="st14" d="M271.6,273.1c1.6,0.7,4,0.7,5.9-0.1v-12.4h-5.9V273.1z"/>
		<path class="st10" d="M271.1,262l-30.7-17.7c-1.9-1.1-1.6-3,0.5-4.2l29.6-17.1c2.2-1.3,5.5-1.4,7.4-0.3l30.7,17.7
			c1.9,1.1,1.6,3-0.5,4.2l-29.6,17.1C276.3,263,273,263.1,271.1,262z"/>
		<path class="st11" d="M271.7,258.8L245.9,244c-1.6-0.9-1.4-2.5,0.4-3.6l24.8-14.3c1.8-1.1,4.6-1.2,6.2-0.3l25.7,14.9
			c1.6,0.9,1.4,2.5-0.4,3.6l-24.8,14.3C276,259.6,273.3,259.8,271.7,258.8z"/>
		<g>
			<path class="st12" d="M298.6,255.7c0,0.8-0.6,1.8-1.2,2.1c-0.7,0.4-1.2,0.1-1.2-0.7s0.6-1.8,1.2-2.1
				C298.1,254.6,298.6,254.9,298.6,255.7z"/>
			<path class="st12" d="M302.6,253.4c0,0.8-0.6,1.8-1.2,2.1c-0.7,0.4-1.2,0.1-1.2-0.7c0-0.8,0.6-1.8,1.2-2.1
				C302.1,252.3,302.6,252.6,302.6,253.4z"/>
			<path class="st12" d="M306.6,251.1c0,0.8-0.6,1.8-1.2,2.1c-0.7,0.4-1.2,0.1-1.2-0.7c0-0.8,0.6-1.8,1.2-2.1
				C306,250,306.6,250.3,306.6,251.1z"/>
		</g>
	</g>
	<g>
		<path class="st13" d="M309.9,235.8L309.9,235.8v-10.6l-23.8,0l-8.2-4.7c-1.9-1.1-5.2-1-7.4,0.3l-7.7,4.4l-23.8,0V236
			c-0.1,0.7,0.4,1.4,1.3,2l30.7,17.7c1.9,1.1,5.2,1,7.4-0.3l29.6-17.1C309.4,237.6,310,236.6,309.9,235.8z"/>
		<path class="st7" d="M274.5,219.7c-1.4,0-2.8,0.4-3.9,1l-7.7,4.4l-23.8,0V236c-0.1,0.7,0.4,1.4,1.3,2l30.7,17.7
			c0.9,0.5,2.1,0.8,3.4,0.7V219.7z"/>
		<path class="st8" d="M241.9,225.1l-2.7,0V236c-0.1,0.7,0.4,1.4,1.3,2l1.4,0.8V225.1z"/>
		<path class="st14" d="M271.6,255.9c1.6,0.7,4,0.7,5.9-0.1v-12.4h-5.9V255.9z"/>
		<path class="st10" d="M271.1,244.9l-30.7-17.7c-1.9-1.1-1.6-3,0.5-4.2l29.6-17.1c2.2-1.3,5.5-1.4,7.4-0.3l30.7,17.7
			c1.9,1.1,1.6,3-0.5,4.2l-29.6,17.1C276.3,245.8,273,245.9,271.1,244.9z"/>
		<path class="st11" d="M271.7,241.7l-25.7-14.9c-1.6-0.9-1.4-2.5,0.4-3.6l24.8-14.3c1.8-1.1,4.6-1.2,6.2-0.3l25.7,14.9
			c1.6,0.9,1.4,2.5-0.4,3.6l-24.8,14.3C276,242.5,273.3,242.6,271.7,241.7z"/>
		<g>
			<path class="st12" d="M298.6,238.5c0,0.8-0.6,1.8-1.2,2.1c-0.7,0.4-1.2,0.1-1.2-0.7s0.6-1.8,1.2-2.1
				C298.1,237.4,298.6,237.8,298.6,238.5z"/>
			<path class="st12" d="M302.6,236.2c0,0.8-0.6,1.8-1.2,2.1c-0.7,0.4-1.2,0.1-1.2-0.7c0-0.8,0.6-1.8,1.2-2.1
				C302.1,235.1,302.6,235.5,302.6,236.2z"/>
			<path class="st12" d="M306.6,233.9c0,0.8-0.6,1.8-1.2,2.1c-0.7,0.4-1.2,0.1-1.2-0.7s0.6-1.8,1.2-2.1
				C306,232.8,306.6,233.1,306.6,233.9z"/>
		</g>
	</g>
	<g>
		<path class="st13" d="M309.9,218.6L309.9,218.6V208l-23.8,0l-8.2-4.7c-1.9-1.1-5.2-1-7.4,0.3l-7.7,4.4l-23.8,0v10.9
			c-0.1,0.7,0.4,1.4,1.3,2l30.7,17.7c1.9,1.1,5.2,1,7.4-0.3l29.6-17.1C309.4,220.4,310,219.4,309.9,218.6z"/>
		<path class="st7" d="M274.5,202.5c-1.4,0-2.8,0.4-3.9,1l-7.7,4.4l-23.8,0v10.9c-0.1,0.7,0.4,1.4,1.3,2l30.7,17.7
			c0.9,0.5,2.1,0.8,3.4,0.7V202.5z"/>
		<path class="st8" d="M241.9,207.9l-2.7,0v10.9c-0.1,0.7,0.4,1.4,1.3,2l1.4,0.8V207.9z"/>
		<path class="st14" d="M271.6,238.8c1.6,0.7,4,0.7,5.9-0.1v-12.4h-5.9V238.8z"/>
		<path class="st10" d="M271.1,227.7l-30.7-17.7c-1.9-1.1-1.6-3,0.5-4.2l29.6-17.1c2.2-1.3,5.5-1.4,7.4-0.3l30.7,17.7
			c1.9,1.1,1.6,3-0.5,4.2l-29.6,17.1C276.3,228.6,273,228.8,271.1,227.7z"/>
		<path class="st8" d="M308.1,208.2l-29.6,17.1c-2.2,1.3-5.5,1.4-7.4,0.3l-30.7-17.7c-0.4-0.2-0.7-0.5-0.9-0.8
			c-0.6,1-0.4,2.2,0.9,2.9l30.7,17.7c1.9,1.1,5.2,1,7.4-0.3l29.6-17.1c1.7-1,2.2-2.3,1.5-3.4C309.3,207.3,308.8,207.8,308.1,208.2z"
			/>
		<g>
			<path class="st12" d="M298.6,221.4c0,0.8-0.6,1.8-1.2,2.1c-0.7,0.4-1.2,0.1-1.2-0.7c0-0.8,0.6-1.8,1.2-2.1
				C298.1,220.3,298.6,220.6,298.6,221.4z"/>
			<path class="st12" d="M302.6,219.1c0,0.8-0.6,1.8-1.2,2.1c-0.7,0.4-1.2,0.1-1.2-0.7c0-0.8,0.6-1.8,1.2-2.1
				C302.1,218,302.6,218.3,302.6,219.1z"/>
			<path class="st12" d="M306.6,216.8c0,0.8-0.6,1.8-1.2,2.1c-0.7,0.4-1.2,0.1-1.2-0.7c0-0.8,0.6-1.8,1.2-2.1
				C306,215.6,306.6,216,306.6,216.8z"/>
		</g>
		<g>
			<path class="st11" d="M272.9,217.2l-14.4-8.3c-0.9-0.5-0.8-1.4,0.2-2l13.9-8c1-0.6,2.6-0.7,3.4-0.1l14.4,8.3
				c0.9,0.5,0.8,1.4-0.2,2l-13.9,8C275.4,217.6,273.8,217.7,272.9,217.2z"/>
			<path class="st12" d="M274.3,210.2l-2-1.1c-0.1-0.1-0.1-0.2,0-0.3l1.9-1.1c0.1-0.1,0.4-0.1,0.5,0l2,1.1c0.1,0.1,0.1,0.2,0,0.3
				l-1.9,1.1C274.6,210.3,274.4,210.3,274.3,210.2z"/>
			<path class="st8" d="M258.6,208.9L258.6,208.9c0.1,0,0.2-0.1,0.2-0.1l13.9-8c1-0.6,2.6-0.7,3.4-0.1l14.3,8.3
				c0.8-0.6,0.9-1.4,0-1.8l-14.4-8.3c-0.9-0.5-2.4-0.4-3.4,0.1l-13.9,8C257.8,207.5,257.7,208.4,258.6,208.9z"/>
		</g>
	</g>
	<path class="st11" d="M261.9,247.1l-12.4-7.2c-0.8-0.4-1.4-1.6-1.4-2.7l0,0c0-1,0.6-1.5,1.4-1l12.4,7.2c0.8,0.4,1.4,1.6,1.4,2.7
		l0,0C263.3,247.1,262.7,247.5,261.9,247.1z"/>
	<path class="st8" d="M263.1,246.4l-12.4-7.2c-0.8-0.4-1.4-1.6-1.4-2.7c0-0.2,0-0.3,0.1-0.5c-0.7-0.2-1.2,0.2-1.2,1.1
		c0,1,0.6,2.2,1.4,2.7l12.4,7.2c0.6,0.4,1.2,0.1,1.3-0.6C263.2,246.5,263.1,246.4,263.1,246.4z"/>
</g>
<g>
	<path class="st0" d="M217.4,311.7l-24.5-14.2c-1.5-0.9-1.3-2.4,0.4-3.4l23.7-13.7c1.7-1,4.4-1.1,5.9-0.2l24.5,14.2
		c1.5,0.9,1.3,2.4-0.4,3.4l-23.7,13.7C221.5,312.5,218.9,312.6,217.4,311.7z"/>
	<g>
		<path class="st13" d="M255.5,283.6L255.5,283.6V273l-23.8,0l-8.2-4.7c-1.9-1.1-5.2-1-7.4,0.3l-7.7,4.4l-23.8,0v10.9
			c-0.1,0.7,0.4,1.4,1.3,2l30.7,17.7c1.9,1.1,5.2,1,7.4-0.3l29.6-17.1C255,285.5,255.6,284.5,255.5,283.6z"/>
		<path class="st7" d="M220.1,267.6c-1.4,0-2.8,0.4-3.9,1l-7.7,4.4l-23.8,0v10.9c-0.1,0.7,0.4,1.4,1.3,2l30.7,17.7
			c0.9,0.5,2.1,0.8,3.4,0.7V267.6z"/>
		<path class="st8" d="M187.5,273l-2.7,0v10.9c-0.1,0.7,0.4,1.4,1.3,2l1.4,0.8V273z"/>
		<path class="st14" d="M217.2,303.8c1.6,0.7,4,0.7,5.9-0.1v-12.4h-5.9V303.8z"/>
		<path class="st10" d="M216.7,292.7L186,275c-1.9-1.1-1.6-3,0.5-4.2l29.6-17.1c2.2-1.3,5.5-1.4,7.4-0.3l30.7,17.7
			c1.9,1.1,1.6,3-0.5,4.2l-29.6,17.1C221.9,293.7,218.6,293.8,216.7,292.7z"/>
		<path class="st11" d="M217.3,289.6l-25.7-14.9c-1.6-0.9-1.4-2.5,0.4-3.6l24.8-14.3c1.8-1.1,4.6-1.2,6.2-0.3l25.7,14.9
			c1.6,0.9,1.4,2.5-0.4,3.6l-24.8,14.3C221.6,290.4,218.9,290.5,217.3,289.6z"/>
		<g>
			<path class="st12" d="M244.2,286.4c0,0.8-0.6,1.8-1.2,2.1c-0.7,0.4-1.2,0.1-1.2-0.7c0-0.8,0.6-1.8,1.2-2.1
				C243.7,285.3,244.2,285.6,244.2,286.4z"/>
			<path class="st12" d="M248.2,284.1c0,0.8-0.6,1.8-1.2,2.1c-0.7,0.4-1.2,0.1-1.2-0.7c0-0.8,0.6-1.8,1.2-2.1
				C247.7,283,248.2,283.3,248.2,284.1z"/>
			<path class="st12" d="M252.2,281.8c0,0.8-0.6,1.8-1.2,2.1c-0.7,0.4-1.2,0.1-1.2-0.7s0.6-1.8,1.2-2.1
				C251.6,280.7,252.2,281,252.2,281.8z"/>
		</g>
	</g>
	<g>
		<path class="st13" d="M255.5,266.5L255.5,266.5v-10.6l-23.8,0l-8.2-4.7c-1.9-1.1-5.2-1-7.4,0.3l-7.7,4.4l-23.8,0v10.9
			c-0.1,0.7,0.4,1.4,1.3,2l30.7,17.7c1.9,1.1,5.2,1,7.4-0.3l29.6-17.1C255,268.3,255.6,267.3,255.5,266.5z"/>
		<path class="st7" d="M220.1,250.4c-1.4,0-2.8,0.4-3.9,1l-7.7,4.4l-23.8,0v10.9c-0.1,0.7,0.4,1.4,1.3,2l30.7,17.7
			c0.9,0.5,2.1,0.8,3.4,0.7V250.4z"/>
		<path class="st8" d="M187.5,255.8l-2.7,0v10.9c-0.1,0.7,0.4,1.4,1.3,2l1.4,0.8V255.8z"/>
		<path class="st14" d="M217.2,286.7c1.6,0.7,4,0.7,5.9-0.1v-12.4h-5.9V286.7z"/>
		<path class="st10" d="M216.7,275.6L186,257.8c-1.9-1.1-1.6-3,0.5-4.2l29.6-17.1c2.2-1.3,5.5-1.4,7.4-0.3l30.7,17.7
			c1.9,1.1,1.6,3-0.5,4.2l-29.6,17.1C221.9,276.5,218.6,276.7,216.7,275.6z"/>
		<path class="st11" d="M217.3,272.4l-25.7-14.9c-1.6-0.9-1.4-2.5,0.4-3.6l24.8-14.3c1.8-1.1,4.6-1.2,6.2-0.3l25.7,14.9
			c1.6,0.9,1.4,2.5-0.4,3.6l-24.8,14.3C221.6,273.2,218.9,273.3,217.3,272.4z"/>
		<g>
			<path class="st12" d="M244.2,269.3c0,0.8-0.6,1.8-1.2,2.1c-0.7,0.4-1.2,0.1-1.2-0.7s0.6-1.8,1.2-2.1
				C243.7,268.1,244.2,268.5,244.2,269.3z"/>
			<path class="st12" d="M248.2,267c0,0.8-0.6,1.8-1.2,2.1c-0.7,0.4-1.2,0.1-1.2-0.7c0-0.8,0.6-1.8,1.2-2.1
				C247.7,265.8,248.2,266.2,248.2,267z"/>
			<path class="st12" d="M252.2,264.7c0,0.8-0.6,1.8-1.2,2.1c-0.7,0.4-1.2,0.1-1.2-0.7s0.6-1.8,1.2-2.1
				C251.6,263.5,252.2,263.9,252.2,264.7z"/>
		</g>
	</g>
	<g>
		<path class="st13" d="M255.5,249.3L255.5,249.3v-10.6l-23.8,0l-8.2-4.7c-1.9-1.1-5.2-1-7.4,0.3l-7.7,4.4l-23.8,0v10.9
			c-0.1,0.7,0.4,1.4,1.3,2l30.7,17.7c1.9,1.1,5.2,1,7.4-0.3l29.6-17.1C255,251.1,255.6,250.2,255.5,249.3z"/>
		<path class="st7" d="M220.1,233.2c-1.4,0-2.8,0.4-3.9,1l-7.7,4.4l-23.8,0v10.9c-0.1,0.7,0.4,1.4,1.3,2l30.7,17.7
			c0.9,0.5,2.1,0.8,3.4,0.7V233.2z"/>
		<path class="st8" d="M187.5,238.7l-2.7,0v10.9c-0.1,0.7,0.4,1.4,1.3,2l1.4,0.8V238.7z"/>
		<path class="st14" d="M217.2,269.5c1.6,0.7,4,0.7,5.9-0.1V257h-5.9V269.5z"/>
		<path class="st10" d="M216.7,258.4L186,240.7c-1.9-1.1-1.6-3,0.5-4.2l29.6-17.1c2.2-1.3,5.5-1.4,7.4-0.3l30.7,17.7
			c1.9,1.1,1.6,3-0.5,4.2l-29.6,17.1C221.9,259.3,218.6,259.5,216.7,258.4z"/>
		<path class="st8" d="M253.7,238.9L224.1,256c-2.2,1.3-5.5,1.4-7.4,0.3L186,238.6c-0.4-0.2-0.7-0.5-0.9-0.8c-0.6,1-0.4,2.2,0.9,2.9
			l30.7,17.7c1.9,1.1,5.2,1,7.4-0.3l29.6-17.1c1.7-1,2.2-2.3,1.5-3.4C254.9,238,254.4,238.5,253.7,238.9z"/>
		<g>
			<path class="st12" d="M244.2,252.1c0,0.8-0.6,1.8-1.2,2.1c-0.7,0.4-1.2,0.1-1.2-0.7s0.6-1.8,1.2-2.1
				C243.7,251,244.2,251.3,244.2,252.1z"/>
			<path class="st12" d="M248.2,249.8c0,0.8-0.6,1.8-1.2,2.1c-0.7,0.4-1.2,0.1-1.2-0.7c0-0.8,0.6-1.8,1.2-2.1
				C247.7,248.7,248.2,249,248.2,249.8z"/>
			<path class="st12" d="M252.2,247.5c0,0.8-0.6,1.8-1.2,2.1c-0.7,0.4-1.2,0.1-1.2-0.7s0.6-1.8,1.2-2.1
				C251.6,246.4,252.2,246.7,252.2,247.5z"/>
		</g>
		<g>
			<path class="st12" d="M219.9,240.9l-2-1.1c-0.1-0.1-0.1-0.2,0-0.3l1.9-1.1c0.1-0.1,0.4-0.1,0.5,0l2,1.1c0.1,0.1,0.1,0.2,0,0.3
				l-1.9,1.1C220.3,241,220,241,219.9,240.9z"/>
		</g>
	</g>
	<path class="st11" d="M207.6,277.8l-12.4-7.2c-0.8-0.4-1.4-1.6-1.4-2.7l0,0c0-1,0.6-1.5,1.4-1l12.4,7.2c0.8,0.4,1.4,1.6,1.4,2.7
		l0,0C208.9,277.8,208.3,278.2,207.6,277.8z"/>
	<path class="st8" d="M208.7,277.1l-12.4-7.2c-0.8-0.4-1.4-1.6-1.4-2.7c0-0.2,0-0.3,0.1-0.5c-0.7-0.2-1.2,0.2-1.2,1.1
		c0,1,0.6,2.2,1.4,2.7l12.4,7.2c0.6,0.4,1.2,0.1,1.3-0.6C208.8,277.2,208.7,277.2,208.7,277.1z"/>
</g>
<g>
	<g>
		<g>
			<path class="st1" d="M206.4,284.9c0,0-3-1.5-4.9,0.7c-1.9,2.3-4.5,7.7-4.6,11.3c-0.1,3.6,2.9,3.4,4.6,2.5
				c1.8-0.9,6.9-8.3,7.2-9.8c0.3-1.5-0.4-3.4-0.9-3.8C207.3,285.5,206.4,284.9,206.4,284.9z"/>
			<path class="st15" d="M207,284.2l0.1,3.1c0,0.7-0.3,1.3-0.9,1.6c-0.5,0.3-1.3,0.5-2.3,0.4c-2.3-0.4-2.5-1-2.7-4.2
				C201.1,282,207,284.2,207,284.2z"/>
			<g>
				<path class="st1" d="M195.3,278.8c0,0-3-1.5-4.9,0.7c-1.9,2.3-4.5,7.7-4.6,11.3c-0.1,3.6,2.9,3.4,4.6,2.5
					c1.8-0.9,6.9-8.3,7.2-9.8c0.3-1.5-0.4-3.4-0.9-3.8C196.2,279.4,195.3,278.8,195.3,278.8z"/>
				<path class="st15" d="M195.9,278.1l0.1,3.1c0,0.7-0.3,1.3-0.9,1.6c-0.5,0.3-1.3,0.5-2.3,0.4c-2.3-0.4-2.5-1-2.7-4.2
					C190,276,195.9,278.1,195.9,278.1z"/>
				<path class="st16" d="M223,220.4c-0.9-14.6-15.8,2.1-15.8,2.1l-10.2,10l-9.2,10.1c-1.8,2-2.6,4.6-2.3,7.3l3.7,28.3
					c0.2,1.4,1.4,2.4,2.8,2.4c0.4,0,0.9,0,1.4-0.1c3.3-0.5,3.1-3.7,3.1-3.7l-0.7-26.5l19.3-11.6C215.1,238.8,223.9,235,223,220.4z"
					/>
			</g>
			<path class="st16" d="M234.1,226c-0.9-14.6-15.8,2.1-15.8,2.1l-10.2,10l-9.2,10.1c-1.8,2-2.6,4.6-2.3,7.3l3.7,28.3
				c0.2,1.4,1.4,2.4,2.8,2.4c0.4,0,0.9,0,1.4-0.1c3.3-0.5,3.1-3.7,3.1-3.7l-0.7-26.5l19.3-11.6C226.2,244.4,235,240.6,234.1,226z"/>
			<path class="st7" d="M225.2,179.1c11.3,4.7,11.1,11.4,11.1,11.4s-2.2,24.5-1.5,40.9c0.3,6.8-36.4,7.4-30.9-10.9
				c6.4-21.5,4-38.9,7-41.6C214.1,176.3,222.3,177.9,225.2,179.1z"/>
			<path class="st17" d="M228.9,185.1c-0.6,2.3-3.6,3.5-6.7,2.7c-3.1-0.8-5.2-3.3-4.6-5.6c0.6-2.3,3.6-3.5,6.7-2.7
				C227.4,180.3,229.5,182.8,228.9,185.1z"/>
			<path class="st5" d="M224.1,188.6c-0.7,0-1.4-0.1-2.1-0.3c-3.4-0.9-5.6-3.7-5-6.3c0.7-2.6,4-4,7.4-3.1c1.6,0.4,3,1.3,4,2.4
				c1,1.2,1.3,2.6,1,3.8c-0.3,1.3-1.3,2.3-2.7,2.9C225.9,188.4,225,188.6,224.1,188.6z M222.4,179.7c-2.1,0-3.9,1-4.3,2.5
				c-0.5,2,1.4,4.2,4.2,5c1.4,0.4,2.8,0.3,4-0.2c1.1-0.4,1.8-1.2,2.1-2.1l0,0c0.2-0.9,0-2-0.8-2.9c-0.8-1-2-1.7-3.4-2.1
				C223.6,179.8,223,179.7,222.4,179.7z"/>
			<path class="st17" d="M220.7,178.6c0,0,0.1,0.5-0.1,4c-0.1,1.1,3.9,2.2,4.9,1.2c1-1,0.6-2.1,0.9-5.9
				C226.6,174.1,220.7,178.6,220.7,178.6z"/>
			<path class="st18" d="M226.4,177.9c0,0-1,3.6-5.8,4.9l0.1-3.2L226.4,177.9z"/>
			<path class="st17" d="M229.4,168.9c1.2,4.7-1.6,9.4-6.2,10.6c-4.7,1.2-9.4-1.6-10.6-6.2s1.6-9.4,6.2-10.6
				C223.5,161.4,228.2,164.2,229.4,168.9z"/>
			<path class="st18" d="M223,171.4c0,0-4.8,2.1-8.1,2.1c-3.3,0-2.6-2.8-2.6-2.8l9.9-1.4L223,171.4z"/>
			<path class="st12" d="M213.9,171.9c0,0,4.2-1.8,7.8-1c0.9,0.2,1.7,0.6,2.2,1.3c0.2,0.2,0.4,0.4,0.7,0.5c0.6,0.1,1.7-2.5,3-2.6
				c1.3-0.1,2.1,0.8,1.1,2.5c-1,1.7-0.7,3.5-0.2,3.8s5.5-3.6,1.1-12.4c-4.5-8.8-15.8-4.1-17.5-2.3c0,0-1.9,1.6-3.4,0.2
				C208.6,161.8,206.9,174.5,213.9,171.9z"/>
			<path class="st17" d="M230,208.4v6.6c0,0.8-0.3,1.5-0.9,2l-13.6,12.4l1.5,2.4l18-13c0.8-0.6,1.4-1.5,1.5-2.6l1.2-11.5L230,208.4z
				"/>
			<path class="st7" d="M235.4,187.2c0,0,4.1,6.2,5.7,22.5c0,0-7,2.3-11.1,1C226,209.4,235.4,187.2,235.4,187.2z"/>
			<path class="st11" d="M229.2,195c0,0-1.6,8.6-1.7,12.7c0,1.1,0.7,2.1,1.7,2.5l0,0V195z"/>
		</g>
		<g>
			<path class="st1" d="M225.7,238l-3-0.4l-19.4-11.2c-0.6-0.4-1.7-0.3-2.4,0.1l-13.8,7.9l-1.8-0.2v1.8l0,0c0,0.2,0.1,0.5,0.4,0.6
				l22,12.7c0.6,0.4,1.7,0.3,2.4-0.1l15-8.6c0.4-0.2,0.6-0.5,0.6-0.8l0,0V238z"/>
			<path class="st2" d="M211.1,231l-1.4-0.8h-15.2l-7.5,4.3l-1.8-0.2v1.8l0,0c0,0.2,0.1,0.5,0.4,0.6l22,12.7
				c0.3,0.2,0.8,0.3,1.3,0.2L211.1,231z"/>
			<path class="st6" d="M186.1,234.3l-0.8-0.1v1.8l0,0c0,0.2,0.1,0.5,0.4,0.6l0.4,0.2V234.3z"/>
			<path class="st3" d="M207.9,249.5c0.6,0.2,1.4,0.2,2.1-0.1v-3.1h-2.1V249.5z"/>
			<path class="st5" d="M207.7,247.6l-22-12.7c-0.6-0.4-0.5-1,0.2-1.4l15-8.6c0.7-0.4,1.8-0.5,2.4-0.1l22,12.7
				c0.6,0.4,0.5,1-0.2,1.4l-15,8.6C209.4,247.9,208.3,247.9,207.7,247.6z"/>
			<path class="st4" d="M207.3,245.6L189,235.1c-0.5-0.3-0.5-0.8,0.1-1.2l8-4.5c0.6-0.3,1.5-0.4,2-0.1l18.3,10.6
				c0.5,0.3,0.5,0.8-0.1,1.2l-8,4.5C208.8,245.9,207.8,245.9,207.3,245.6z"/>
		</g>
		<path class="st17" d="M201.7,224.4l-0.2,1.5c-0.2,1.3-0.2,2.6,0.1,3.9l0.3,1.3c0.2,0.8,0.7,1.3,1.5,1.5l0,0
			c0.6,0.1,1.1-0.3,1.2-0.9l0.4-3.2c0,0,0.8,1.1,1.2,1.1s-0.4-3.2-1.4-5.1C203.9,222.6,201.7,224.4,201.7,224.4z"/>
		<path class="st17" d="M209.2,200.3l-2.4,4.7c-0.6,1.1-0.9,2.3-1,3.5l-1,16l-3.1-0.1l-1.4-17.9c0-0.6,0-1.1,0.1-1.7l1.6-9.1
			L209.2,200.3z"/>
		<g>
			<path class="st1" d="M207,248.8l-1.8-2.4l-19.4-11.2c-0.6-0.4-1.1-1.3-1.1-2.2l0-15.9l-1.1-1.5l1-0.6l0,0c0.2-0.1,0.5-0.1,0.8,0
				l22,12.7c0.6,0.4,1.1,1.3,1.1,2.2l0,17.3c0,0.5-0.2,0.8-0.4,0.9l0,0L207,248.8z"/>
			<path class="st2" d="M193.5,239.7l-1.4-0.8l-7.6-13.1l0-8.6l-1.1-1.5l1-0.6l0,0c0.2-0.1,0.5-0.1,0.8,0l22,12.7
				c0.3,0.2,0.6,0.5,0.8,1L193.5,239.7z"/>
			<path class="st6" d="M184,216.3l-0.5-0.6l1-0.6l0,0c0.2-0.1,0.5-0.1,0.8,0l0.4,0.2L184,216.3z"/>
			<path class="st3" d="M207.5,228c0.5,0.4,0.9,1.2,0.9,1.9l-2.1,1.2l-1-1.8L207.5,228z"/>
			<path class="st5" d="M206.2,228.4l-22-12.7c-0.6-0.4-1.1,0-1.1,0.9l0,17.3c0,0.8,0.5,1.8,1.1,2.2l22,12.7c0.6,0.4,1.1,0,1.1-0.9
				l0-17.3C207.4,229.8,206.9,228.8,206.2,228.4z"/>
		</g>
		<path class="st17" d="M217,231.8l-0.4,0.7c-0.4,0.8-1,1.5-1.8,2l-2.2,1.3c-0.7,0.4-1.5,0.5-2.2,0.1c0,0,0,0-0.1,0
			c-0.7-0.4-0.8-1.4-0.2-2l2.3-2.3c0,0-1.3,1-1.6,0.6c-0.3-0.3,1.2-1.7,2.4-1.8c1.2,0,2.3-1,2.3-1L217,231.8z"/>
		<path class="st7" d="M211.3,178.9c0,0-8.4,9.1-11.7,17.4c0,0,2.9,5.2,9.9,7.2C216.4,205.5,211.3,178.9,211.3,178.9z"/>
		<path class="st11" d="M207.8,203l1.4-13.1l-3.2,12.3C206.5,202.4,207.2,202.7,207.8,203z"/>
		<path class="st5" d="M217.5,177.1l-2.2-0.6c0,0,1.1,1.7,2.6,2.1c1.6,0.4,1.8-0.9,1.8-0.9L217.5,177.1z"/>
	</g>
</g>
<g>
	<path class="st0" d="M39.3,251.6c-6,3.5-15.8,3.5-21.9,0c-6-3.5-6-9.1,0-12.6s15.8-3.5,21.9,0C45.3,242.5,45.3,248.1,39.3,251.6z"
		/>
	<ellipse class="st0" cx="119.6" cy="297.1" rx="15.5" ry="8.9"/>
	<g>
		<path class="st11" d="M18.6,124.4c0,0,0.4,9.2,1.1,15.3c0.7,6.2,15.5-4.7,15.5-4.7v-7L18.6,124.4z"/>
		<g>
			<path class="st1" d="M26.5,238.4c0.2,0.6,4.1,5.2,7.9,6.4c1.7,0.5,2.8,0.6,3.5,0.5c0.7-0.1,1.2-0.8,0.9-1.5
				c-0.7-1.9-2.6-5.7-7.4-8.1C25,232.3,26.5,238.4,26.5,238.4z"/>
			<path class="st1" d="M25.2,240.2c0,0,1.4,3.4,1.9,6.2c0.3,1.7-0.7,4-1.5,5.5c-0.5,0.9-1.7,1.1-2.5,0.4c-1.3-1.1-2.9-3.1-3.1-6
				c-0.4-4.8,0-5.6,0-5.6L25.2,240.2z"/>
			<path class="st16" d="M16,182.3c0,0-0.5,6,0,12.7c0.5,6.7,2.3,37.9,2.6,45.4c0,0-0.2,2.3,4.2,1.8c4.4-0.5,4-3,4-3
				s6.2-0.1,6.4-3.7c0.2-3.6,6.3-43.5,6.3-57.9L16,182.3z"/>
			<g>
				<polygon class="st17" points="37.5,151.2 41,173 44.3,172.9 44,152.9 				"/>
				<path class="st10" d="M36,131.8c0,0,4.8-0.1,6.5,6.8c1.7,7,3,15.7,1.5,16.4c-4.4,2.2-7.1-0.4-7.1-0.4L36,131.8z"/>
				<path class="st7" d="M37.4,132.1c-0.8-0.3-1.7-0.4-2.6-0.1c-4.1,1.2-19.5,5.7-22.1,7.9c-2.9,2.5,4.4,16.6,4.3,21.2
					c-0.1,4.6-0.6,10.1-1,15.1c-0.4,5-1,7.8,3.1,9.9c4.1,2.1,11.1,2.2,16.4-1.8c5.3-4,4.3-6.7,4.1-9.6s-2-15.5-1.9-19
					c0,0,1.9-1.4,3.2-3.7c1.4-2.3-1.1-6.6-2.1-9.4s0.6-6,0.3-8.3C39,133.1,38.3,132.5,37.4,132.1z"/>
				
					<ellipse transform="matrix(0.9919 -0.1271 0.1271 0.9919 -17.2786 4.5075)" class="st5" cx="26.7" cy="137.7" rx="5.8" ry="4.6"/>
				<path class="st17" d="M30.8,137.2c0.2,1.8-1.4,3.5-3.7,3.8c-2.3,0.3-4.3-0.9-4.6-2.8c-0.2-1.8,1.4-3.5,3.7-3.8
					C28.6,134.1,30.6,135.3,30.8,137.2z"/>
				<path class="st17" d="M28.6,131.2c0,0-2.8-2.3-3.3-1.1c-0.5,1.2-1,6.1-1,6.1l5.5,1.5l-0.8-5C28.9,132.6,30,131.7,28.6,131.2z"/>
				
					<ellipse transform="matrix(0.6245 -0.7811 0.7811 0.6245 -86.956 69.6544)" class="st17" cx="29" cy="125.3" rx="8.3" ry="8.3"/>
				<path class="st18" d="M24.8,131.5c0,0.3-0.1,0.5-0.1,0.8c0.6,2.9,4.9,4.1,4.9,4.1l-0.6-3.8c0,0,0.5-0.4,0.4-0.9
					C27.6,131.2,25.5,130.7,24.8,131.5z"/>
				
					<ellipse transform="matrix(0.6245 -0.7811 0.7811 0.6245 -86.956 69.6544)" class="st17" cx="29" cy="125.3" rx="8.3" ry="8.3"/>
				<polygon class="st17" points="8.6,160.2 9.6,182.3 12.8,182.6 14.9,162.7 				"/>
				<path class="st10" d="M19.2,158.3c-1.1-4.7-3.2-15.1-3.2-15.1l-0.9,10.4c1,3.1,1.9,5.9,1.9,7.5c-0.1,2.7-0.3,5.7-0.5,8.7l0,0
					C16.5,169.8,20.3,163.1,19.2,158.3z"/>
				<path class="st8" d="M13.4,139.4c0,0-2.6,1-4,8.9c-1.5,7.9-2.6,15.9,0.1,16.9c2.6,1,4.8,1.8,5.5-0.3c0.8-2.1,1.2-12.3,1.3-16
					S16.5,140.1,13.4,139.4z"/>
			</g>
			<path class="st19" d="M26.9,239.2c0,0,0.8,0,1.8-0.2l0,0l1.2-48.5L26.9,239.2z"/>
		</g>
		<g>
			<path class="st7" d="M22.2,213l-1.7-2.2L2.4,200.3c-0.6-0.3-1-1.2-1-2l0-14.8l-1-1.4l1-0.6l0,0c0.2-0.1,0.4-0.1,0.7,0l20.5,11.9
				c0.6,0.3,1,1.2,1,2l0,16.1c0,0.4-0.1,0.7-0.4,0.9v0L22.2,213z"/>
			<path class="st20" d="M9.7,204.5l-1.3-0.7l-7-12.2l0-8l-1-1.4l1-0.6l0,0c0.2-0.1,0.4-0.1,0.7,0l20.5,11.9
				c0.3,0.2,0.6,0.5,0.8,0.9L9.7,204.5z"/>
			<path class="st20" d="M0.8,182.7l-0.5-0.6l1-0.6l0,0c0.2-0.1,0.4-0.1,0.7,0l0.4,0.2L0.8,182.7z"/>
			<path class="st7" d="M22.7,193.6c0.5,0.4,0.8,1.1,0.9,1.7l-2,1.2l-1-1.7L22.7,193.6z"/>
			<path class="st8" d="M21.5,194L1.1,182.2c-0.6-0.3-1,0-1.1,0.8l0,16.1c0,0.8,0.5,1.7,1,2l20.5,11.9c0.6,0.3,1,0,1.1-0.8l0-16.1
				C22.6,195.2,22.1,194.3,21.5,194z"/>
		</g>
		<path class="st17" d="M9.6,182.1c0,0-0.9,5.2-0.7,6.8c0.1,1.7,1,4.4,1.7,4.3c0.7-0.1,0-6.6,1.2-6c1.2,0.7,1.3,1.8,1.8,1.4
			c0.5-0.4-0.9-6-0.5-8.5C13.4,177.7,9.6,182.1,9.6,182.1z"/>
		<path class="st17" d="M44.3,172.9c0,0,0.9,5.2,0.7,6.8c-0.1,1.7-1,4.4-1.7,4.3c-0.7-0.1,0-6.6-1.2-6s-1.3,1.8-1.8,1.4
			c-0.5-0.4,0.9-6,0.5-8.5C40.4,168.5,44.3,172.9,44.3,172.9z"/>
		<path class="st18" d="M32.1,126c4.1,1.5,4.9,0.6,5,0.5c0-0.2,0.1-0.5,0.1-0.8c0.1-0.9,0-1.8-0.3-2.6l-10.7-1.4
			C26.2,121.7,27.9,124.5,32.1,126z"/>
		<path class="st11" d="M37.5,117.5c-1-0.8-4.5-5-10.8-4c-3.9,0.6-7.3,3.3-8,9.4c-0.5,4.1,1,8.2,3.8,11.2c0.2-0.1,0.3-0.1,0.4-0.2
			c1.6-1,1.7-1.6,1.7-1.6l0.3-3.1c0-0.4-0.3-0.8-0.8-0.9c-0.3,0-0.8-0.2-1.2-0.7c-0.9-1.2-0.5-3,1.3-3.1c0.9,0,1.3-0.5,1.4-1
			c0.1-0.4,0.6-0.7,1-0.5c2.1,0.7,7.1,2.4,10.4,1.4C41.4,123.2,38.5,118.4,37.5,117.5z"/>
		<path class="st5" d="M32.8,129.7l2.5-0.7c0,0-1.2,1.9-3,2.4c-1.8,0.5-2-1-2-1L32.8,129.7z"/>
		<polygon class="st20" points="13.9,188.4 11.7,187.2 12.5,188.5 13.6,188.9 		"/>
	</g>
</g>
<g>
	<path class="st0" d="M71.7,288.5l-24.5-14.2c-1.5-0.9-1.3-2.4,0.4-3.4l23.7-13.7c1.7-1,4.4-1.1,5.9-0.2l24.5,14.2
		c1.5,0.9,1.3,2.4-0.4,3.4l-23.7,13.7C75.8,289.2,73.2,289.3,71.7,288.5z"/>
	<g>
		<path class="st2" d="M109.8,260.4L109.8,260.4v-10.6l-23.8,0l-8.2-4.7c-1.9-1.1-5.2-1-7.4,0.3l-7.7,4.4l-23.8,0v10.9
			c-0.1,0.7,0.4,1.4,1.3,2L71,280.3c1.9,1.1,5.2,1,7.4-0.3l29.6-17.1C109.2,262.2,109.9,261.3,109.8,260.4z"/>
		<path class="st2" d="M74.4,244.3c-1.4,0-2.8,0.4-3.9,1l-7.7,4.4l-23.8,0v10.9c-0.1,0.7,0.4,1.4,1.3,2L71,280.3
			c0.9,0.5,2.1,0.8,3.4,0.7V244.3z"/>
		<path class="st6" d="M41.7,249.8l-2.7,0v10.9c-0.1,0.7,0.4,1.4,1.3,2l1.4,0.8V249.8z"/>
		<path class="st6" d="M71.5,280.6c1.6,0.7,4,0.7,5.9-0.1v-12.4h-5.9V280.6z"/>
		<path class="st4" d="M71,269.5l-30.7-17.7c-1.9-1.1-1.6-3,0.5-4.2l29.6-17.1c2.2-1.3,5.5-1.4,7.4-0.3l30.7,17.7
			c1.9,1.1,1.6,3-0.5,4.2l-29.6,17.1C76.2,270.4,72.9,270.6,71,269.5z"/>
		<path class="st6" d="M71.5,266.3l-25.7-14.9c-1.6-0.9-1.4-2.5,0.4-3.6l24.8-14.3c1.8-1.1,4.6-1.2,6.2-0.3l25.7,14.9
			c1.6,0.9,1.4,2.5-0.4,3.6L77.7,266C75.9,267.1,73.1,267.2,71.5,266.3z"/>
		<g>
			<path class="st4" d="M98.5,263.2c0,0.8-0.6,1.8-1.2,2.1c-0.7,0.4-1.2,0.1-1.2-0.7c0-0.8,0.6-1.8,1.2-2.1
				C97.9,262.1,98.5,262.4,98.5,263.2z"/>
			<path class="st4" d="M102.5,260.9c0,0.8-0.6,1.8-1.2,2.1c-0.7,0.4-1.2,0.1-1.2-0.7s0.6-1.8,1.2-2.1
				C101.9,259.8,102.5,260.1,102.5,260.9z"/>
			<path class="st4" d="M106.5,258.6c0,0.8-0.6,1.8-1.2,2.1c-0.7,0.4-1.2,0.1-1.2-0.7s0.6-1.8,1.2-2.1
				C105.9,257.5,106.5,257.8,106.5,258.6z"/>
		</g>
	</g>
	<g>
		<path class="st2" d="M109.8,243.5L109.8,243.5v-10.6l-23.8,0l-8.2-4.7c-1.9-1.1-5.2-1-7.4,0.3l-7.7,4.4l-23.8,0v10.9
			c-0.1,0.7,0.4,1.4,1.3,2L71,263.4c1.9,1.1,5.2,1,7.4-0.3L108,246C109.2,245.3,109.9,244.3,109.8,243.5z"/>
		<path class="st2" d="M74.4,227.4c-1.4,0-2.8,0.4-3.9,1l-7.7,4.4l-23.8,0v10.9c-0.1,0.7,0.4,1.4,1.3,2L71,263.4
			c0.9,0.5,2.1,0.8,3.4,0.7V227.4z"/>
		<path class="st6" d="M41.7,232.8l-2.7,0v10.9c-0.1,0.7,0.4,1.4,1.3,2l1.4,0.8V232.8z"/>
		<path class="st6" d="M71.5,263.6c1.6,0.7,4,0.7,5.9-0.1v-12.4h-5.9V263.6z"/>
		<path class="st4" d="M71,252.6l-30.7-17.7c-1.9-1.1-1.6-3,0.5-4.2l29.6-17.1c2.2-1.3,5.5-1.4,7.4-0.3l30.7,17.7
			c1.9,1.1,1.6,3-0.5,4.2l-29.6,17.1C76.2,253.5,72.9,253.6,71,252.6z"/>
		<path class="st6" d="M71.5,249.4l-25.7-14.9c-1.6-0.9-1.4-2.5,0.4-3.6l24.8-14.3c1.8-1.1,4.6-1.2,6.2-0.3l25.7,14.9
			c1.6,0.9,1.4,2.5-0.4,3.6l-24.8,14.3C75.9,250.2,73.1,250.3,71.5,249.4z"/>
		<g>
			<path class="st4" d="M98.5,246.3c0,0.8-0.6,1.8-1.2,2.1c-0.7,0.4-1.2,0.1-1.2-0.7c0-0.8,0.6-1.8,1.2-2.1
				C97.9,245.1,98.5,245.5,98.5,246.3z"/>
			<path class="st4" d="M102.5,243.9c0,0.8-0.6,1.8-1.2,2.1c-0.7,0.4-1.2,0.1-1.2-0.7c0-0.8,0.6-1.8,1.2-2.1
				C101.9,242.8,102.5,243.2,102.5,243.9z"/>
			<path class="st4" d="M106.5,241.6c0,0.8-0.6,1.8-1.2,2.1c-0.7,0.4-1.2,0.1-1.2-0.7s0.6-1.8,1.2-2.1
				C105.9,240.5,106.5,240.9,106.5,241.6z"/>
		</g>
	</g>
	<g>
		<path class="st2" d="M109.8,226.5L109.8,226.5v-10.6l-23.8,0l-8.2-4.7c-1.9-1.1-5.2-1-7.4,0.3l-7.7,4.4l-23.8,0v10.9
			c-0.1,0.7,0.4,1.4,1.3,2L71,246.5c1.9,1.1,5.2,1,7.4-0.3l29.6-17.1C109.2,228.3,109.9,227.4,109.8,226.5z"/>
		<path class="st2" d="M74.4,210.5c-1.4,0-2.8,0.4-3.9,1l-7.7,4.4l-23.8,0v10.9c-0.1,0.7,0.4,1.4,1.3,2L71,246.5
			c0.9,0.5,2.1,0.8,3.4,0.7V210.5z"/>
		<path class="st6" d="M41.7,215.9l-2.7,0v10.9c-0.1,0.7,0.4,1.4,1.3,2l1.4,0.8V215.9z"/>
		<path class="st6" d="M71.5,246.7c1.6,0.7,4,0.7,5.9-0.1v-12.4h-5.9V246.7z"/>
		<path class="st4" d="M71,235.6l-30.7-17.7c-1.9-1.1-1.6-3,0.5-4.2l29.6-17.1c2.2-1.3,5.5-1.4,7.4-0.3l30.7,17.7
			c1.9,1.1,1.6,3-0.5,4.2l-29.6,17.1C76.2,236.6,72.9,236.7,71,235.6z"/>
		<path class="st6" d="M71.5,232.4l-25.7-14.9c-1.6-0.9-1.4-2.5,0.4-3.6l24.8-14.3c1.8-1.1,4.6-1.2,6.2-0.3l25.7,14.9
			c1.6,0.9,1.4,2.5-0.4,3.6l-24.8,14.3C75.9,233.2,73.1,233.3,71.5,232.4z"/>
		<g>
			<path class="st4" d="M98.5,229.3c0,0.8-0.6,1.8-1.2,2.1c-0.7,0.4-1.2,0.1-1.2-0.7s0.6-1.8,1.2-2.1
				C97.9,228.2,98.5,228.5,98.5,229.3z"/>
			<path class="st4" d="M102.5,227c0,0.8-0.6,1.8-1.2,2.1c-0.7,0.4-1.2,0.1-1.2-0.7s0.6-1.8,1.2-2.1
				C101.9,225.9,102.5,226.2,102.5,227z"/>
			<path class="st4" d="M106.5,224.7c0,0.8-0.6,1.8-1.2,2.1c-0.7,0.4-1.2,0.1-1.2-0.7s0.6-1.8,1.2-2.1
				C105.9,223.6,106.5,223.9,106.5,224.7z"/>
		</g>
	</g>
	<g>
		<path class="st2" d="M109.8,209.6L109.8,209.6V199L86,199l-8.2-4.7c-1.9-1.1-5.2-1-7.4,0.3l-7.7,4.4L39,199v10.9
			c-0.1,0.7,0.4,1.4,1.3,2L71,229.6c1.9,1.1,5.2,1,7.4-0.3l29.6-17.1C109.2,211.4,109.9,210.5,109.8,209.6z"/>
		<path class="st2" d="M74.4,193.5c-1.4,0-2.8,0.4-3.9,1l-7.7,4.4L39,199v10.9c-0.1,0.7,0.4,1.4,1.3,2L71,229.6
			c0.9,0.5,2.1,0.8,3.4,0.7V193.5z"/>
		<path class="st6" d="M41.7,199l-2.7,0v10.9c-0.1,0.7,0.4,1.4,1.3,2l1.4,0.8V199z"/>
		<path class="st6" d="M71.5,229.8c1.6,0.7,4,0.7,5.9-0.1v-12.4h-5.9V229.8z"/>
		<path class="st4" d="M71,218.7L40.3,201c-1.9-1.1-1.6-3,0.5-4.2l29.6-17.1c2.2-1.3,5.5-1.4,7.4-0.3l30.7,17.7
			c1.9,1.1,1.6,3-0.5,4.2l-29.6,17.1C76.2,219.7,72.9,219.8,71,218.7z"/>
		<path class="st6" d="M71.5,215.5l-25.7-14.9c-1.6-0.9-1.4-2.5,0.4-3.6l24.8-14.3c1.8-1.1,4.6-1.2,6.2-0.3l25.7,14.9
			c1.6,0.9,1.4,2.5-0.4,3.6l-24.8,14.3C75.9,216.3,73.1,216.4,71.5,215.5z"/>
		<g>
			<path class="st4" d="M98.5,212.4c0,0.8-0.6,1.8-1.2,2.1c-0.7,0.4-1.2,0.1-1.2-0.7s0.6-1.8,1.2-2.1
				C97.9,211.3,98.5,211.6,98.5,212.4z"/>
			<path class="st4" d="M102.5,210.1c0,0.8-0.6,1.8-1.2,2.1c-0.7,0.4-1.2,0.1-1.2-0.7s0.6-1.8,1.2-2.1
				C101.9,209,102.5,209.3,102.5,210.1z"/>
			<path class="st4" d="M106.5,207.8c0,0.8-0.6,1.8-1.2,2.1c-0.7,0.4-1.2,0.1-1.2-0.7c0-0.8,0.6-1.8,1.2-2.1
				C105.9,206.7,106.5,207,106.5,207.8z"/>
		</g>
	</g>
	<g>
		<path class="st2" d="M109.8,192.7L109.8,192.7v-10.6l-23.8,0l-8.2-4.7c-1.9-1.1-5.2-1-7.4,0.3l-7.7,4.4L39,182v10.9
			c-0.1,0.7,0.4,1.4,1.3,2L71,212.6c1.9,1.1,5.2,1,7.4-0.3l29.6-17.1C109.2,194.5,109.9,193.5,109.8,192.7z"/>
		<path class="st2" d="M74.4,176.6c-1.4,0-2.8,0.4-3.9,1l-7.7,4.4L39,182v10.9c-0.1,0.7,0.4,1.4,1.3,2L71,212.6
			c0.9,0.5,2.1,0.8,3.4,0.7V176.6z"/>
		<path class="st6" d="M41.7,182l-2.7,0v10.9c-0.1,0.7,0.4,1.4,1.3,2l1.4,0.8V182z"/>
		<path class="st6" d="M71.5,212.9c1.6,0.7,4,0.7,5.9-0.1v-12.4h-5.9V212.9z"/>
		<path class="st4" d="M71,201.8L40.3,184c-1.9-1.1-1.6-3,0.5-4.2l29.6-17.1c2.2-1.3,5.5-1.4,7.4-0.3l30.7,17.7
			c1.9,1.1,1.6,3-0.5,4.2l-29.6,17.1C76.2,202.7,72.9,202.9,71,201.8z"/>
		<path class="st6" d="M71.5,198.6l-25.7-14.9c-1.6-0.9-1.4-2.5,0.4-3.6l24.8-14.3c1.8-1.1,4.6-1.2,6.2-0.3l25.7,14.9
			c1.6,0.9,1.4,2.5-0.4,3.6l-24.8,14.3C75.9,199.4,73.1,199.5,71.5,198.6z"/>
		<g>
			
				<rect x="84.1" y="199.6" transform="matrix(0.8663 -0.4995 0.4995 0.8663 -87.6416 72.2668)" class="st5" width="14.2" height="0.5"/>
			<path class="st4" d="M98.5,195.5c0,0.8-0.6,1.8-1.2,2.1c-0.7,0.4-1.2,0.1-1.2-0.7s0.6-1.8,1.2-2.1
				C97.9,194.4,98.5,194.7,98.5,195.5z"/>
			<path class="st4" d="M102.5,193.2c0,0.8-0.6,1.8-1.2,2.1c-0.7,0.4-1.2,0.1-1.2-0.7c0-0.8,0.6-1.8,1.2-2.1
				C101.9,192,102.5,192.4,102.5,193.2z"/>
			<path class="st4" d="M106.5,190.9c0,0.8-0.6,1.8-1.2,2.1c-0.7,0.4-1.2,0.1-1.2-0.7s0.6-1.8,1.2-2.1
				C105.9,189.7,106.5,190.1,106.5,190.9z"/>
		</g>
	</g>
	<g>
		<path class="st2" d="M109.8,175.6L109.8,175.6V165L86,165l-8.2-4.7c-1.9-1.1-5.2-1-7.4,0.3l-7.7,4.4L39,165v10.9
			c-0.1,0.7,0.4,1.4,1.3,2L71,195.6c1.9,1.1,5.2,1,7.4-0.3l29.6-17.1C109.2,177.4,109.9,176.5,109.8,175.6z"/>
		<path class="st2" d="M74.4,159.5c-1.4,0-2.8,0.4-3.9,1l-7.7,4.4L39,165v10.9c-0.1,0.7,0.4,1.4,1.3,2L71,195.6
			c0.9,0.5,2.1,0.8,3.4,0.7V159.5z"/>
		<path class="st6" d="M41.7,165l-2.7,0v10.9c-0.1,0.7,0.4,1.4,1.3,2l1.4,0.8V165z"/>
		<path class="st6" d="M71.5,195.8c1.6,0.7,4,0.7,5.9-0.1v-12.4h-5.9V195.8z"/>
		<path class="st4" d="M71,184.7L40.3,167c-1.9-1.1-1.6-3,0.5-4.2l29.6-17.1c2.2-1.3,5.5-1.4,7.4-0.3l30.7,17.7
			c1.9,1.1,1.6,3-0.5,4.2l-29.6,17.1C76.2,185.7,72.9,185.8,71,184.7z"/>
		<path class="st5" d="M108,165.2l-29.6,17.1c-2.2,1.3-5.5,1.4-7.4,0.3l-30.7-17.7c-0.4-0.2-0.7-0.5-0.9-0.8c-0.6,1-0.4,2.2,0.9,2.9
			L71,184.7c1.9,1.1,5.2,1,7.4-0.3l29.6-17.1c1.7-1,2.2-2.3,1.5-3.4C109.2,164.4,108.7,164.8,108,165.2z"/>
		<g>
			<path class="st4" d="M98.5,178.4c0,0.8-0.6,1.8-1.2,2.1c-0.7,0.4-1.2,0.1-1.2-0.7s0.6-1.8,1.2-2.1
				C97.9,177.3,98.5,177.6,98.5,178.4z"/>
			<path class="st4" d="M86.3,185.1c0,0.8-0.6,1.8-1.2,2.1s-1.2,0.1-1.2-0.7s0.6-1.8,1.2-2.1C85.7,184,86.3,184.3,86.3,185.1z"/>
			<path class="st5" d="M86.3,202.7c0,0.8-0.6,1.8-1.2,2.1s-1.2,0.1-1.2-0.7s0.6-1.8,1.2-2.1S86.3,201.9,86.3,202.7z"/>
			<path class="st4" d="M102.5,176.1c0,0.8-0.6,1.8-1.2,2.1c-0.7,0.4-1.2,0.1-1.2-0.7c0-0.8,0.6-1.8,1.2-2.1
				C101.9,175,102.5,175.3,102.5,176.1z"/>
			<path class="st4" d="M106.5,173.8c0,0.8-0.6,1.8-1.2,2.1c-0.7,0.4-1.2,0.1-1.2-0.7c0-0.8,0.6-1.8,1.2-2.1
				C105.9,172.7,106.5,173,106.5,173.8z"/>
		</g>
		<g>
			<path class="st6" d="M72.8,173.7l-14.4-8.3c-0.9-0.5-0.8-1.4,0.2-2l13.9-8c1-0.6,2.6-0.7,3.4-0.1l14.4,8.3c0.9,0.5,0.8,1.4-0.2,2
				l-13.9,8C75.2,174.2,73.7,174.2,72.8,173.7z"/>
			<path class="st4" d="M74.2,166.8l-2-1.1c-0.1-0.1-0.1-0.2,0-0.3l1.9-1.1c0.1-0.1,0.4-0.1,0.5,0l2,1.1c0.1,0.1,0.1,0.2,0,0.3
				l-1.9,1.1C74.5,166.9,74.3,166.9,74.2,166.8z"/>
			<path class="st2" d="M58.4,165.4L58.4,165.4c0.1,0,0.2-0.1,0.2-0.1l13.9-8c1-0.6,2.6-0.7,3.4-0.1l14.3,8.3c0.8-0.6,0.9-1.4,0-1.8
				L76,155.3c-0.9-0.5-2.4-0.4-3.4,0.1l-13.9,8C57.7,164,57.6,164.9,58.4,165.4z"/>
		</g>
	</g>
</g>
<g>
	<path class="st1" d="M134.3,289.6c1.7,0.7,2.8,2.6,2.6,4.7c-0.1,1-0.2,1.9-0.4,2.3c-0.5,1.1-2.3,2.7-5.2,1.6
		c-2.8-1.1-9.1-7-9.4-10.9C121.5,280,129.8,287.6,134.3,289.6z"/>
	<path class="st1" d="M117.6,301.5c0,0,0.7,4.2,0.3,4.9c-0.3,0.8-2.3,2.4-5.2,2c-2.9-0.4-11.3-3.2-13.2-8.8
		c-2.9-8.6,16.2,0.6,16.2,0.6L117.6,301.5z"/>
	<path class="st16" d="M109.4,235.1l-0.6,64.8c0.1,2.3,1.5,4.2,3.5,4.5c0.2,0,0.5,0.1,0.8,0.1c2,0.2,3.2-0.7,3.8-1.6
		c0.5-0.7,0.8-1.7,0.9-2.6l0.8-27.7l4.1-24.7l5.7,43.8c0.1,1.2,0.7,2.3,1.6,2.9c0.6,0.4,1.5,0.7,2.6,0.7c1.6,0,2.8-0.9,3.5-1.7
		c0.5-0.6,0.8-1.5,0.8-2.3l-2.3-26.3l-0.8-33.6L109.4,235.1z"/>
	<path class="st17" d="M136.5,213.8c-0.1,0-0.2,0-0.4,0l-10.4-1.6c-1.3-0.2-2.1-1.4-1.9-2.7c0.2-1.3,1.4-2.1,2.7-1.9l7.1,1.1
		l-2.4-14c-0.2-1.3,0.6-2.5,1.9-2.7c1.3-0.2,2.5,0.6,2.7,1.9l3,17.2c0.1,0.7-0.1,1.5-0.6,2C137.7,213.6,137.1,213.8,136.5,213.8z"/>
	<path class="st7" d="M127,180.7c0,0,3.5-0.2,7.9,9c4.5,9.2-1.6,12.1-1.6,12.1L127,180.7z"/>
	<path class="st7" d="M117.5,183.1c0.2-0.1,9.5-6.1,13,0.2c5.7,10.3,5.3,43.5,3.5,47.8c-1.7,4-5.8,6.9-8.7,8.6
		c-2.6,1.5-5.5,2.4-8.4,2.4c-2.9,0-8.6-2.6-8.4-6.4c0.9-17.6-0.6-32.5-2.1-46.9C106.6,188.8,108.4,186.8,117.5,183.1z"/>
	<g>
		<path class="st17" d="M102.7,219.1c0.3,0,0.5-0.1,0.8-0.2c0.7-0.3,1.2-1,1.3-1.9l4.5-13c0.2-1.3-2.1-6.6-3.3-6.8
			c-1.2-0.2-4.2,2.2-4.4,3.5l-1.1,11.6l-9.3-3c-1.1-0.6-2.1-1.8-2.8-0.7c-0.7,1.1-0.4,2.7,0.6,3.4l12.5,6.6
			C101.8,219,102.2,219.2,102.7,219.1z"/>
	</g>
	<path class="st17" d="M90.3,209l-0.7-1.7c-0.2-0.6-0.6-1.2-1.1-1.6l-2.9-2.7c-0.2-0.2-0.6-0.2-0.8,0.1l0,0c-0.2,0.2-0.1,0.5,0,0.7
		l1.2,1.3c0.2,0.2,0.3,0.5,0.2,0.8l-0.5,1.3c-0.2,0.4-0.1,0.9,0.2,1.3l2.9,3.5L90.3,209z"/>
	<path class="st7" d="M106.6,188.8c0,0-6.3,4.8-7.2,19.5c0,0-0.1,1.6,3.5,2.6c3.6,1,6.1-1.8,6.1-1.8S113.1,199.3,106.6,188.8z"/>
	<path class="st17" d="M118.4,177.4l1,5.9c0,0,0,2-2.2,2.6c-2.2,0.6-2.9-0.9-2.9-0.9l-1-6.6L118.4,177.4z"/>
	<path class="st17" d="M106.2,177.7c2.4,4.7,7.8,6.8,12,4.6c4.2-2.2,5.6-7.8,3.2-12.5c-2.4-4.7-7.8-6.8-12-4.6
		C105.2,167.4,103.8,172.9,106.2,177.7z"/>
	<path class="st1" d="M112.3,176.8c-0.4,0.1-0.7,0-1-0.3c-0.4-0.4-0.6-2.8-1.8-3c-1.8-0.3-5.4,2.5-6.9-3.5c-0.8-3.1,0.6-4.2,0.3-6
		c0,0,0,0.9,8.1-1.1c8.1-1.9,12,4.8,12.8,8.3c0.8,3.4,0.1,9.4-5.3,11.1c-0.9,0.3-5.3-2.2-5.3-2.6s1.5-0.7,1.1-1.8
		C113.9,176.9,113.2,176.6,112.3,176.8z"/>
	<path class="st19" d="M122.7,247.9l5.7,43.8c0.1,1.2,0.7,2.3,1.6,2.9c0.1,0.1,0.3,0.2,0.5,0.3c-1.2-0.9-4.6-37.6-5.3-41.7
		C124.6,249,122.7,247.9,122.7,247.9z"/>
</g>
</svg>
