<svg width="25" height="19" viewBox="0 0 25 19" fill="none" xmlns="http://www.w3.org/2000/svg">
<path d="M16.25 12.5H18.125C18.4375 12.5 18.75 12.1875 18.75 11.875V5.3125C18.75 5 18.4375 4.6875 18.125 4.6875H16.25C15.9375 4.6875 15.625 5 15.625 5.3125V11.875C15.625 12.1875 15.9375 12.5 16.25 12.5V12.5ZM20.9375 12.5H22.8125C23.125 12.5 23.4375 12.1875 23.4375 11.875V0.625C23.4375 0.3125 23.125 0 22.8125 0H20.9375C20.625 0 20.3125 0.3125 20.3125 0.625V11.875C20.3125 12.1875 20.625 12.5 20.9375 12.5ZM6.875 12.5H8.75C9.0625 12.5 9.375 12.1875 9.375 11.875V8.4375C9.375 8.125 9.0625 7.8125 8.75 7.8125H6.875C6.5625 7.8125 6.25 8.125 6.25 8.4375V11.875C6.25 12.1875 6.5625 12.5 6.875 12.5ZM11.5625 12.5H13.4375C13.75 12.5 14.0625 12.1875 14.0625 11.875V2.1875C14.0625 1.875 13.75 1.5625 13.4375 1.5625H11.5625C11.25 1.5625 10.9375 1.875 10.9375 2.1875V11.875C10.9375 12.1875 11.25 12.5 11.5625 12.5V12.5ZM24.2188 15.625H3.125V0.78125C3.125 0.349609 2.77539 0 2.34375 0H0.78125C0.349609 0 0 0.349609 0 0.78125V17.1875C0 18.0503 0.699707 18.75 1.5625 18.75H24.2188C24.6504 18.75 25 18.4004 25 17.9688V16.4062C25 15.9746 24.6504 15.625 24.2188 15.625Z" fill="#ef4444"/>
</svg>
