<svg width="19" height="25" viewBox="0 0 19 25" fill="none" xmlns="http://www.w3.org/2000/svg">
<path d="M16.4062 3.125H12.5C12.5 1.40137 11.0986 0 9.375 0C7.65137 0 6.25 1.40137 6.25 3.125H2.34375C1.0498 3.125 0 4.1748 0 5.46875V22.6562C0 23.9502 1.0498 25 2.34375 25H16.4062C17.7002 25 18.75 23.9502 18.75 22.6562V5.46875C18.75 4.1748 17.7002 3.125 16.4062 3.125ZM9.375 1.95312C10.0244 1.95312 10.5469 2.47559 10.5469 3.125C10.5469 3.77441 10.0244 4.29688 9.375 4.29688C8.72559 4.29688 8.20312 3.77441 8.20312 3.125C8.20312 2.47559 8.72559 1.95312 9.375 1.95312ZM14.0625 16.7969C14.0625 17.0117 13.8867 17.1875 13.6719 17.1875H10.9375V19.9219C10.9375 20.1367 10.7617 20.3125 10.5469 20.3125H8.20312C7.98828 20.3125 7.8125 20.1367 7.8125 19.9219V17.1875H5.07812C4.86328 17.1875 4.6875 17.0117 4.6875 16.7969V14.4531C4.6875 14.2383 4.86328 14.0625 5.07812 14.0625H7.8125V11.3281C7.8125 11.1133 7.98828 10.9375 8.20312 10.9375H10.5469C10.7617 10.9375 10.9375 11.1133 10.9375 11.3281V14.0625H13.6719C13.8867 14.0625 14.0625 14.2383 14.0625 14.4531V16.7969ZM14.0625 7.42188C14.0625 7.63672 13.8867 7.8125 13.6719 7.8125H5.07812C4.86328 7.8125 4.6875 7.63672 4.6875 7.42188V6.64062C4.6875 6.42578 4.86328 6.25 5.07812 6.25H13.6719C13.8867 6.25 14.0625 6.42578 14.0625 6.64062V7.42188Z" fill="#6366f1"/>
</svg>
