<svg width="26" height="23" viewBox="0 0 26 23" fill="none" xmlns="http://www.w3.org/2000/svg">
<path d="M25.4745 10.5224C25.4745 9.49683 24.9125 8.61098 24.0857 8.13008V1.4951C24.0857 1.11532 23.7827 0.105774 22.6968 0.105774C22.3877 0.105774 22.0809 0.209073 21.8296 0.410461L18.139 3.36315C16.2853 4.84492 13.9581 5.66133 11.5857 5.66133H3.25233C1.71804 5.66133 0.474548 6.90482 0.474548 8.43911V12.6058C0.474548 14.1401 1.71804 15.3836 3.25233 15.3836H4.715C4.65467 15.8384 4.62038 16.3011 4.62038 16.7724C4.62038 18.4986 5.02229 20.1296 5.72976 21.5875C5.95502 22.0515 6.44677 22.328 6.9624 22.328H10.1864C11.317 22.328 11.9958 21.0329 11.3105 20.1336C10.5987 19.1995 10.1755 18.0346 10.1755 16.7724C10.1755 16.2902 10.2458 15.8267 10.3669 15.3836H11.5857C13.9581 15.3836 16.2853 16.2 18.1386 17.6817L21.8291 20.6344C22.0753 20.8314 22.3811 20.9388 22.6963 20.9391C23.7779 20.9391 24.0852 19.9504 24.0852 19.5502V12.9152C24.9125 12.4339 25.4745 11.548 25.4745 10.5224ZM21.3079 16.6605L19.8734 15.5129C17.5297 13.6379 14.5857 12.6058 11.5857 12.6058V8.43911C14.5857 8.43911 17.5297 7.40699 19.8734 5.53199L21.3079 4.38442V16.6605Z" fill="white"/>
</svg>
