<!-- Generator: Adobe Illustrator 25.2.0, SVG Export Plug-In  -->
<svg version="1.1" xmlns="http://www.w3.org/2000/svg" xmlns:xlink="http://www.w3.org/1999/xlink" x="0px" y="0px" width="96px"
	 height="96px" viewBox="0 0 96 96" style="overflow:visible;enable-background:new 0 0 96 96;" xml:space="preserve">
<style type="text/css">
	.st0{fill:#3BCCFF;}
	.st1{fill:#FFFFFF;}
</style>
<defs>
</defs>
<circle class="st0" cx="48" cy="48" r="48"/>
<g>
	<path class="st1" d="M64.1,61c0.1-4.1-3.2-7.4-7.2-7.4l-16.9,0c-10.8,0-19.5-8.9-19.1-19.8c0.4-10.4,9.2-18.5,19.6-18.5l16.4,0
		c9.8,0,18,7.4,19,17c0.1,1.2-0.8,2.2-2,2.2l-8.1,0c-0.9,0-1.7-0.6-1.9-1.6c-0.7-3.2-3.6-5.6-7-5.6l-16.6,0c-4,0-7.4,3.1-7.5,7
		c-0.1,4.1,3.2,7.4,7.2,7.4l16.9,0c10.8,0,19.5,8.9,19.1,19.8c-0.4,10.4-9.2,18.5-19.6,18.5l-16.4,0c-9.8,0-18-7.4-19-17
		c-0.1-1.2,0.8-2.2,2-2.2l8.1,0c0.9,0,1.7,0.6,1.9,1.6c0.7,3.2,3.6,5.6,7,5.6l16.6,0C60.6,68,64,64.9,64.1,61z"/>
</g>
</svg>
