<svg width="120" height="100" viewBox="0 0 120 100" fill="none" xmlns="http://www.w3.org/2000/svg">
<path d="M118.05 66.3L85.35 47.4C84.35 46.8 82.65 46.8 81.65 47.4L81.25 47.6L80.85 47.4C80.05 46.9 78.75 46.8 77.75 47.1L56.55 40.6C55.55 40 53.85 40 52.85 40.6L0.75 70.9C-0.25 71.5 -0.25 72.5 0.75 73L27.45 81.2L57.75 98.7C58.25 99 58.95 99.2 59.65 99.3H65.35C66.05 99.2 66.75 99 67.35 98.7L118.05 69.2C119.45 68.4 119.45 67.1 118.05 66.3Z" fill="#F5F2E8"/>
<path d="M82.2502 43.7L71.1502 1.9C70.9502 1.1 70.5502 0.6 70.0502 0.3V0.1L69.2502 0C68.9502 0 68.6502 0.1 68.3502 0.3L17.4502 29.7C16.2502 30.4 15.6502 32.2 16.0502 33.7L27.1502 75.5C27.3502 76.4 27.9502 76.8 28.6502 76.8L29.4502 76.9L29.3502 76.7L81.1502 46.8C82.0502 46.2 82.5502 44.9 82.2502 43.7Z" fill="url(#paint0_linear_25_199)"/>
<path d="M69.15 0.29999L18.25 29.7C17.05 30.4 16.45 32.2 16.85 33.7L27.95 75.5C28.25 76.6 29.25 77.2 30.15 76.6L82.15 46.6C83.05 46.1 83.55 44.7 83.25 43.6L72.05 1.79999C71.65 0.29999 70.35 -0.30001 69.15 0.29999Z" fill="#494855"/>
<path d="M70.55 1.5L17.75 32L28.55 72.8L81.35 42.3L70.55 1.5Z" fill="#00B9E3"/>
<path d="M28.5504 42.2L26.7504 43.2C26.6504 43.3 26.4504 43.2 26.4504 43.1L26.3504 43C26.2504 43 26.0504 43 25.9504 43L24.3504 44C24.2504 44.1 24.1504 44.2 24.1504 44.4V44.7V44.8L24.9504 47.9C24.9504 48 25.1504 48.1 25.2504 48L29.5504 45.5C29.6504 45.4 29.7504 45.3 29.7504 45.1L29.0504 42.3C28.8504 42.2 28.6504 42.1 28.5504 42.2Z" fill="#FFE568"/>
<path d="M28.6504 42.5L24.3504 45C24.2504 45.1 24.1504 45.2 24.1504 45.4L24.7504 48C24.7504 48.1 24.9504 48.2 25.0504 48.1L29.3504 45.6C29.4504 45.5 29.5504 45.4 29.5504 45.2L28.9504 42.6C28.9504 42.4 28.7504 42.4 28.6504 42.5Z" fill="#FFEC8B"/>
<path d="M26.2502 34.8999L24.4502 35.8999C24.3502 35.9999 24.1502 35.8999 24.1502 35.7999L24.0502 35.6999C23.9502 35.5999 23.8502 35.5999 23.7502 35.5999L22.1502 36.4999C22.0502 36.5999 21.9502 36.6999 21.9502 36.8999V37.1999V37.2999L22.7502 40.3999C22.7502 40.4999 22.9502 40.5999 23.0502 40.4999L27.3502 37.9999C27.4502 37.8999 27.5502 37.7999 27.5502 37.5999L26.8502 34.7999C26.6502 34.8999 26.4502 34.7999 26.2502 34.8999Z" fill="#FFE568"/>
<path d="M26.4502 35.2L22.1502 37.7C22.0502 37.8 21.9502 37.9 21.9502 38.1L22.5502 40.7C22.5502 40.8 22.7502 40.9 22.8502 40.8L27.1502 38.3C27.2502 38.2 27.3502 38.1 27.3502 37.9L26.7502 35.3C26.6502 35.1 26.5502 35.1 26.4502 35.2Z" fill="#FFEC8B"/>
<path d="M69.4504 8.39993L67.6504 9.39993C67.5504 9.49993 67.3504 9.39993 67.3504 9.29993L67.2504 9.19993C67.1504 9.09993 67.0504 9.09993 66.9504 9.09993L65.3504 9.99993C65.2504 10.0999 65.1504 10.1999 65.1504 10.3999V10.6999V10.7999L65.9504 13.8999C65.9504 13.9999 66.1504 14.0999 66.2504 13.9999L70.5504 11.4999C70.6504 11.3999 70.7504 11.2999 70.7504 11.0999L70.0504 8.29993C69.7504 8.39993 69.5504 8.29993 69.4504 8.39993Z" fill="#FFE568"/>
<path d="M69.5503 8.69996L65.2503 11.2C65.1503 11.3 65.0503 11.4 65.0503 11.6L65.6503 14.2C65.6503 14.3 65.8503 14.4 65.9503 14.3L70.2503 11.8C70.3503 11.7 70.4503 11.6 70.4503 11.4L69.8503 8.79996C69.8503 8.59996 69.6503 8.59996 69.5503 8.69996Z" fill="#FFEC8B"/>
<path d="M80.8503 40.5L28.0503 71L28.5503 72.8L81.3503 42.3L80.8503 40.5Z" fill="#C4C8D8"/>
<path d="M70.2503 42.3L38.3503 60.7L31.5503 34.8L30.5503 30.9L62.3503 12.5L63.4503 16.4L70.2503 42.3Z" fill="#EFF0F5"/>
<path d="M63.4503 16.4L31.5503 34.8L30.5503 30.9L62.3503 12.5L63.4503 16.4Z" fill="#C4C8D8"/>
<path d="M32.3501 33.3L34.4501 32.1L33.9501 30.5L31.8501 31.7L32.3501 33.3Z" fill="#FC797E"/>
<path d="M118.75 67.2V65.2L117.15 65.4L85.4502 47.1C84.4502 46.5 82.8502 46.5 81.8502 47.1L33.2502 75.4L29.9502 75.8V77.9C29.9502 78.3 30.1502 78.7 30.7502 79L62.9502 97.6C64.3502 98.4 66.5502 98.4 67.9502 97.6L117.85 68.6C118.35 68.2 118.75 67.7 118.75 67.2Z" fill="url(#paint1_linear_25_199)"/>
<path d="M117.65 63.8L85.4504 45.2C84.4504 44.6 82.8504 44.6 81.8504 45.2L30.6504 75C29.6504 75.6 29.6504 76.5 30.6504 77.1L62.8504 95.7C64.2504 96.5 66.4504 96.5 67.8504 95.7L117.75 66.7C119.05 65.9 119.05 64.6 117.65 63.8Z" fill="#EFF0F5"/>
<path d="M104.35 57.5L85.3502 46.5C84.6502 46.1 83.6502 46.1 82.9502 46.5L32.8502 75.5999C32.1502 75.9999 32.1502 76.6 32.8502 77L51.8502 88C52.5502 88.4 53.5502 88.4 54.2502 88L104.35 58.9C105.05 58.5 105.05 57.9 104.35 57.5Z" fill="#E1E3EB"/>
<path d="M101.95 73.3L92.5505 67.8C91.9505 67.5 91.1505 67.5 90.5505 67.8L69.7505 79.9C69.2505 80.2 69.2505 80.6999 69.7505 81.0999L79.1505 86.5999C79.7505 86.8999 80.5505 86.8999 81.1505 86.5999L101.95 74.3999C102.45 74.0999 102.45 73.6 101.95 73.3Z" fill="#D9DBE6"/>
<path d="M69.7502 80.1999L90.5502 68.0999C91.0502 67.7999 91.9502 67.7999 92.5502 68.0999L101.95 73.5999C102.15 73.6999 102.25 73.8999 102.35 73.9999C102.45 73.6999 102.35 73.5 101.95 73.3L92.5502 67.8C91.9502 67.5 91.1502 67.5 90.5502 67.8L69.7502 79.9C69.4502 80.1 69.2502 80.3999 69.3502 80.5999C69.3502 80.4999 69.5502 80.2999 69.7502 80.1999Z" fill="#C5C9D8"/>
<path d="M41.3503 77.4001V77.1001H41.1503L38.8503 75.8001C38.6503 75.7001 38.2503 75.7001 38.0503 75.8001L35.7503 77.1001H35.5503V77.4001C35.5503 77.5001 35.6503 77.6001 35.7503 77.6001L38.0503 78.9001C38.2503 79.0001 38.6503 79.0001 38.8503 78.9001L41.1503 77.6001C41.3503 77.6001 41.3503 77.5001 41.3503 77.4001Z" fill="#393842"/>
<path d="M56.0505 85.9001V85.6001H55.8505L53.5505 84.3001C53.3505 84.2001 52.9505 84.2001 52.7505 84.3001L50.4505 85.6001H50.2505V85.9001C50.2505 86.0001 50.3505 86.1001 50.4505 86.1001L52.7505 87.4001C52.9505 87.5001 53.3505 87.5001 53.5505 87.4001L55.8505 86.1001C55.9505 86.0001 56.0505 86.0001 56.0505 85.9001Z" fill="#393842"/>
<path d="M59.6501 83.8V83.5H59.4501L57.1501 82.2C56.9501 82.1 56.5501 82.1 56.3501 82.2L54.0501 83.5H53.8501V83.8C53.8501 83.9 53.9501 84 54.0501 84L56.3501 85.3C56.5501 85.4 56.9501 85.4 57.1501 85.3L59.4501 84C59.6501 83.9 59.6501 83.9 59.6501 83.8Z" fill="#393842"/>
<path d="M63.2502 81.7V81.4H63.0502L60.7502 80.1C60.5502 80 60.1502 80 59.9502 80.1L57.6502 81.4H57.4502V81.7C57.4502 81.8 57.5502 81.9 57.6502 81.9L59.9502 83.2C60.1502 83.3 60.5502 83.3 60.7502 83.2L63.0502 81.9C63.2502 81.8 63.2502 81.8 63.2502 81.7Z" fill="#393842"/>
<path d="M66.9504 79.6V79.3001H66.7504L64.4504 78C64.2504 77.9 63.8504 77.9 63.6504 78L61.3504 79.3001H61.1504V79.6C61.1504 79.7 61.2504 79.8001 61.3504 79.8001L63.6504 81.1C63.8504 81.2 64.2504 81.2 64.4504 81.1L66.7504 79.8001C66.8504 79.7001 66.9504 79.6 66.9504 79.6Z" fill="#393842"/>
<path d="M44.9504 75.3V75H44.7504L42.4504 73.7C42.2504 73.6 41.8504 73.6 41.6504 73.7L39.3504 75H39.1504V75.3C39.1504 75.4 39.2504 75.5 39.3504 75.5L41.6504 76.8C41.8504 76.9 42.2504 76.9 42.4504 76.8L44.7504 75.5C44.9504 75.5 45.0504 75.4 44.9504 75.3Z" fill="#393842"/>
<path d="M50.6501 76.2V75.9H50.4501L48.1501 74.6C47.9501 74.5 47.5501 74.5 47.3501 74.6L45.0501 76H44.8501V76.3C44.8501 76.4 44.9501 76.5 45.0501 76.5L47.3501 77.8C47.5501 77.9 47.9501 77.9 48.1501 77.8L50.4501 76.5C50.6501 76.4 50.6501 76.3 50.6501 76.2Z" fill="#393842"/>
<path d="M54.3503 74.1V73.8001H54.1503L51.8503 72.5C51.6503 72.4 51.2503 72.4 51.0503 72.5L48.7503 73.8001H48.5503V74.1C48.5503 74.2 48.6503 74.3001 48.7503 74.3001L51.0503 75.6C51.2503 75.7 51.6503 75.7 51.8503 75.6L54.1503 74.3001C54.2503 74.3001 54.3503 74.2 54.3503 74.1Z" fill="#393842"/>
<path d="M56.1501 77.3V77H55.9501L53.6501 75.7C53.4501 75.6 53.0501 75.6 52.8501 75.7L50.5501 77H50.3501V77.3C50.3501 77.4 50.4501 77.5 50.5501 77.5L52.8501 78.8C53.0501 78.9 53.4501 78.9 53.6501 78.8L55.9501 77.5C56.1501 77.5 56.1501 77.4 56.1501 77.3Z" fill="#393842"/>
<path d="M59.8503 79.4001V79.1001H59.6503L57.3503 77.8001C57.1503 77.7001 56.7503 77.7001 56.5503 77.8001L54.2503 79.1001H54.0503V79.4001C54.0503 79.5001 54.1503 79.6001 54.2503 79.6001L56.5503 80.9001C56.7503 81.0001 57.1503 81.0001 57.3503 80.9001L59.6503 79.6001C59.8503 79.6001 59.8503 79.5001 59.8503 79.4001Z" fill="#393842"/>
<path d="M63.4504 77.3V77H63.2504L60.9504 75.7C60.7504 75.6 60.3504 75.6 60.1504 75.7L57.8504 77H57.6504V77.3C57.6504 77.4 57.7504 77.5 57.8504 77.5L60.1504 78.8C60.3504 78.9 60.7504 78.9 60.9504 78.8L63.2504 77.5C63.4504 77.5 63.5504 77.4 63.4504 77.3Z" fill="#393842"/>
<path d="M67.1505 75.2V74.9H66.9505L64.6505 73.6C64.4505 73.5 64.0505 73.5 63.8505 73.6L61.4505 75H61.2505V75.3C61.2505 75.4 61.3505 75.5 61.4505 75.5L63.7505 76.8C63.9505 76.9 64.3505 76.9 64.5505 76.8L66.8505 75.5C67.0505 75.4 67.1505 75.3 67.1505 75.2Z" fill="#393842"/>
<path d="M70.7502 73.1V72.8001H70.5502L68.2502 71.5C68.0502 71.4 67.6502 71.4 67.4502 71.5L65.1502 72.8001H64.9502V73.1C64.9502 73.2 65.0502 73.3001 65.1502 73.3001L67.4502 74.6C67.6502 74.7 68.0502 74.7 68.2502 74.6L70.5502 73.3001C70.6502 73.3001 70.7502 73.2 70.7502 73.1Z" fill="#393842"/>
<path d="M74.3503 71.0001V70.7001H74.1503L71.8503 69.4001C71.6503 69.3001 71.2503 69.3001 71.0503 69.4001L68.7503 70.7001H68.5503V71.0001C68.5503 71.1001 68.6503 71.2001 68.7503 71.2001L71.0503 72.5001C71.2503 72.6001 71.6503 72.6001 71.8503 72.5001L74.1503 71.2001C74.3503 71.2001 74.3503 71.1001 74.3503 71.0001Z" fill="#393842"/>
<path d="M77.9504 68.9001V68.6001H77.7504L75.4504 67.3001C75.2504 67.2001 74.8504 67.2001 74.6504 67.3001L72.3504 68.6001H72.1504V68.9001C72.1504 69.0001 72.2504 69.1001 72.3504 69.1001L74.6504 70.4001C74.8504 70.5001 75.2504 70.5001 75.4504 70.4001L77.7504 69.1001C77.9504 69.1001 77.9504 69.0001 77.9504 68.9001Z" fill="#393842"/>
<path d="M81.5505 66.8V66.5H81.3505L79.0505 65.2C78.8505 65.1 78.4505 65.1 78.2505 65.2L75.9505 66.5H75.7505V66.8C75.7505 66.9 75.8505 67 75.9505 67L78.2505 68.3C78.4505 68.4 78.8505 68.4 79.0505 68.3L81.3505 67C81.5505 67 81.5505 66.9 81.5505 66.8Z" fill="#393842"/>
<path d="M85.2502 64.7V64.4H85.0502L82.7502 63.1C82.5502 63 82.1502 63 81.9502 63.1L79.6502 64.4H79.4502V64.7C79.4502 64.8 79.5502 64.9 79.6502 64.9L81.9502 66.2C82.1502 66.3 82.5502 66.3 82.7502 66.2L85.0502 64.9C85.1502 64.9 85.2502 64.8 85.2502 64.7Z" fill="#393842"/>
<path d="M88.8503 62.6V62.3H88.6503L86.3503 61C86.1503 60.9 85.7503 60.9 85.5503 61L83.2503 62.3H83.0503V62.6C83.0503 62.7 83.1503 62.8 83.2503 62.8L85.5503 64.1C85.7503 64.2 86.1503 64.2 86.3503 64.1L88.6503 62.8C88.7503 62.8 88.8503 62.7 88.8503 62.6Z" fill="#393842"/>
<path d="M92.7502 64.6V64.3001H92.5502L90.2502 63C90.0502 62.9 89.6502 62.9 89.4502 63L87.1502 64.3001H86.9502V64.6C86.9502 64.7 87.0502 64.8001 87.1502 64.8001L89.4502 66.1C89.6502 66.2 90.0502 66.2 90.2502 66.1L92.5502 64.8001C92.6502 64.7001 92.7502 64.7 92.7502 64.6Z" fill="#393842"/>
<path d="M96.3503 62.5001V62.2001H96.1503L93.8503 60.9001C93.6503 60.8001 93.2503 60.8001 93.0503 60.9001L90.7503 62.2001H90.5503V62.5001C90.5503 62.6001 90.6503 62.7001 90.7503 62.7001L93.0503 64.0001C93.2503 64.1001 93.6503 64.1001 93.8503 64.0001L96.1503 62.7001C96.2503 62.6001 96.3503 62.5001 96.3503 62.5001Z" fill="#393842"/>
<path d="M103.65 58.2V57.9H103.45L101.15 56.6C100.95 56.5 100.55 56.5 100.35 56.6L98.0501 57.9H97.8501V58.2C97.8501 58.3 97.9501 58.4 98.0501 58.4L100.35 59.7C100.55 59.8 100.95 59.8 101.15 59.7L103.45 58.4C103.65 58.4 103.65 58.3 103.65 58.2Z" fill="#393842"/>
<path d="M99.7501 55.8L97.4501 54.5C97.2501 54.4 96.8501 54.4 96.6501 54.5L96.3501 54.7L94.3501 55.8H94.1501V56H94.0501H93.8501V56.3C93.8501 56.4 93.9501 56.5 94.0501 56.5L96.3501 57.8C96.5501 57.9 96.9501 57.9 97.1501 57.8L99.7501 56.3C99.8501 56.2 99.9501 56.1 99.9501 56.1V55.8H99.7501Z" fill="#393842"/>
<path d="M92.4504 60.5001V60.2001H92.2504L89.9504 58.9001C89.7504 58.8001 89.3504 58.8001 89.1504 58.9001L86.8504 60.2001H86.6504V60.5001C86.6504 60.6001 86.7504 60.7001 86.8504 60.7001L89.1504 62.0001C89.3504 62.1001 89.7504 62.1001 89.9504 62.0001L92.2504 60.7001C92.3504 60.7001 92.4504 60.6001 92.4504 60.5001Z" fill="#393842"/>
<path d="M96.0505 58.4001V58.1001H95.8505L93.5505 56.8001C93.3505 56.7001 92.9505 56.7001 92.7505 56.8001L90.4505 58.1001H90.2505V58.4001C90.2505 58.5001 90.3505 58.6001 90.4505 58.6001L92.7505 59.9001C92.9505 60.0001 93.3505 60.0001 93.5505 59.9001L95.8505 58.6001C96.0505 58.6001 96.0505 58.5001 96.0505 58.4001Z" fill="#393842"/>
<path d="M59.8503 75.2V74.9H59.6503L57.3503 73.6C57.1503 73.5 56.7503 73.5 56.5503 73.6L54.2503 74.9H54.0503V75.2C54.0503 75.3 54.1503 75.4 54.2503 75.4L56.5503 76.7C56.7503 76.8 57.1503 76.8 57.3503 76.7L59.6503 75.4C59.7503 75.4 59.8503 75.3 59.8503 75.2Z" fill="#393842"/>
<path d="M63.4504 73.1V72.8001H63.2504L60.9504 71.5C60.7504 71.4 60.3504 71.4 60.1504 71.5L57.8504 72.8001H57.6504V73.1C57.6504 73.2 57.7504 73.3001 57.8504 73.3001L60.1504 74.6C60.3504 74.7 60.7504 74.7 60.9504 74.6L63.2504 73.3001C63.3504 73.3001 63.4504 73.2 63.4504 73.1Z" fill="#393842"/>
<path d="M67.0505 71.0001V70.7001H66.8505L64.5505 69.4001C64.3505 69.3001 63.9505 69.3001 63.7505 69.4001L61.4505 70.7001H61.2505V71.0001C61.2505 71.1001 61.3505 71.2001 61.4505 71.2001L63.7505 72.5001C63.9505 72.6001 64.3505 72.6001 64.5505 72.5001L66.8505 71.2001C66.9505 71.2001 67.0505 71.1001 67.0505 71.0001Z" fill="#393842"/>
<path d="M70.6501 68.9001V68.6001H70.4501L68.1501 67.3001C67.9501 67.2001 67.5501 67.2001 67.3501 67.3001L65.0501 68.6001H64.8501V68.9001C64.8501 69.0001 64.9501 69.1001 65.0501 69.1001L67.3501 70.4001C67.5501 70.5001 67.9501 70.5001 68.1501 70.4001L70.4501 69.1001C70.6501 69.1001 70.6501 69.0001 70.6501 68.9001Z" fill="#393842"/>
<path d="M74.2502 66.8V66.5H74.0502L71.7502 65.2C71.5502 65.1 71.1502 65.1 70.9502 65.2L68.6502 66.5H68.4502V66.8C68.4502 66.9 68.5502 67 68.6502 67L70.9502 68.3C71.1502 68.4 71.5502 68.4 71.7502 68.3L74.0502 67C74.2502 67 74.2502 66.9 74.2502 66.8Z" fill="#393842"/>
<path d="M77.9504 64.7V64.4H77.7504L75.4504 63.1C75.2504 63 74.8504 63 74.6504 63.1L72.3504 64.4H72.1504V64.7C72.1504 64.8 72.2504 64.9 72.3504 64.9L74.6504 66.2C74.8504 66.3 75.2504 66.3 75.4504 66.2L77.7504 64.9C77.8504 64.8 77.9504 64.8 77.9504 64.7Z" fill="#393842"/>
<path d="M81.5505 62.6V62.3H81.3505L79.0505 61C78.8505 60.9 78.4505 60.9 78.2505 61L75.9505 62.3H75.7505V62.6C75.7505 62.7 75.8505 62.8 75.9505 62.8L78.2505 64.1C78.4505 64.2 78.8505 64.2 79.0505 64.1L81.3505 62.8C81.4505 62.7 81.5505 62.7 81.5505 62.6Z" fill="#393842"/>
<path d="M85.1501 60.5001V60.2001H84.9501L82.6501 58.9001C82.4501 58.8001 82.0501 58.8001 81.8501 58.9001L79.5501 60.2001H79.3501V60.5001C79.3501 60.6001 79.4501 60.7001 79.5501 60.7001L81.8501 62.0001C82.0501 62.1001 82.4501 62.1001 82.6501 62.0001L84.9501 60.7001C85.0501 60.6001 85.1501 60.6001 85.1501 60.5001Z" fill="#393842"/>
<path d="M88.7502 58.4001V58.1001H88.5502L86.2502 56.8001C86.0502 56.7001 85.6502 56.7001 85.4502 56.8001L83.1502 58.1001H82.9502V58.4001C82.9502 58.5001 83.0502 58.6001 83.1502 58.6001L85.4502 59.9001C85.6502 60.0001 86.0502 60.0001 86.2502 59.9001L88.5502 58.6001C88.7502 58.5001 88.7502 58.4001 88.7502 58.4001Z" fill="#393842"/>
<path d="M57.9504 72.0001V71.7001H57.7504L55.4504 70.4001C55.2504 70.3001 54.8504 70.3001 54.6504 70.4001L52.3504 71.7001H52.1504V72.0001C52.1504 72.1001 52.2504 72.2001 52.3504 72.2001L54.6504 73.5001C54.8504 73.6001 55.2504 73.6001 55.4504 73.5001L57.7504 72.2001C57.8504 72.2001 57.9504 72.1001 57.9504 72.0001Z" fill="#393842"/>
<path d="M61.5505 69.9001V69.6001H61.3505L59.0505 68.3001C58.8505 68.2001 58.4505 68.2001 58.2505 68.3001L55.9505 69.6001H55.7505V69.9001C55.7505 70.0001 55.8505 70.1001 55.9505 70.1001L58.2505 71.4001C58.4505 71.5001 58.8505 71.5001 59.0505 71.4001L61.3505 70.1001C61.4505 70.1001 61.5505 70.0001 61.5505 69.9001Z" fill="#393842"/>
<path d="M65.1501 67.8V67.5H64.9501L62.6501 66.2C62.4501 66.1 62.0501 66.1 61.8501 66.2L59.5501 67.5H59.3501V67.8C59.3501 67.9 59.4501 68 59.5501 68L61.8501 69.3C62.0501 69.4 62.4501 69.4 62.6501 69.3L64.9501 68C65.1501 68 65.1501 67.9 65.1501 67.8Z" fill="#393842"/>
<path d="M68.7502 65.7V65.4H68.5502L66.2502 64.1C66.0502 64 65.6502 64 65.4502 64.1L63.1502 65.4H62.9502V65.7C62.9502 65.8 63.0502 65.9 63.1502 65.9L65.4502 67.2C65.6502 67.3 66.0502 67.3 66.2502 67.2L68.5502 65.9C68.7502 65.9 68.7502 65.8 68.7502 65.7Z" fill="#393842"/>
<path d="M72.4504 63.6V63.3H72.2504L69.9504 62C69.7504 61.9 69.3504 61.9 69.1504 62L66.8504 63.3H66.6504V63.6C66.6504 63.7 66.7504 63.8 66.8504 63.8L69.1504 65.1C69.3504 65.2 69.7504 65.2 69.9504 65.1L72.2504 63.8C72.3504 63.8 72.4504 63.7 72.4504 63.6Z" fill="#393842"/>
<path d="M76.0505 61.5001V61.2001H75.8505L73.5505 59.9001C73.3505 59.8001 72.9505 59.8001 72.7505 59.9001L70.4505 61.2001H70.2505V61.5001C70.2505 61.6001 70.3505 61.7001 70.4505 61.7001L72.7505 63.0001C72.9505 63.1001 73.3505 63.1001 73.5505 63.0001L75.8505 61.7001C75.9505 61.7001 76.0505 61.6001 76.0505 61.5001Z" fill="#393842"/>
<path d="M79.6501 59.4001V59.1001H79.4501L77.1501 57.8001C76.9501 57.7001 76.5501 57.7001 76.3501 57.8001L74.0501 59.1001H73.8501V59.4001C73.8501 59.5001 73.9501 59.6001 74.0501 59.6001L76.3501 60.9001C76.5501 61.0001 76.9501 61.0001 77.1501 60.9001L79.4501 59.6001C79.5501 59.6001 79.6501 59.5001 79.6501 59.4001Z" fill="#393842"/>
<path d="M83.2502 57.3V57H83.0502L80.7502 55.7C80.5502 55.6 80.1502 55.6 79.9502 55.7L77.6502 57H77.4502V57.3C77.4502 57.4 77.5502 57.5 77.6502 57.5L79.9502 58.8C80.1502 58.9 80.5502 58.9 80.7502 58.8L83.0502 57.5C83.2502 57.5 83.2502 57.4 83.2502 57.3Z" fill="#393842"/>
<path d="M86.8503 55.2V54.9H86.6503L84.3503 53.6C84.1503 53.5 83.7503 53.5 83.5503 53.6L81.2503 54.9H81.0503V55.2C81.0503 55.3 81.1503 55.4 81.2503 55.4L83.5503 56.7C83.7503 56.8 84.1503 56.8 84.3503 56.7L86.6503 55.4C86.8503 55.4 86.8503 55.3 86.8503 55.2Z" fill="#393842"/>
<path d="M48.6505 73.2V72.9H48.4505L46.1505 71.6C45.9505 71.5 45.5505 71.5 45.3505 71.6L42.9505 72.9H42.7505V73.2C42.7505 73.3 42.8505 73.4 42.9505 73.4L45.2505 74.7C45.4505 74.8 45.8505 74.8 46.0505 74.7L48.3505 73.4C48.5505 73.4 48.6505 73.3 48.6505 73.2Z" fill="#393842"/>
<path d="M52.2502 71.1V70.8001H52.0502L49.7502 69.5C49.5502 69.4 49.1502 69.4 48.9502 69.5L46.6502 70.8001H46.4502V71.1C46.4502 71.2 46.5502 71.3001 46.6502 71.3001L48.9502 72.6C49.1502 72.7 49.5502 72.7 49.7502 72.6L52.0502 71.3001C52.1502 71.3001 52.2502 71.2 52.2502 71.1Z" fill="#393842"/>
<path d="M55.8503 69.0001V68.7001H55.6503L53.3503 67.4001C53.1503 67.3001 52.7503 67.3001 52.5503 67.4001L50.2503 68.7001H50.0503V69.0001C50.0503 69.1001 50.1503 69.2001 50.2503 69.2001L52.5503 70.5001C52.7503 70.6001 53.1503 70.6001 53.3503 70.5001L55.6503 69.2001C55.8503 69.2001 55.8503 69.1001 55.8503 69.0001Z" fill="#393842"/>
<path d="M59.4504 66.9001V66.6001H59.2504L56.9504 65.3001C56.7504 65.2001 56.3504 65.2001 56.1504 65.3001L53.8504 66.6001H53.6504V66.9001C53.6504 67.0001 53.7504 67.1001 53.8504 67.1001L56.1504 68.4001C56.3504 68.5001 56.7504 68.5001 56.9504 68.4001L59.2504 67.1001C59.4504 67.1001 59.4504 67.0001 59.4504 66.9001Z" fill="#393842"/>
<path d="M63.0505 64.8V64.5H62.8505L60.5505 63.2C60.3505 63.1 59.9505 63.1 59.7505 63.2L57.4505 64.5H57.2505V64.8C57.2505 64.9 57.3505 65 57.4505 65L59.7505 66.3C59.9505 66.4 60.3505 66.4 60.5505 66.3L62.9505 65C63.0505 65 63.0505 64.9 63.0505 64.8Z" fill="#393842"/>
<path d="M66.7502 62.7V62.4H66.5502L64.2502 61.1C64.0502 61 63.6502 61 63.4502 61.1L61.1502 62.4H60.9502V62.7C60.9502 62.8 61.0502 62.9 61.1502 62.9L63.4502 64.2C63.6502 64.3 64.0502 64.3 64.2502 64.2L66.5502 62.9C66.6502 62.9 66.7502 62.8 66.7502 62.7Z" fill="#393842"/>
<path d="M70.3503 60.6V60.3H70.1503L67.8503 59C67.6503 58.9 67.2503 58.9 67.0503 59L64.7503 60.3H64.5503V60.6C64.5503 60.7 64.6503 60.8 64.7503 60.8L67.0503 62.1C67.2503 62.2 67.6503 62.2 67.8503 62.1L70.1503 60.8C70.2503 60.8 70.3503 60.7 70.3503 60.6Z" fill="#393842"/>
<path d="M73.9504 58.5001V58.2001H73.7504L71.4504 56.9001C71.2504 56.8001 70.8504 56.8001 70.6504 56.9001L68.3504 58.2001H68.1504V58.5001C68.1504 58.6001 68.2504 58.7001 68.3504 58.7001L70.6504 60.0001C70.8504 60.1001 71.2504 60.1001 71.4504 60.0001L73.7504 58.7001C73.8504 58.6001 73.9504 58.6001 73.9504 58.5001Z" fill="#393842"/>
<path d="M77.5505 56.4001V56.1001H77.3505L75.0505 54.8001C74.8505 54.7001 74.4505 54.7001 74.2505 54.8001L71.9505 56.1001H71.7505V56.4001C71.7505 56.5001 71.8505 56.6001 71.9505 56.6001L74.2505 57.9001C74.4505 58.0001 74.8505 58.0001 75.0505 57.9001L77.3505 56.6001C77.5505 56.5001 77.5505 56.5001 77.5505 56.4001Z" fill="#393842"/>
<path d="M81.1501 54.3V54H80.9501L78.6501 52.7C78.4501 52.6 78.0501 52.6 77.8501 52.7L75.5501 54H75.3501V54.3C75.3501 54.4 75.4501 54.5 75.5501 54.5L77.8501 55.8C78.0501 55.9 78.4501 55.9 78.6501 55.8L80.9501 54.5C81.1501 54.4 81.1501 54.4 81.1501 54.3Z" fill="#393842"/>
<path d="M84.8503 52.2V51.9H84.6503L82.3503 50.6C82.1503 50.5 81.7503 50.5 81.5503 50.6L79.2503 51.9H79.0503V52.2C79.0503 52.3 79.1503 52.4 79.2503 52.4L81.5503 53.7C81.7503 53.8 82.1503 53.8 82.3503 53.7L84.6503 52.4C84.7503 52.3 84.8503 52.2 84.8503 52.2Z" fill="#393842"/>
<path d="M88.9504 49.4H88.7504L86.4504 48.1C86.2504 48 85.8504 48 85.6504 48.1L82.8504 49.7H82.6504V49.9C82.6504 50 82.7504 50.1 82.8504 50.1L85.1504 51.4C85.3504 51.5 85.7504 51.5 85.9504 51.4L88.8504 49.7C88.9504 49.6 89.0504 49.5 89.0504 49.4V49.4H88.9504Z" fill="#393842"/>
<path d="M89.0505 66.7V66.4H88.8505L86.5505 65.1C86.4505 65 86.1505 65 85.9505 65C85.8505 65 85.8505 65 85.7505 65.1L83.4505 66.4H83.2505V66.5L67.1505 75.8L64.9505 77.2H64.7505V77.5C64.7505 77.5 64.7505 77.5 64.7505 77.6C64.7505 77.6 64.7505 77.6 64.8505 77.7L67.1505 79C67.2505 79 67.2505 79.1 67.3505 79.1C67.4505 79.1 67.4505 79.1 67.5505 79.1C67.7505 79.1 67.8505 79.1 67.9505 79L70.2505 77.7L88.9505 66.9C89.0505 66.8 89.0505 66.7 89.0505 66.7Z" fill="#393842"/>
<path d="M41.9503 72.9V72.6H41.8503L41.2503 72.2C41.0503 72.1 40.6503 72.1 40.4503 72.2L38.3503 73.4L38.0503 73.5V73.8C38.0503 73.9 38.1503 74 38.2503 74L38.8503 74.4C39.0503 74.5 39.4503 74.5 39.6503 74.4L41.9503 73.1C41.8503 73 41.9503 73 41.9503 72.9Z" fill="#393842"/>
<path d="M45.5504 70.8V70.5H45.4504L44.8504 70.1C44.6504 70 44.2504 70 44.0504 70.1L41.9504 71.3L41.6504 71.4V71.7C41.6504 71.8 41.7504 71.9 41.8504 71.9L42.4504 72.3C42.6504 72.4 43.0504 72.4 43.2504 72.3L45.5504 71C45.4504 70.9 45.5504 70.9 45.5504 70.8Z" fill="#393842"/>
<path d="M49.1505 68.7V68.4001H49.0505L48.4505 68C48.2505 67.9 47.8505 67.9 47.6505 68L45.5505 69.2L45.2505 69.3001V69.6C45.2505 69.7 45.3505 69.8001 45.4505 69.8001L46.0505 70.2C46.2505 70.3 46.6505 70.3 46.8505 70.2L49.1505 68.9001C49.0505 68.8001 49.1505 68.8 49.1505 68.7Z" fill="#393842"/>
<path d="M52.7504 66.6V66.3001H52.6504L51.9504 66C51.7504 65.9 51.3504 65.9 51.1504 66L48.9504 67.2L48.6504 67.3001V67.6C48.6504 67.7 48.7504 67.8001 48.8504 67.8001L49.4504 68.2C49.6504 68.3 50.0504 68.3 50.2504 68.2L52.5504 66.9001C52.7504 66.7001 52.7504 66.7 52.7504 66.6Z" fill="#393842"/>
<path d="M56.3502 64.5001V64.2001H56.2502L55.6502 63.8001C55.4502 63.7001 55.0502 63.7001 54.8502 63.8001L52.7502 65.0001L52.4502 65.1001V65.4001C52.4502 65.5001 52.5502 65.6001 52.6502 65.6001L53.2502 66.0001C53.4502 66.1001 53.8502 66.1001 54.0502 66.0001L56.3502 64.7001C56.3502 64.6001 56.3502 64.5001 56.3502 64.5001Z" fill="#393842"/>
<path d="M60.0502 62.4V62.1H59.9502L59.3502 61.7C59.1502 61.6 58.7502 61.6 58.5502 61.7L56.2502 63L55.9502 63.1V63.4C55.9502 63.5 56.0502 63.6 56.1502 63.6L56.7502 64C56.9502 64.1 57.3502 64.1 57.5502 64L59.8502 62.7C59.9502 62.5 60.0502 62.4 60.0502 62.4Z" fill="#393842"/>
<path d="M63.6503 60.3C63.6503 60.3 63.6503 60.2 63.6503 60.3V60H63.5503L62.9503 59.6C62.7503 59.5 62.3503 59.5 62.1503 59.6L60.0503 60.8L59.5503 61V61.3C59.5503 61.4 59.6503 61.5 59.7503 61.5L60.3503 61.9C60.5503 62 60.9503 62 61.1503 61.9L63.4503 60.6C63.5503 60.4 63.6503 60.3 63.6503 60.3Z" fill="#393842"/>
<path d="M67.2501 58.2C67.2501 58.1 67.2501 58.1 67.2501 58.2V57.9001H67.1501L66.5501 57.5C66.3501 57.4 65.9501 57.4 65.7501 57.5L63.6501 58.7L63.3501 58.8V59.1C63.3501 59.2 63.4501 59.3 63.5501 59.3L64.1501 59.7C64.3501 59.8 64.7501 59.8 64.9501 59.7L67.2501 58.4001C67.1501 58.3001 67.2501 58.2 67.2501 58.2Z" fill="#393842"/>
<path d="M70.8502 56.0001V55.7001H70.7502L70.1502 55.3001C69.9502 55.2001 69.5502 55.2001 69.3502 55.3001L67.2502 56.5001L66.9502 56.6001V56.9001C66.9502 57.0001 67.0502 57.1001 67.1502 57.1001L67.7502 57.5001C67.9502 57.6001 68.3502 57.6001 68.5502 57.5001L70.8502 56.2001C70.8502 56.2001 70.8502 56.1001 70.8502 56.0001Z" fill="#393842"/>
<path d="M74.4503 53.9V53.6H74.3503L73.7503 53.2C73.5503 53.1 73.1503 53.1 72.9503 53.2L70.8503 54.4L70.5503 54.5V54.8C70.5503 54.9 70.6503 55 70.7503 55L71.3503 55.4C71.5503 55.5 71.9503 55.5 72.1503 55.4L74.4503 54.1C74.4503 54.1 74.4503 54 74.4503 53.9Z" fill="#393842"/>
<path d="M78.1502 51.8V51.5H78.0502L77.4502 51.1C77.2502 51 76.8502 51 76.6502 51.1L74.5502 52.3L73.9502 52.6V52.9C73.9502 53 74.0502 53.1 74.1502 53.1L74.7502 53.5C74.9502 53.6 75.3502 53.6 75.5502 53.5L77.8502 52.2C78.0502 52 78.1502 51.9 78.1502 51.8Z" fill="#393842"/>
<path d="M81.7504 49.7V49.4H81.6504L80.9504 49.1C80.7504 49 80.3504 49 80.1504 49.1L77.9504 50.4L77.6504 50.5V50.8C77.6504 50.9 77.7504 51 77.8504 51L78.4504 51.4C78.6504 51.5 79.0504 51.5 79.2504 51.4L81.5504 50.1C81.6504 49.9 81.7504 49.8 81.7504 49.7Z" fill="#393842"/>
<path d="M85.3501 47.6V47.3H85.2501L84.5501 47C84.3501 46.9 83.9501 46.9 83.7501 47L81.6501 48.2L81.3501 48.3V48.6C81.3501 48.7 81.4501 48.8 81.5501 48.8L82.1501 49.2C82.3501 49.3 82.7501 49.3 82.9501 49.2L85.2501 47.9001C85.2501 47.8001 85.3501 47.7 85.3501 47.6Z" fill="#393842"/>
<path d="M47.0505 78.1001H46.8505L44.5505 76.8001C44.3505 76.7001 43.9505 76.7001 43.7505 76.8001L39.4505 79.3001H39.2505V79.5001C39.2505 79.6001 39.3505 79.7001 39.4505 79.7001L41.7505 81.0001C41.9505 81.1001 42.3505 81.1001 42.5505 81.0001L46.9505 78.5001C47.0505 78.4001 47.1505 78.3001 47.1505 78.3001V78.1001H47.0505Z" fill="#393842"/>
<path d="M52.5502 79.1001H52.3502L50.0502 77.8001C49.8502 77.7001 49.4502 77.7001 49.2502 77.8001L43.2502 81.3001L42.9502 81.4001V81.7001C42.9502 81.8001 43.0502 81.9001 43.1502 81.9001L45.4502 83.2001C45.6502 83.3001 46.0502 83.3001 46.2502 83.2001L52.4502 79.6001C52.5502 79.5001 52.6502 79.4001 52.6502 79.4001V79.1001H52.5502Z" fill="#393842"/>
<path d="M56.2504 81.3001H56.0504L53.7504 80C53.5504 79.9 53.1504 79.9 52.9504 80L46.9504 83.5L46.6504 83.6V83.9001C46.6504 84.0001 46.7504 84.1 46.8504 84.1L49.1504 85.4001C49.3504 85.5001 49.7504 85.5001 49.9504 85.4001L56.1504 81.8001C56.2504 81.7001 56.3504 81.6 56.3504 81.6V81.3001H56.2504Z" fill="#393842"/>
<path d="M92.6505 51.6001H92.4505L90.1505 50.3001C89.9505 50.2001 89.5505 50.2001 89.3505 50.3001L84.9505 52.8001H84.7505V53.0001C84.7505 53.1001 84.8505 53.2001 84.9505 53.2001L87.2505 54.5001C87.4505 54.6001 87.8505 54.6001 88.0505 54.5001L92.4505 51.9001C92.5505 51.8001 92.6505 51.7001 92.6505 51.7001V51.6001Z" fill="#393842"/>
<path d="M96.1501 53.7001L93.8501 52.4001C93.6501 52.3001 93.2501 52.3001 93.0501 52.4001L86.7501 56.0001C86.5501 56.1001 86.5501 56.4001 86.7501 56.5001L89.0501 57.8001C89.2501 57.9001 89.6501 57.9001 89.8501 57.8001L96.1501 54.2001C96.3501 54.1001 96.3501 53.9001 96.1501 53.7001Z" fill="#393842"/>
<path d="M98.2504 59.4V59.1H98.1504L97.5504 58.7C97.3504 58.6 96.9504 58.6 96.7504 58.7L94.4504 60L94.1504 60.1V60.4C94.1504 60.5 94.2504 60.6 94.3504 60.6L94.9504 61C95.1504 61.1 95.5504 61.1 95.7504 61L98.0504 59.7C98.1504 59.6 98.2504 59.5 98.2504 59.4Z" fill="#393842"/>
<path d="M99.9501 60.4V60.1H99.8501L99.2501 59.7C99.0501 59.6 98.6501 59.6 98.4501 59.7L96.1501 61L95.8501 61.1V61.4C95.8501 61.5 95.9501 61.6 96.0501 61.6L96.6501 62C96.8501 62.1 97.2501 62.1 97.4501 62L99.7501 60.7C99.8501 60.5 99.9501 60.4 99.9501 60.4Z" fill="#393842"/>
<path d="M59.7502 79.2001L57.4502 77.9001C57.2502 77.8001 56.8502 77.8001 56.6502 77.9001L54.3502 79.2001C54.1502 79.3001 54.1502 79.6001 54.3502 79.7001L56.6502 81.0001C56.8502 81.1001 57.2502 81.1001 57.4502 81.0001L59.7502 79.7001C59.9502 79.5001 59.9502 79.3001 59.7502 79.2001Z" fill="#393842"/>
<path d="M38.2504 75V74.7H38.0504L37.4504 74.3C37.2504 74.2 36.8504 74.2 36.6504 74.3L33.9504 75.9L33.6504 76V76.3C33.6504 76.4 33.7504 76.5 33.8504 76.5L34.4504 76.9C34.6504 77 35.0504 77 35.2504 76.9L38.1504 75.2C38.2504 75.1 38.3504 75.1 38.2504 75Z" fill="#393842"/>
<path d="M41.2502 76.9L38.9502 75.6C38.7502 75.5 38.3502 75.5 38.1502 75.6L35.8502 76.9C35.6502 77 35.6502 77.3 35.8502 77.4L38.1502 78.7C38.3502 78.8 38.7502 78.8 38.9502 78.7L41.2502 77.4C41.4502 77.3 41.4502 77 41.2502 76.9Z" fill="#57565E"/>
<path d="M44.8503 74.8001L42.5503 73.5C42.3503 73.4 41.9503 73.4 41.7503 73.5L39.4503 74.8001C39.2503 74.9001 39.2503 75.2001 39.4503 75.3001L41.7503 76.6C41.9503 76.7 42.3503 76.7 42.5503 76.6L44.8503 75.3001C45.0503 75.2001 45.0503 74.9001 44.8503 74.8001Z" fill="#57565E"/>
<path d="M48.4503 72.6999L46.1503 71.4C45.9503 71.3 45.5503 71.3 45.3503 71.4L42.9503 72.6999C42.7503 72.7999 42.7503 73.0999 42.9503 73.1999L45.2503 74.4999C45.4503 74.5999 45.8503 74.5999 46.0503 74.4999L48.3503 73.1999C48.6503 72.9999 48.6503 72.7999 48.4503 72.6999Z" fill="#57565E"/>
<path d="M52.05 70.6L49.75 69.3C49.55 69.2 49.15 69.2 48.95 69.3L46.65 70.6C46.45 70.7 46.45 71 46.65 71.1L48.95 72.4C49.15 72.5 49.55 72.5 49.75 72.4L52.05 71.1C52.25 70.9 52.25 70.7 52.05 70.6Z" fill="#57565E"/>
<path d="M55.6501 68.5L53.3501 67.2C53.1501 67.1 52.7501 67.1 52.5501 67.2L50.2501 68.5C50.0501 68.6 50.0501 68.9 50.2501 69L52.5501 70.3C52.7501 70.4 53.1501 70.4 53.3501 70.3L55.6501 69C55.9501 68.8 55.9501 68.6 55.6501 68.5Z" fill="#57565E"/>
<path d="M59.3502 66.4001L56.9502 65C56.7502 64.9 56.3502 64.9 56.1502 65L53.8502 66.3001C53.6502 66.4001 53.6502 66.7001 53.8502 66.8001L56.1502 68.1C56.3502 68.2 56.7502 68.2 56.9502 68.1L59.2502 66.8001C59.5502 66.7001 59.5502 66.5001 59.3502 66.4001Z" fill="#57565E"/>
<path d="M62.9504 64.3001L60.6504 63C60.4504 62.9 60.0504 62.9 59.8504 63L57.5504 64.3001C57.3504 64.4001 57.3504 64.7001 57.5504 64.8001L59.8504 66.1C60.0504 66.2 60.4504 66.2 60.6504 66.1L62.9504 64.8001C63.1504 64.6001 63.1504 64.4001 62.9504 64.3001Z" fill="#57565E"/>
<path d="M66.55 62.2L64.25 60.9C64.05 60.8 63.65 60.8 63.45 60.9L61.15 62.2C60.95 62.3 60.95 62.6 61.15 62.7L63.45 63.9999C63.65 64.0999 64.05 64.0999 64.25 63.9999L66.55 62.7C66.75 62.5 66.75 62.3 66.55 62.2Z" fill="#57565E"/>
<path d="M70.1501 60.1L67.8501 58.8C67.6501 58.7 67.2501 58.7 67.0501 58.8L64.7501 60.1C64.5501 60.2 64.5501 60.5 64.7501 60.6L67.0501 61.9C67.2501 62 67.6501 62 67.8501 61.9L70.1501 60.6C70.3501 60.4 70.3501 60.2 70.1501 60.1Z" fill="#57565E"/>
<path d="M73.7502 58L71.4502 56.7C71.2502 56.6 70.8502 56.6 70.6502 56.7L68.3502 58C68.1502 58.1 68.1502 58.4 68.3502 58.5L70.6502 59.8C70.8502 59.9 71.2502 59.9 71.4502 59.8L73.7502 58.5C74.0502 58.3 74.0502 58.1 73.7502 58Z" fill="#57565E"/>
<path d="M77.3503 55.9L75.0503 54.6C74.8503 54.5 74.4503 54.5 74.2503 54.6L71.9503 55.9C71.7503 56 71.7503 56.3 71.9503 56.4L74.2503 57.7C74.4503 57.8 74.8503 57.8 75.0503 57.7L77.3503 56.4C77.6503 56.2 77.6503 56 77.3503 55.9Z" fill="#57565E"/>
<path d="M54.1501 73.6L51.8501 72.3C51.6501 72.2 51.2501 72.2 51.0501 72.3L48.7501 73.6C48.5501 73.7 48.5501 74 48.7501 74.1L51.0501 75.4C51.2501 75.5 51.6501 75.5 51.8501 75.4L54.1501 74.1C54.3501 74 54.3501 73.7 54.1501 73.6Z" fill="#57565E"/>
<path d="M57.7502 71.5L55.4502 70.2C55.2502 70.1 54.8502 70.1 54.6502 70.2L52.3502 71.5C52.1502 71.6 52.1502 71.9 52.3502 72L54.6502 73.3C54.8502 73.4 55.2502 73.4 55.4502 73.3L57.7502 72C57.9502 71.9 57.9502 71.6 57.7502 71.5Z" fill="#57565E"/>
<path d="M61.3503 69.4L59.0503 68.1C58.8503 68 58.4503 68 58.2503 68.1L55.9503 69.4C55.7503 69.5 55.7503 69.8 55.9503 69.9L58.2503 71.2C58.4503 71.3 58.8503 71.3 59.0503 71.2L61.3503 69.9C61.6503 69.8 61.6503 69.5 61.3503 69.4Z" fill="#57565E"/>
<path d="M64.9504 67.3001L62.6504 66C62.4504 65.9 62.0504 65.9 61.8504 66L59.5504 67.3001C59.3504 67.4001 59.3504 67.7001 59.5504 67.8001L61.8504 69.1C62.0504 69.2 62.4504 69.2 62.6504 69.1L64.9504 67.8001C65.2504 67.7001 65.2504 67.4001 64.9504 67.3001Z" fill="#57565E"/>
<path d="M68.6501 65.1999L66.3501 63.9C66.1501 63.8 65.7501 63.8 65.5501 63.9L63.2501 65.1999C63.0501 65.2999 63.0501 65.5999 63.2501 65.6999L65.5501 66.9999C65.7501 67.0999 66.1501 67.0999 66.3501 66.9999L68.6501 65.6999C68.8501 65.4999 68.8501 65.2999 68.6501 65.1999Z" fill="#57565E"/>
<path d="M72.2502 63.1L69.9502 61.7C69.7502 61.6 69.3502 61.6 69.1502 61.7L66.8502 63C66.6502 63.1 66.6502 63.4 66.8502 63.5L69.1502 64.8C69.3502 64.9 69.7502 64.9 69.9502 64.8L72.2502 63.5C72.4502 63.4 72.4502 63.2 72.2502 63.1Z" fill="#57565E"/>
<path d="M75.8502 61L73.5502 59.7C73.3502 59.6 72.9502 59.6 72.7502 59.7L70.3502 61C70.1502 61.1 70.1502 61.4 70.3502 61.5L72.6502 62.8C72.8502 62.9 73.2502 62.9 73.4502 62.8L75.7502 61.5C76.0502 61.3 76.0502 61.1 75.8502 61Z" fill="#57565E"/>
<path d="M79.4503 58.9L77.1503 57.6C76.9503 57.5 76.5503 57.5 76.3503 57.6L73.9503 58.9C73.7503 59 73.7503 59.3 73.9503 59.4L76.2503 60.7C76.4503 60.8 76.8503 60.8 77.0503 60.7L79.3503 59.4C79.7503 59.2 79.6503 59 79.4503 58.9Z" fill="#57565E"/>
<path d="M83.05 56.8L80.75 55.5C80.55 55.4 80.15 55.4 79.95 55.5L77.65 56.8C77.45 56.9 77.45 57.2 77.65 57.3L79.95 58.6C80.15 58.7 80.55 58.7 80.75 58.6L83.05 57.3C83.35 57.1 83.35 56.9 83.05 56.8Z" fill="#57565E"/>
<path d="M86.7502 54.7L84.4502 53.4C84.2502 53.3 83.8502 53.3 83.6502 53.4L81.3502 54.7C81.1502 54.8 81.1502 55.1 81.3502 55.2L83.6502 56.4999C83.8502 56.5999 84.2502 56.5999 84.4502 56.4999L86.7502 55.2C86.9502 55 86.9502 54.8 86.7502 54.7Z" fill="#57565E"/>
<path d="M81.05 53.8L78.75 52.5C78.55 52.4 78.15 52.4 77.95 52.5L75.65 53.8C75.45 53.9 75.45 54.2 75.65 54.3L77.95 55.6C78.15 55.7 78.55 55.7 78.75 55.6L81.05 54.3C81.25 54.1 81.25 53.9 81.05 53.8Z" fill="#57565E"/>
<path d="M84.6501 51.7L82.3501 50.4C82.1501 50.3 81.7501 50.3 81.5501 50.4L79.2501 51.7C79.0501 51.8 79.0501 52.1 79.2501 52.2L81.5501 53.4999C81.7501 53.5999 82.1501 53.5999 82.3501 53.4999L84.6501 52.2C84.8501 52 84.8501 51.8 84.6501 51.7Z" fill="#57565E"/>
<path d="M55.8503 85.4001L53.5503 84C53.3503 83.9 52.9503 83.9 52.7503 84L50.4503 85.3001C50.2503 85.4001 50.2503 85.7001 50.4503 85.8001L52.7503 87.1C52.9503 87.2 53.3503 87.2 53.5503 87.1L55.8503 85.8001C56.1503 85.7001 56.1503 85.5001 55.8503 85.4001Z" fill="#57565E"/>
<path d="M59.4504 83.3001L57.1504 82C56.9504 81.9 56.5504 81.9 56.3504 82L54.0504 83.3001C53.8504 83.4001 53.8504 83.7001 54.0504 83.8001L56.3504 85.1C56.5504 85.2 56.9504 85.2 57.1504 85.1L59.4504 83.8001C59.7504 83.6001 59.7504 83.4001 59.4504 83.3001Z" fill="#57565E"/>
<path d="M63.1501 81.1999L60.8501 79.9C60.6501 79.8 60.2501 79.8 60.0501 79.9L57.7501 81.1999C57.5501 81.2999 57.5501 81.5999 57.7501 81.6999L59.9501 82.9999C60.1501 83.0999 60.5501 83.0999 60.7501 82.9999L63.0501 81.6999C63.3501 81.4999 63.3501 81.2999 63.1501 81.1999Z" fill="#57565E"/>
<path d="M66.7502 79.1L64.4502 77.8C64.2502 77.7 63.8502 77.7 63.6502 77.8L61.3502 79.1C61.1502 79.2 61.1502 79.5 61.3502 79.6L63.6502 80.9C63.8502 81 64.2502 81 64.4502 80.9L66.7502 79.6C66.9502 79.4 66.9502 79.2 66.7502 79.1Z" fill="#57565E"/>
<path d="M50.55 75.6999L48.25 74.4C48.05 74.3 47.65 74.3 47.45 74.4L45.15 75.6999C44.95 75.7999 44.95 76.0999 45.15 76.1999L47.45 77.4999C47.65 77.5999 48.05 77.5999 48.25 77.4999L50.55 76.1999C50.75 76.0999 50.75 75.7999 50.55 75.6999Z" fill="#57565E"/>
<path d="M88.8502 49.2L86.5502 47.9C86.3502 47.8 85.9502 47.8 85.7502 47.9L82.8502 49.5999C82.6502 49.6999 82.6502 49.9999 82.8502 50.0999L85.1502 51.4C85.3502 51.5 85.7502 51.5 85.9502 51.4L88.8502 49.7C89.0502 49.6 89.0502 49.4 88.8502 49.2Z" fill="#57565E"/>
<path d="M88.9502 66.1999L86.6502 64.9C86.4502 64.8 86.0502 64.8 85.8502 64.9L64.8502 76.9999C64.6502 77.0999 64.6502 77.3999 64.8502 77.4999L67.1502 78.8C67.3502 78.9 67.7502 78.9 67.9502 78.8L88.9502 66.6999C89.1502 66.4999 89.1502 66.2999 88.9502 66.1999Z" fill="#57565E"/>
<path d="M41.7503 72.4001L41.1503 72C40.9503 71.9 40.5503 71.9 40.3503 72L37.9503 73.3001C37.7503 73.4001 37.7503 73.7001 37.9503 73.8001L38.5503 74.2C38.7503 74.3 39.1503 74.3 39.3503 74.2L41.6503 72.9001C41.9503 72.7001 41.9503 72.5001 41.7503 72.4001Z" fill="#57565E"/>
<path d="M45.35 70.3L44.75 69.9C44.55 69.8 44.15 69.8 43.95 69.9L41.65 71.1999C41.45 71.2999 41.45 71.5999 41.65 71.6999L42.25 72.0999C42.45 72.1999 42.85 72.1999 43.05 72.0999L45.35 70.8C45.55 70.6 45.55 70.4 45.35 70.3Z" fill="#57565E"/>
<path d="M48.9501 68.2L48.3501 67.8C48.1501 67.7 47.7501 67.7 47.5501 67.8L45.2501 69.1C45.0501 69.2 45.0501 69.5 45.2501 69.6L45.8501 70C46.0501 70.1 46.4501 70.1 46.6501 70L48.9501 68.7C49.2501 68.5 49.2501 68.3 48.9501 68.2Z" fill="#57565E"/>
<path d="M52.5502 66.1L51.9502 65.7C51.7502 65.6 51.3502 65.6 51.1502 65.7L48.8502 67C48.6502 67.1 48.6502 67.4 48.8502 67.5L49.4502 67.9C49.6502 68 50.0502 68 50.2502 67.9L52.5502 66.6C52.8502 66.4 52.8502 66.2 52.5502 66.1Z" fill="#57565E"/>
<path d="M56.2504 64L55.6504 63.6C55.4504 63.5 55.0504 63.5 54.8504 63.6L52.5504 64.9C52.3504 65 52.3504 65.3 52.5504 65.4L53.1504 65.8C53.3504 65.9 53.7504 65.9 53.9504 65.8L56.2504 64.5C56.4504 64.3 56.4504 64.1 56.2504 64Z" fill="#57565E"/>
<path d="M59.85 61.9001L59.25 61.5C59.05 61.4 58.65 61.4 58.45 61.5L56.15 62.8C55.95 62.9 55.95 63.2 56.15 63.3L56.75 63.7C56.95 63.8 57.35 63.8 57.55 63.7L59.85 62.4001C60.05 62.2001 60.05 62.0001 59.85 61.9001Z" fill="#57565E"/>
<path d="M63.4501 59.7L62.8501 59.3C62.6501 59.2 62.2501 59.2 62.0501 59.3L59.7501 60.6C59.5501 60.7 59.5501 61 59.7501 61.1L60.3501 61.5C60.5501 61.6 60.9501 61.6 61.1501 61.5L63.4501 60.2C63.6501 60.1 63.6501 59.9 63.4501 59.7Z" fill="#57565E"/>
<path d="M67.0502 57.6L66.4502 57.2C66.2502 57.1 65.8502 57.1 65.6502 57.2L63.3502 58.5C63.1502 58.6 63.1502 58.9 63.3502 59L63.9502 59.4C64.1502 59.5 64.5502 59.5 64.7502 59.4L67.0502 58.1C67.3502 58 67.3502 57.8 67.0502 57.6Z" fill="#57565E"/>
<path d="M70.6503 55.5L70.0503 55.1C69.8503 55 69.4503 55 69.2503 55.1L66.9503 56.5C66.7503 56.6 66.7503 56.9 66.9503 57L67.5503 57.4C67.7503 57.5 68.1503 57.5 68.3503 57.4L70.6503 56.1C70.9503 55.9 70.9503 55.7 70.6503 55.5Z" fill="#57565E"/>
<path d="M74.35 53.4001L73.75 53C73.55 52.9 73.15 52.9 72.95 53L70.65 54.3C70.45 54.4 70.45 54.7 70.65 54.8L71.25 55.2C71.45 55.3 71.85 55.3 72.05 55.2L74.35 53.9001C74.55 53.8001 74.55 53.6001 74.35 53.4001Z" fill="#57565E"/>
<path d="M77.9501 51.3L77.3501 51C77.1501 50.9 76.7501 50.9 76.5501 51L74.2501 52.3C74.0501 52.4 74.0501 52.7 74.2501 52.8L74.8501 53.2C75.0501 53.3 75.4501 53.3 75.6501 53.2L77.9501 51.9001C78.1501 51.7001 78.1501 51.5 77.9501 51.3Z" fill="#57565E"/>
<path d="M81.5502 49.2L80.9502 48.9C80.7502 48.8 80.3502 48.8 80.1502 48.9L77.8502 50.2C77.6502 50.3 77.6502 50.6 77.8502 50.7L78.4502 51.0999C78.6502 51.1999 79.0502 51.1999 79.2502 51.0999L81.5502 49.7999C81.7502 49.5999 81.7502 49.4 81.5502 49.2Z" fill="#57565E"/>
<path d="M85.1503 47.1L84.5503 46.7C84.3503 46.6 83.9503 46.6 83.7503 46.7L81.4503 48C81.2503 48.1 81.2503 48.4 81.4503 48.5L82.0503 48.9C82.2503 49 82.6503 49 82.8503 48.9L85.1503 47.6C85.4503 47.5 85.4503 47.3 85.1503 47.1Z" fill="#57565E"/>
<path d="M38.1502 74.5L37.5502 74.1C37.3502 74 36.9502 74 36.7502 74.1L33.8502 75.8C33.6502 75.9 33.6502 76.2 33.8502 76.3L34.4502 76.7C34.6502 76.8 35.0502 76.8 35.2502 76.7L38.1502 75C38.3502 74.8 38.3502 74.6 38.1502 74.5Z" fill="#57565E"/>
<path d="M46.9502 77.8001L44.6502 76.5C44.4502 76.4 44.0502 76.4 43.8502 76.5L39.3502 79C39.1502 79.1 39.1502 79.4 39.3502 79.5L41.6502 80.8001C41.8502 80.9001 42.2502 80.9001 42.4502 80.8001L46.8502 78.3001C47.1502 78.2001 47.1502 78.0001 46.9502 77.8001Z" fill="#57565E"/>
<path d="M52.3504 78.9L50.0504 77.6C49.8504 77.5 49.4504 77.5 49.2504 77.6L43.0504 81.2C42.8504 81.3 42.8504 81.6 43.0504 81.7L45.3504 83C45.5504 83.1 45.9504 83.1 46.1504 83L52.3504 79.4C52.6504 79.2 52.6504 79 52.3504 78.9Z" fill="#57565E"/>
<path d="M56.0501 81L53.7501 79.7C53.5501 79.6 53.1501 79.6 52.9501 79.7L46.7501 83.3C46.5501 83.4 46.5501 83.7 46.7501 83.8L49.0501 85.1C49.2501 85.2 49.6501 85.2 49.8501 85.1L56.0501 81.5C56.3501 81.4 56.3501 81.2 56.0501 81Z" fill="#57565E"/>
<path d="M92.4503 51.3L90.1503 50C89.9503 49.9 89.5503 49.9 89.3503 50L84.9503 52.6C84.7503 52.7 84.7503 53 84.9503 53.1L87.2503 54.4001C87.4503 54.5001 87.8503 54.5001 88.0503 54.4001L92.4503 51.8C92.7503 51.7 92.7503 51.5 92.4503 51.3Z" fill="#57565E"/>
<path d="M96.1501 53.5L93.8501 52.2C93.6501 52.1 93.2501 52.1 93.0501 52.2L86.7501 55.8C86.5501 55.9 86.5501 56.2 86.7501 56.3L89.0501 57.6C89.2501 57.7 89.6501 57.7 89.8501 57.6L96.1501 54C96.3501 53.8 96.3501 53.6 96.1501 53.5Z" fill="#57565E"/>
<path d="M98.0502 58.9001L97.4502 58.5C97.2502 58.4 96.8502 58.4 96.6502 58.5L94.3502 59.8C94.1502 59.9 94.1502 60.2 94.3502 60.3L94.9502 60.7C95.1502 60.8 95.5502 60.8 95.7502 60.7L98.0502 59.4001C98.3502 59.2001 98.3502 59.0001 98.0502 58.9001Z" fill="#57565E"/>
<path d="M99.7503 59.9001L99.1503 59.5C98.9503 59.4 98.5503 59.4 98.3503 59.5L95.9503 60.8C95.7503 60.9 95.7503 61.2 95.9503 61.3L96.5503 61.7C96.7503 61.8 97.1503 61.8 97.3503 61.7L99.6503 60.4001C100.05 60.2001 100.05 60.0001 99.7503 59.9001Z" fill="#57565E"/>
<path d="M84.9503 60L82.6503 58.7C82.4503 58.6 82.0503 58.6 81.8503 58.7L79.4503 60C79.2503 60.1 79.2503 60.4 79.4503 60.5L81.7503 61.8C81.9503 61.9 82.3503 61.9 82.5503 61.8L84.8503 60.5C85.2503 60.3 85.2503 60.1 84.9503 60Z" fill="#57565E"/>
<path d="M88.55 57.9L86.25 56.6C86.05 56.5 85.65 56.5 85.45 56.6L83.15 57.9C82.95 58 82.95 58.3 83.15 58.4L85.45 59.7C85.65 59.8 86.05 59.8 86.25 59.7L88.55 58.4C88.85 58.2 88.85 58 88.55 57.9Z" fill="#57565E"/>
<path d="M88.6501 62.1L86.3501 60.8C86.1501 60.7 85.7501 60.7 85.5501 60.8L83.2501 62.1C83.0501 62.2 83.0501 62.5 83.2501 62.6L85.5501 63.9C85.7501 64 86.1501 64 86.3501 63.9L88.6501 62.6C88.8501 62.4 88.8501 62.2 88.6501 62.1Z" fill="#57565E"/>
<path d="M92.2502 60L89.9502 58.7C89.7502 58.6 89.3502 58.6 89.1502 58.7L86.8502 60C86.6502 60.1 86.6502 60.4 86.8502 60.5L89.1502 61.8C89.3502 61.9 89.7502 61.9 89.9502 61.8L92.2502 60.5C92.5502 60.3 92.5502 60.1 92.2502 60Z" fill="#57565E"/>
<path d="M95.8503 57.9L93.5503 56.6C93.3503 56.5 92.9503 56.5 92.7503 56.6L90.4503 57.9C90.2503 58 90.2503 58.3 90.4503 58.4L92.7503 59.7C92.9503 59.8 93.3503 59.8 93.5503 59.7L95.8503 58.4C96.1503 58.2 96.1503 58 95.8503 57.9Z" fill="#57565E"/>
<path d="M99.85 55.6L97.55 54.3C97.35 54.2 96.95 54.2 96.75 54.3L94.15 55.8C93.95 55.9 93.95 56.2 94.15 56.3L96.45 57.6C96.65 57.7 97.05 57.7 97.25 57.6L99.85 56.1C100.05 56 100.05 55.7 99.85 55.6Z" fill="#57565E"/>
<path d="M77.7502 64.1999L75.4502 62.9C75.2502 62.8 74.8502 62.8 74.6502 62.9L72.3502 64.1999C72.1502 64.2999 72.1502 64.5999 72.3502 64.6999L74.6502 65.9999C74.8502 66.0999 75.2502 66.0999 75.4502 65.9999L77.7502 64.6999C77.9502 64.4999 77.9502 64.2999 77.7502 64.1999Z" fill="#57565E"/>
<path d="M81.3503 62.1L79.0503 60.8C78.8503 60.7 78.4503 60.7 78.2503 60.8L75.9503 62.1C75.7503 62.2 75.7503 62.5 75.9503 62.6L78.2503 63.9C78.4503 64 78.8503 64 79.0503 63.9L81.3503 62.6C81.5503 62.4 81.5503 62.2 81.3503 62.1Z" fill="#57565E"/>
<path d="M81.4503 66.3001L79.0503 65C78.8503 64.9 78.4503 64.9 78.2503 65L75.9503 66.3001C75.7503 66.4001 75.7503 66.7001 75.9503 66.8001L78.2503 68.1C78.4503 68.2 78.8503 68.2 79.0503 68.1L81.3503 66.8001C81.6503 66.7001 81.6503 66.4001 81.4503 66.3001Z" fill="#57565E"/>
<path d="M85.05 64.1999L82.75 62.9C82.55 62.8 82.15 62.8 81.95 62.9L79.65 64.1999C79.45 64.2999 79.45 64.5999 79.65 64.6999L81.95 65.9999C82.15 66.0999 82.55 66.0999 82.75 65.9999L85.05 64.6999C85.25 64.5999 85.25 64.2999 85.05 64.1999Z" fill="#57565E"/>
<path d="M70.4504 68.4001L68.1504 67C67.9504 66.9 67.5504 66.9 67.3504 67L65.0504 68.3001C64.8504 68.4001 64.8504 68.7001 65.0504 68.8001L67.3504 70.1C67.5504 70.2 67.9504 70.2 68.1504 70.1L70.4504 68.8001C70.7504 68.7001 70.7504 68.5001 70.4504 68.4001Z" fill="#57565E"/>
<path d="M74.1501 66.3001L71.8501 65C71.6501 64.9 71.2501 64.9 71.0501 65L68.7501 66.3001C68.5501 66.4001 68.5501 66.7001 68.7501 66.8001L71.0501 68.1C71.2501 68.2 71.6501 68.2 71.8501 68.1L74.1501 66.8001C74.3501 66.6001 74.3501 66.4001 74.1501 66.3001Z" fill="#57565E"/>
<path d="M74.1501 70.5L71.8501 69.2C71.6501 69.1 71.2501 69.1 71.0501 69.2L68.7501 70.5C68.5501 70.6 68.5501 70.9 68.7501 71L71.0501 72.3C71.2501 72.4 71.6501 72.4 71.8501 72.3L74.1501 71C74.4501 70.9 74.4501 70.6 74.1501 70.5Z" fill="#57565E"/>
<path d="M77.8503 68.4L75.5503 67.1C75.3503 67 74.9503 67 74.7503 67.1L72.4503 68.4C72.2503 68.5 72.2503 68.8 72.4503 68.9L74.7503 70.2C74.9503 70.3 75.3503 70.3 75.5503 70.2L77.8503 68.9C78.0503 68.8 78.0503 68.5 77.8503 68.4Z" fill="#57565E"/>
<path d="M63.2502 72.6L60.9502 71.2C60.7502 71.1 60.3502 71.1 60.1502 71.2L57.8502 72.5C57.6502 72.6 57.6502 72.9 57.8502 73L60.1502 74.3C60.3502 74.4 60.7502 74.4 60.9502 74.3L63.2502 73C63.4502 72.9 63.4502 72.7 63.2502 72.6Z" fill="#57565E"/>
<path d="M66.8503 70.5L64.5503 69.2C64.3503 69.1 63.9503 69.1 63.7503 69.2L61.4503 70.5C61.2503 70.6 61.2503 70.9 61.4503 71L63.7503 72.3C63.9503 72.4 64.3503 72.4 64.5503 72.3L66.8503 71C67.1503 70.8 67.1503 70.6 66.8503 70.5Z" fill="#57565E"/>
<path d="M66.9504 74.6999L64.6504 73.4C64.4504 73.3 64.0504 73.3 63.8504 73.4L61.5504 74.6999C61.3504 74.7999 61.3504 75.0999 61.5504 75.1999L63.8504 76.4999C64.0504 76.5999 64.4504 76.5999 64.6504 76.4999L66.9504 75.1999C67.1504 75.0999 67.1504 74.8999 66.9504 74.6999Z" fill="#57565E"/>
<path d="M70.55 72.6L68.25 71.3C68.05 71.2 67.65 71.2 67.45 71.3L65.15 72.6C64.95 72.7 64.95 73 65.15 73.1L67.45 74.4C67.65 74.5 68.05 74.5 68.25 74.4L70.55 73.1C70.75 73 70.75 72.7 70.55 72.6Z" fill="#57565E"/>
<path d="M56.05 76.8001L53.75 75.5C53.55 75.4 53.15 75.4 52.95 75.5L50.65 76.8001C50.45 76.9001 50.45 77.2001 50.65 77.3001L52.95 78.6C53.15 78.7 53.55 78.7 53.75 78.6L56.05 77.3001C56.25 77.1001 56.25 76.9001 56.05 76.8001Z" fill="#57565E"/>
<path d="M59.6501 74.6999L57.3501 73.4C57.1501 73.3 56.7501 73.3 56.5501 73.4L54.2501 74.6999C54.0501 74.7999 54.0501 75.0999 54.2501 75.1999L56.5501 76.4999C56.7501 76.5999 57.1501 76.5999 57.3501 76.4999L59.6501 75.1999C59.8501 74.9999 59.8501 74.7999 59.6501 74.6999Z" fill="#57565E"/>
<path d="M59.7502 78.9L57.4502 77.6C57.2502 77.5 56.8502 77.5 56.6502 77.6L54.3502 78.9C54.1502 79 54.1502 79.3 54.3502 79.4L56.6502 80.7C56.8502 80.8 57.2502 80.8 57.4502 80.7L59.7502 79.4C59.9502 79.3 59.9502 79.1 59.7502 78.9Z" fill="#57565E"/>
<path d="M63.3502 76.8001L60.9502 75.5C60.7502 75.4 60.3502 75.4 60.1502 75.5L57.8502 76.8001C57.6502 76.9001 57.6502 77.2001 57.8502 77.3001L60.1502 78.6C60.3502 78.7 60.7502 78.7 60.9502 78.6L63.2502 77.3001C63.5502 77.2001 63.5502 77.0001 63.3502 76.8001Z" fill="#57565E"/>
<path d="M92.55 64.1L90.25 62.8C90.05 62.7 89.65 62.7 89.45 62.8L87.15 64.1C86.95 64.2 86.95 64.5 87.15 64.6L89.45 65.9C89.65 66 90.05 66 90.25 65.9L92.55 64.6C92.75 64.4 92.75 64.2 92.55 64.1Z" fill="#57565E"/>
<path d="M96.15 62L93.85 60.7C93.65 60.6 93.25 60.6 93.05 60.7L90.65 62C90.45 62.1 90.45 62.4 90.65 62.5L92.95 63.8C93.15 63.9 93.55 63.9 93.75 63.8L96.05 62.5C96.35 62.3 96.35 62.1 96.15 62Z" fill="#57565E"/>
<path d="M103.45 57.7L101.15 56.4C100.95 56.3 100.55 56.3 100.35 56.4L98.0504 57.7C97.8504 57.8 97.8504 58.1 98.0504 58.2L100.35 59.4999C100.55 59.5999 100.95 59.5999 101.15 59.4999L103.45 58.2C103.75 58.1 103.75 57.8 103.45 57.7Z" fill="#57565E"/>
<defs>
<linearGradient id="paint0_linear_25_199" x1="36.6825" y1="70.5905" x2="63.3038" y2="1.8467" gradientUnits="userSpaceOnUse">
<stop offset="0.0138473" stop-color="#A0A6C0"/>
<stop offset="0.3825" stop-color="#A0A6C0"/>
<stop offset="0.386" stop-color="#ADB2C9"/>
<stop offset="0.3943" stop-color="#C6C9DA"/>
<stop offset="0.4029" stop-color="#D9DAE6"/>
<stop offset="0.4119" stop-color="#E3E4EE"/>
<stop offset="0.422" stop-color="#E7E7F0"/>
</linearGradient>
<linearGradient id="paint1_linear_25_199" x1="29.8812" y1="72.4532" x2="118.739" y2="72.4532" gradientUnits="userSpaceOnUse">
<stop offset="0.0138473" stop-color="#A0A6C0"/>
<stop offset="0.3825" stop-color="#A0A6C0"/>
<stop offset="0.3848" stop-color="#A3A9C2"/>
<stop offset="0.3997" stop-color="#B6BACE"/>
<stop offset="0.4155" stop-color="#C0C5D6"/>
<stop offset="0.4331" stop-color="#C4C8D8"/>
<stop offset="0.9356" stop-color="#C4C8D8"/>
<stop offset="0.979" stop-color="#C4C8D8"/>
<stop offset="1" stop-color="#C4C8D8"/>
</linearGradient>
</defs>
</svg>
