<svg width="25" height="25" viewBox="0 0 25 25" fill="none" xmlns="http://www.w3.org/2000/svg">
<path d="M5.34497 11.9165L11.9163 5.34619L9.76197 3.19189L6.75025 6.20361C6.71433 6.2396 6.67167 6.26815 6.62471 6.28763C6.57775 6.3071 6.52741 6.31713 6.47657 6.31713C6.42572 6.31713 6.37538 6.3071 6.32842 6.28763C6.28146 6.26815 6.2388 6.2396 6.20288 6.20361L5.65552 5.65625C5.50415 5.50488 5.50415 5.25977 5.65552 5.10889L8.66724 2.09717L7.02466 0.454102C6.41968 -0.150879 5.43921 -0.150879 4.83423 0.454102L0.45386 4.83447C-0.150632 5.43945 -0.15112 6.41992 0.45386 7.0249L5.34497 11.9165ZM24.3132 6.21338C25.2293 5.29736 25.2288 3.8125 24.3132 2.89648L22.1038 0.687012C21.1877 -0.229004 19.7024 -0.229004 18.7859 0.687012L16.5388 2.93359L22.0662 8.46094L24.3132 6.21338ZM15.4338 4.03906L0.931888 18.5391L0.015872 23.7852C-0.107663 24.4927 0.508548 25.1089 1.21656 24.9844L6.46314 24.0645L20.9612 9.56592L15.4338 4.03906ZM24.5466 17.9761L22.9041 16.3335L19.8923 19.3452C19.741 19.4966 19.4959 19.4966 19.345 19.3452L18.7976 18.7979C18.6467 18.6465 18.6467 18.4014 18.7976 18.2505L21.8093 15.2388L19.6541 13.0835L13.0828 19.6538L17.9758 24.5464C18.5808 25.1514 19.5613 25.1514 20.1663 24.5464L24.5466 20.1665C25.1516 19.5615 25.1516 18.5811 24.5466 17.9761Z" fill="#14b8a6"/>
</svg>
