<svg width="25" height="24" viewBox="0 0 25 24" fill="none" xmlns="http://www.w3.org/2000/svg">
<path d="M24.2552 13.2351H13.3503L20.6127 20.4975C20.8903 20.7751 21.3471 20.7976 21.6325 20.5288C23.4109 18.8532 24.6343 16.5945 24.9932 14.0554C25.0548 13.6207 24.694 13.2351 24.2552 13.2351V13.2351ZM23.5277 10.2572C23.149 4.76729 18.762 0.380338 13.2722 0.00166177C12.853 -0.0272904 12.5001 0.32611 12.5001 0.746147V11.0292H22.7836C23.2037 11.0292 23.5566 10.6763 23.5277 10.2572ZM10.2942 13.2351V2.33025C10.2942 1.89137 9.90865 1.53061 9.47436 1.59219C3.9978 2.36609 -0.188319 7.15056 0.00653426 12.8845C0.206902 18.7733 5.27721 23.6023 11.1688 23.5283C13.4849 23.4994 15.6251 22.753 17.3848 21.5049C17.7478 21.2475 17.7717 20.7131 17.4569 20.3983L10.2942 13.2351Z" fill="#0EA5E9"/>
</svg>
