<svg version="1.1" xmlns="http://www.w3.org/2000/svg" xmlns:xlink="http://www.w3.org/1999/xlink" x="0px" y="0px" width="376px"
	 height="277px" viewBox="0 0 376 277" style="overflow:visible;enable-background:new 0 0 376 277;" xml:space="preserve">
<style type="text/css">
	<!-- .st0{fill:#3B82F6;} -->
	.st0{fill:#eab308;}
</style>
<defs>
</defs>
<g>
	<path class="st0" d="M351,0H25C11.2,0,0,11.2,0,25v42v185c0,13.8,11.2,25,25,25h326c13.8,0,25-11.2,25-25V67V25
		C376,11.2,364.8,0,351,0z M10,25c0-8.3,6.7-15,15-15h326c8.3,0,15,6.7,15,15v32H10V25z M366,252c0,8.3-6.7,15-15,15H25
		c-8.3,0-15-6.7-15-15V67h356V252z"/>
	<path class="st0" d="M105.2,120.5c1.1,1.2,2.6,1.7,4.1,1.7c1.4,0,2.9-0.5,4-1.6c2.3-2.2,2.3-5.8,0.1-8.1L91.6,90.2
		c-2.2-2.3-5.8-2.3-8.1-0.1c-2.3,2.2-2.3,5.8-0.1,8.1L105.2,120.5z"/>
	<path class="st0" d="M134.3,110.9C134.3,110.9,134.4,110.9,134.3,110.9c3.2,0,5.8-2.5,5.8-5.6l0.2-13.2c0-3.2-2.5-5.8-5.6-5.8
		c0,0-0.1,0-0.1,0c-3.1,0-5.7,2.5-5.7,5.6l-0.2,13.2C128.6,108.2,131.2,110.8,134.3,110.9z"/>
	<path class="st0" d="M86,146.5l13.2,0.2c0,0,0.1,0,0.1,0c3.1,0,5.7-2.5,5.7-5.6c0-3.2-2.5-5.8-5.6-5.8l-13.2-0.2
		c-3.2-0.1-5.8,2.5-5.8,5.6C80.4,143.9,82.9,146.5,86,146.5z"/>
	<path class="st0" d="M223,239.9l11.7,11.7c3.2,3.2,8.5,3.2,11.7,0l46.8-46.8c3.2-3.2,3.2-8.5,0-11.7l-11.7-11.7
		c-3.2-3.2-8.5-3.2-11.7,0L223,228.2C219.7,231.4,219.7,236.6,223,239.9z M270.8,194c2.7-2.7,7.1-2.7,9.7,0c2.7,2.7,2.7,7.1,0,9.8
		c-2.7,2.7-7.1,2.7-9.8,0C268.1,201.1,268.1,196.7,270.8,194z"/>
	<path class="st0" d="M158.1,184.8c-3.4,0.6-6.6,1.5-9.5,2.6c-11.1,4.4-13.9,18.7-5.6,27.1c4.5,4.5,10.5,5.2,16.8,2.7
		c9.8-3.9,34.9,3.5,45.1,7.4c6.3,2.4,13.1,0.7,17.6-3.7l0,0l41.8-41.8c2.9-2.9,3.2-7.4,0.8-10.7c-9.6-13.2-5.7-24.4-20.8-39.5
		c-0.7-0.7-3.2-3.3-3.9-3.9c-12.3-12.3-25.3-14.5-35.1-0.3c-6.8-2.3-17.1,2.1-19.2,11.2c-11.2-0.8-18.7,7.6-18.8,15.8l-24.3-24.3
		c-5.9-5.9-15.8-6-21.6-0.2c-5.7,5.7-5.5,15.9,0.2,21.6L158.1,184.8z"/>
	<circle class="st0" cx="32.2" cy="34" r="8"/>
	<circle class="st0" cx="57.1" cy="34" r="8"/>
	<circle class="st0" cx="82" cy="34" r="8"/>
	<path class="st0" d="M344.3,26H161.1c-4.4,0-8,3.6-8,8s3.6,8,8,8h183.2c4.4,0,8-3.6,8-8S348.7,26,344.3,26z"/>
</g>
</svg>
