<svg width="22" height="23" viewBox="0 0 22 23" fill="none" xmlns="http://www.w3.org/2000/svg">
<path d="M19.9603 6.0506C19.9106 7.03855 18.9709 7.40975 18.242 6.741C17.9106 6.4369 17.5138 6.06255 17.0418 5.60285C15.9756 6.5731 14.322 8.08585 12.3506 9.91645C11.8329 10.3972 10.992 10.3435 10.5397 9.8007L10.5394 9.8003C9.6518 8.73835 8.75755 7.6807 7.8322 6.6514C6.7509 7.4453 4.81 8.95825 2.88389 10.8844C2.39573 11.3725 1.60427 11.3725 1.11612 10.8844C0.62796 10.3962 0.62796 9.60475 1.11612 9.1166C3.00573 7.227 5.079 5.4545 7.30255 3.96314L7.306 3.96082C7.30685 3.96027 7.3066 3.96042 7.3066 3.96042C7.8024 3.6299 8.46255 3.69527 8.8839 4.1166C9.8519 5.08455 10.7265 6.14925 11.6118 7.19265C13.1169 5.80065 14.3848 4.64087 15.274 3.8314C14.8705 3.41506 14.5362 3.06006 14.26 2.75898C13.591 2.02997 13.9624 1.08998 14.9506 1.04025C16.2115 0.976795 17.5055 0.939456 18.7511 1.17232C19.3119 1.27718 19.7233 1.68863 19.8281 2.24948C20.061 3.49521 20.0238 4.78949 19.9603 6.0506Z" fill="white"/>
<path d="M1.60946 22.9843C0.77292 22.9631 0.13928 22.4599 0.0708899 21.6259C0.02993 21.1264 0 20.4398 0 19.5C0 18.5602 0.02993 17.8736 0.0708899 17.3741C0.13928 16.5401 0.77292 16.0369 1.60946 16.0157C1.97545 16.0064 2.43306 16 3 16C3.56694 16 4.02455 16.0064 4.39055 16.0157C5.2271 16.0369 5.8607 16.5401 5.9291 17.3741C5.97005 17.8736 6 18.5602 6 19.5C6 20.4398 5.97005 21.1264 5.9291 21.6259C5.8607 22.4599 5.2271 22.9631 4.39055 22.9843C4.02455 22.9936 3.56694 23 3 23C2.43306 23 1.97545 22.9936 1.60946 22.9843Z" fill="white"/>
<path d="M17.8455 22.9792C16.8709 22.9408 16.1875 22.2557 16.1243 21.2823C16.0588 20.2731 16 18.6337 16 16C16 13.3663 16.0588 11.727 16.1243 10.7177C16.1875 9.74435 16.8709 9.0592 17.8455 9.02075C18.1671 9.00805 18.5489 9 19 9C19.4511 9 19.8329 9.00805 20.1545 9.02075C21.1291 9.0592 21.8125 9.74435 21.8757 10.7177C21.9412 11.727 22 13.3663 22 16C22 18.6337 21.9412 20.2731 21.8757 21.2823C21.8125 22.2557 21.1291 22.9408 20.1545 22.9792C19.8329 22.9919 19.4511 23 19 23C18.5489 23 18.1671 22.9919 17.8455 22.9792Z" fill="white"/>
<path d="M9.7766 22.9832C8.8427 22.9548 8.162 22.3419 8.0949 21.41C8.0422 20.6775 8 19.5936 8 18C8 16.4064 8.0422 15.3225 8.0949 14.59C8.162 13.6581 8.8427 13.0453 9.7766 13.0169C10.1121 13.0067 10.5163 13 11 13C11.4837 13 11.8879 13.0067 12.2234 13.0169C13.1573 13.0453 13.838 13.6581 13.9051 14.59C13.9578 15.3225 14 16.4064 14 18C14 19.5936 13.9578 20.6775 13.9051 21.41C13.838 22.3419 13.1573 22.9548 12.2234 22.9832C11.8879 22.9934 11.4837 23 11 23C10.5163 23 10.1121 22.9934 9.7766 22.9832Z" fill="white"/>
</svg>
