<!-- Generator: Adobe Illustrator 25.2.0, SVG Export Plug-In  -->
<svg version="1.1" xmlns="http://www.w3.org/2000/svg" xmlns:xlink="http://www.w3.org/1999/xlink" x="0px" y="0px" width="335px"
	 height="81.9px" viewBox="0 0 335 81.9" style="overflow:visible;enable-background:new 0 0 335 81.9;" xml:space="preserve">
<style type="text/css">
	.st0{fill:#FFFFFF;}
</style>
<defs>
</defs>
<g>
	<path class="st0" d="M181.6,48.5c0,10.6-8.5,19.2-19.1,19.4c-0.1,0-0.2,0-0.3,0c-10.7,0-19.4-8.7-19.4-19.4s8.7-19.4,19.4-19.4
		c0.1,0,0.2,0,0.3,0C173.1,29.3,181.6,37.9,181.6,48.5z"/>
	<path class="st0" d="M57.2,35.3v1h-14v-1c0-3.4-2.8-6.2-6.2-6.2H20.2c-3.4,0-6.2,2.8-6.2,6.2c0,3.4,2.8,6.2,6.2,6.2l16.9,0
		c11.1,0,20.2,9,20.2,20.2c0,11.1-9,20.2-20.2,20.2H20.2C9,81.8,0,72.8,0,61.7v-1h14v1c0,3.4,2.8,6.2,6.2,6.2h16.9
		c3.4,0,6.2-2.8,6.2-6.2c0-3.4-2.8-6.2-6.2-6.2H20.2C9,55.5,0,46.4,0,35.3c0-11.1,9-20.2,20.2-20.2h16.9
		C48.2,15.2,57.2,24.2,57.2,35.3z"/>
	<polygon class="st0" points="128.7,15.2 128.7,81.8 113,81.8 85.5,38.5 85.5,81.8 71.5,81.8 71.5,15.2 87.2,15.2 114.8,58.5 
		114.8,15.2 	"/>
	<rect x="57.4" class="st0" width="14" height="12.8"/>
	<path class="st0" d="M195.5,46.5v4c0-0.7,0.1-1.3,0.1-2C195.6,47.8,195.6,47.2,195.5,46.5z"/>
	<path class="st0" d="M252.6,38.9c-1.2-13.3-12.4-23.7-26-23.7h-31.1v0h-33v0.2c17.6,0.1,32,14,33,31.4v3.7
		c-1,17.4-15.4,31.2-33,31.4v0.2h33v0h14V67.4h17.1c13.6,0,24.8-10.4,26-23.7c0.1-0.8,0.1-1.6,0.1-2.4S252.7,39.7,252.6,38.9z
		 M226.6,53.5h-17.1V29.1h17.1c6.7,0,12.2,5.5,12.2,12.2C238.8,48,233.3,53.5,226.6,53.5z"/>
	<polygon class="st0" points="292.5,29.1 292.5,15.2 252.6,15.2 252.6,81.8 265.6,81.8 292.5,81.8 292.5,67.9 266.6,67.9 
		266.6,55.5 297.8,55.5 297.8,41.5 266.6,41.5 266.6,29.1 	"/>
	<polygon class="st0" points="335,15.2 318.4,15.2 305.6,35.5 292.7,15.2 276.1,15.2 297.3,48.5 276.1,81.8 292.7,81.8 305.6,61.5 
		318.4,81.8 335,81.8 313.8,48.5 	"/>
	<path class="st0" d="M162.5,15.2v0.2c17.6,0.1,32,14,33,31.4v-0.2C194.5,29.1,180.1,15.3,162.5,15.2z M162.5,81.7v0.1
		c17.6-0.1,32-14,33-31.3v-0.2C194.5,67.7,180.1,81.6,162.5,81.7z"/>
</g>
</svg>
