<svg width="939" height="280" viewBox="0 0 939 280" fill="none" xmlns="http://www.w3.org/2000/svg">
<path fill-rule="evenodd" clip-rule="evenodd" d="M87.0525 116.028C76.2634 116.028 67.5271 124.794 67.5632 135.583L67.6139 150.748C67.6765 169.445 52.5363 184.636 33.8384 184.636C15.2815 184.636 0.200072 169.665 0.0636288 151.109L0.000304088 142.497C-0.0444219 136.414 4.85033 131.447 10.933 131.402C17.0158 131.357 21.983 136.252 22.0278 142.335L22.0911 150.947C22.1385 157.401 27.3841 162.608 33.8384 162.608C40.3418 162.608 45.6077 157.325 45.586 150.821L45.5353 135.656C45.4584 112.673 64.0688 94 87.0525 94C109.821 94 128.341 112.337 128.568 135.104L128.69 147.394C128.777 156.075 135.839 163.067 144.521 163.067C153.326 163.067 160.439 155.883 160.352 147.078L160.09 120.883C159.943 106.079 171.902 94 186.706 94H202.383C207.092 94 211.111 96.9557 212.686 101.113H224.87C227.151 101.113 229 102.962 229 105.243C229 107.525 227.151 109.374 224.87 109.374H212.5C210.811 113.288 206.917 116.028 202.383 116.028H186.706C184.154 116.028 182.092 118.111 182.117 120.663L182.378 146.858C182.588 167.914 165.578 185.095 144.521 185.095C123.759 185.095 106.87 168.374 106.663 147.613L106.541 135.323C106.434 124.636 97.7405 116.028 87.0525 116.028ZM197.335 104.785C197.335 106.939 195.588 108.685 193.434 108.685C191.28 108.685 189.533 106.939 189.533 104.785C189.533 102.63 191.28 100.884 193.434 100.884C195.588 100.884 197.335 102.63 197.335 104.785Z" fill="#266FF2"/>
<path d="M281.25 189.95C276.8 189.95 272.625 189.625 268.725 188.975C264.875 188.325 261.375 187.525 258.225 186.575C255.125 185.575 252.45 184.575 250.2 183.575L248.475 164.975C252.375 167.025 257 168.875 262.35 170.525C267.7 172.125 273.4 172.925 279.45 172.925C285.85 172.925 290.475 172 293.325 170.15C296.175 168.3 297.6 165.45 297.6 161.6V160.775C297.6 158.275 296.975 156.225 295.725 154.625C294.525 152.975 292.5 151.525 289.65 150.275C286.8 149.025 282.925 147.75 278.025 146.45C271.125 144.55 265.45 142.4 261 140C256.6 137.55 253.35 134.525 251.25 130.925C249.15 127.275 248.1 122.7 248.1 117.2V116.3C248.1 107.9 250.925 101.45 256.575 96.95C262.275 92.45 270.675 90.2 281.775 90.2C288.675 90.2 294.6 90.825 299.55 92.075C304.5 93.325 308.65 94.775 312 96.425L313.725 113.75C309.975 111.75 305.675 110.1 300.825 108.8C296.025 107.45 290.775 106.775 285.075 106.775C280.825 106.775 277.45 107.175 274.95 107.975C272.5 108.775 270.725 109.95 269.625 111.5C268.575 113.05 268.05 114.925 268.05 117.125V117.35C268.05 119.6 268.6 121.55 269.7 123.2C270.85 124.85 272.875 126.375 275.775 127.775C278.675 129.125 282.8 130.525 288.15 131.975C294.95 133.875 300.5 135.925 304.8 138.125C309.15 140.325 312.375 143.175 314.475 146.675C316.575 150.175 317.625 154.8 317.625 160.55V161.9C317.625 171.15 314.6 178.15 308.55 182.9C302.55 187.6 293.45 189.95 281.25 189.95ZM358.305 188H338.58V92.15H358.305V188ZM411.445 92.15L441.595 166.55H442.57L441.745 125.675V92.15H460.57V188H433.42L402.52 112.25H401.545L402.37 154.4V188H383.47V92.15H411.445ZM522.836 190.175C509.586 190.175 499.561 186.725 492.761 179.825C486.011 172.875 482.636 162.95 482.636 150.05V130.55C482.636 117.6 486.011 107.625 492.761 100.625C499.561 93.625 509.586 90.125 522.836 90.125C536.086 90.125 546.086 93.625 552.836 100.625C559.636 107.625 563.036 117.6 563.036 130.55V150.05C563.036 162.95 559.661 172.875 552.911 179.825C546.161 186.725 536.136 190.175 522.836 190.175ZM522.836 173.825C529.586 173.825 534.636 171.825 537.986 167.825C541.336 163.825 543.011 158.2 543.011 150.95V129.65C543.011 122.15 541.336 116.4 537.986 112.4C534.636 108.35 529.586 106.325 522.836 106.325C516.136 106.325 511.111 108.35 507.761 112.4C504.411 116.4 502.736 122.15 502.736 129.65V150.95C502.736 158.2 504.411 163.825 507.761 167.825C511.111 171.825 516.136 173.825 522.836 173.825ZM598.146 159.2V143.15H622.596C627.996 143.15 631.896 141.9 634.296 139.4C636.746 136.85 637.971 133.175 637.971 128.375V122.9C637.971 118 636.771 114.325 634.371 111.875C631.971 109.375 628.071 108.125 622.671 108.125H598.146V92.15H623.796C635.446 92.15 643.971 94.775 649.371 100.025C654.821 105.275 657.546 112.725 657.546 122.375V128.975C657.546 138.625 654.821 146.075 649.371 151.325C643.971 156.575 635.446 159.2 623.796 159.2H598.146ZM585.021 188V92.15H604.371V147.725L604.446 156.65V188H585.021ZM732.558 188L730.383 169.325C730.033 165.975 729.333 163.175 728.283 160.925C727.233 158.675 725.658 156.975 723.558 155.825C721.458 154.625 718.558 154.025 714.858 154.025L691.683 153.95V138.8L716.058 138.725C721.508 138.725 725.408 137.475 727.758 134.975C730.158 132.425 731.358 128.8 731.358 124.1V122.3C731.358 117.65 730.158 114.125 727.758 111.725C725.408 109.275 721.458 108.05 715.908 108.05H691.458V92.15H718.683C729.933 92.15 738.133 94.425 743.283 98.975C748.483 103.525 751.083 110 751.083 118.4V120.5C751.083 126.8 749.558 131.8 746.508 135.5C743.458 139.2 738.608 141.4 731.958 142.1V144.8L726.483 142.1C732.183 142.5 736.583 143.7 739.683 145.7C742.833 147.7 745.133 150.475 746.583 154.025C748.033 157.525 749.133 161.875 749.883 167.075L752.808 188H732.558ZM678.033 188V92.15H697.233V144.2L697.383 151.475V188H678.033ZM773.242 188V92.15H792.592V188H773.242ZM779.017 188V171.575H837.892V188H779.017ZM784.492 147.275V131.3H836.167V147.275H784.492ZM778.942 108.425V92.15H837.292V108.425H778.942ZM852.758 188L880.208 136.1V140.375L853.658 92.15H874.733L893.933 128.225H895.058L914.258 92.15H935.333L908.708 140.375V136.1L936.158 188H914.633L895.058 149.45H893.858L874.283 188H852.758Z" fill="white"/>
</svg>
