<svg width="319" height="218" viewBox="0 0 319 218" fill="none" xmlns="http://www.w3.org/2000/svg">
<path fill-rule="evenodd" clip-rule="evenodd" d="M120.999 73.3673C121 73.3634 121 73.3598 121 73.3565L109.194 66.422L109.57 64.3593C110.519 59.1488 110.519 53.8032 109.57 48.5927L109.194 46.5299L120.979 39.6081C118.504 31.5694 114.312 24.2924 108.84 18.222L97.078 25.1308L95.4492 23.7055C91.5095 20.258 86.979 17.5969 82.0778 15.8532L80.0834 15.1437V1.33846C71.9539 -0.490074 63.6259 -0.401746 55.891 1.33845V15.1554L53.912 15.8716C49.0238 17.6409 44.483 20.3079 40.5116 23.7413L38.8829 25.1494L27.1571 18.246C21.687 24.2912 17.4948 31.5677 15.0194 39.6321L26.8042 46.5539L26.4283 48.6167C25.4789 53.8271 25.4789 59.1728 26.4283 64.3833L26.8042 66.446L15.0195 73.3679C17.4942 81.4065 21.6857 88.6835 27.1575 94.7539L38.92 87.8451L40.5488 89.2704C44.4885 92.7179 49.019 95.3791 53.9201 97.1228L55.9146 97.8323V111.661C64.0441 113.49 72.3721 113.402 80.107 111.661V97.8446L82.086 97.1283C86.9742 95.359 91.515 92.6921 95.4863 89.2586L97.1133 87.852L108.864 94.7541C114.331 88.7126 118.522 81.4413 120.998 73.383C120.998 73.3774 120.999 73.3721 120.999 73.3673ZM46.1169 56.476C46.1169 68.665 55.8803 78.6695 67.9872 78.6695C80.0941 78.6695 89.8575 68.665 89.8575 56.476C89.8575 44.287 80.0941 34.2825 67.9872 34.2825C55.8803 34.2825 46.1169 44.287 46.1169 56.476Z" fill="white"/>
<path fill-rule="evenodd" clip-rule="evenodd" d="M122.569 42.1529C123.725 41.4811 124.244 40.0896 123.867 38.794C121.249 30.2529 116.79 22.5275 110.964 16.0977C110.068 15.1141 108.605 14.8741 107.473 15.5459L97.4248 21.4479C96.1054 20.2933 94.7237 19.2207 93.2871 18.2345C93.212 18.1829 93.1367 18.1316 93.0612 18.0805C105.62 9.21051 120.956 4 137.5 4C168.713 4 195.456 22.6564 207.556 49.2692C214.363 45.0167 222.338 42.4103 231 42.4103C255.269 42.4103 275 62.0955 275 86.3077C275 87.0847 274.853 87.8374 274.706 88.5947L274.706 88.595C274.606 89.1078 274.506 89.6227 274.45 90.1487C300.3 99.0654 319 123.278 319 152.154C319 188.506 289.438 218 253 218H66C29.5625 218 0 188.506 0 152.154C0 125.277 16.2034 102.349 39.3509 92.1932C39.6267 92.4236 39.905 92.6506 40.1859 92.874C44.0164 95.9212 48.312 98.3118 52.9146 99.9492V111.753C52.9146 113.097 53.8345 114.272 55.1318 114.56C63.7886 116.528 72.6576 116.432 80.8897 114.56C82.1871 114.272 83.107 113.097 83.107 111.753V99.9492C88.3435 98.0539 93.2026 95.1988 97.4484 91.5281L107.497 97.4301C108.653 98.1019 110.091 97.8859 110.988 96.8783C116.814 90.4725 121.272 82.7471 123.89 74.182C124.244 72.8624 123.725 71.4709 122.569 70.7991L112.521 64.8971C113.535 59.331 113.535 53.621 112.521 48.0549L122.569 42.1529ZM78.24 184.64C81.2267 185.92 84.5867 186.56 88.32 186.56C92.2667 186.56 95.68 185.813 98.56 184.32C101.493 182.773 103.707 180.747 105.2 178.24C106.747 175.733 107.52 173.067 107.52 170.24C107.52 166.72 106.693 163.92 105.04 161.84C103.44 159.707 101.467 158.133 99.12 157.12C96.8267 156.107 93.84 155.093 90.16 154.08C87.3867 153.333 85.2 152.64 83.6 152C82 151.36 80.6667 150.507 79.6 149.44C78.5867 148.32 78.08 146.907 78.08 145.2C78.08 142.693 78.9067 140.773 80.56 139.44C82.2133 138.107 84.3467 137.44 86.96 137.44C89.84 137.44 92.16 138.16 93.92 139.6C95.68 141.04 96.64 142.773 96.8 144.8H106.88C106.507 140.107 104.587 136.427 101.12 133.76C97.7067 131.04 93.3067 129.68 87.92 129.68C84.1333 129.68 80.8 130.32 77.92 131.6C75.04 132.88 72.8 134.72 71.2 137.12C69.6 139.52 68.8 142.32 68.8 145.52C68.8 148.987 69.6 151.76 71.2 153.84C72.8 155.92 74.72 157.467 76.96 158.48C79.2533 159.44 82.2133 160.4 85.84 161.36C88.72 162.107 90.96 162.8 92.56 163.44C94.2133 164.08 95.5733 164.987 96.64 166.16C97.76 167.333 98.32 168.853 98.32 170.72C98.32 173.12 97.44 175.093 95.68 176.64C93.92 178.133 91.4667 178.88 88.32 178.88C85.28 178.88 82.9067 178.107 81.2 176.56C79.5467 175.013 78.6133 173.04 78.4 170.64H68.64C68.64 173.84 69.4933 176.64 71.2 179.04C72.9067 181.44 75.2533 183.307 78.24 184.64ZM117.961 152C116.148 155.413 115.241 159.333 115.241 163.76C115.241 168.187 116.148 172.16 117.961 175.68C119.828 179.147 122.335 181.867 125.481 183.84C128.628 185.76 132.095 186.72 135.881 186.72C139.295 186.72 142.335 186.027 145.001 184.64C147.668 183.253 149.775 181.52 151.321 179.44V186H160.521V141.92H151.321V148.32C149.775 146.293 147.695 144.613 145.081 143.28C142.521 141.893 139.508 141.2 136.041 141.2C132.201 141.2 128.681 142.16 125.481 144.08C122.335 145.947 119.828 148.587 117.961 152ZM149.401 156C150.681 158.24 151.321 160.88 151.321 163.92C151.321 166.96 150.681 169.627 149.401 171.92C148.175 174.16 146.548 175.867 144.521 177.04C142.495 178.213 140.308 178.8 137.961 178.8C135.668 178.8 133.481 178.213 131.401 177.04C129.375 175.813 127.721 174.053 126.441 171.76C125.215 169.467 124.601 166.8 124.601 163.76C124.601 160.72 125.215 158.107 126.441 155.92C127.721 153.68 129.375 152 131.401 150.88C133.428 149.707 135.615 149.12 137.961 149.12C140.308 149.12 142.495 149.707 144.521 150.88C146.548 152.053 148.175 153.76 149.401 156ZM172.18 152C170.367 155.413 169.46 159.333 169.46 163.76C169.46 168.187 170.367 172.16 172.18 175.68C174.047 179.147 176.553 181.867 179.7 183.84C182.847 185.76 186.313 186.72 190.1 186.72C193.513 186.72 196.553 186.027 199.22 184.64C201.887 183.253 203.993 181.52 205.54 179.44V186H214.74V141.92H205.54V148.32C203.993 146.293 201.913 144.613 199.3 143.28C196.74 141.893 193.727 141.2 190.26 141.2C186.42 141.2 182.9 142.16 179.7 144.08C176.553 145.947 174.047 148.587 172.18 152ZM203.62 156C204.9 158.24 205.54 160.88 205.54 163.92C205.54 166.96 204.9 169.627 203.62 171.92C202.393 174.16 200.767 175.867 198.74 177.04C196.713 178.213 194.527 178.8 192.18 178.8C189.887 178.8 187.7 178.213 185.62 177.04C183.593 175.813 181.94 174.053 180.66 171.76C179.433 169.467 178.82 166.8 178.82 163.76C178.82 160.72 179.433 158.107 180.66 155.92C181.94 153.68 183.593 152 185.62 150.88C187.647 149.707 189.833 149.12 192.18 149.12C194.527 149.12 196.713 149.707 198.74 150.88C200.767 152.053 202.393 153.76 203.62 156ZM234.959 184.64C237.945 185.92 241.305 186.56 245.039 186.56C248.985 186.56 252.399 185.813 255.279 184.32C258.212 182.773 260.425 180.747 261.919 178.24C263.465 175.733 264.239 173.067 264.239 170.24C264.239 166.72 263.412 163.92 261.759 161.84C260.159 159.707 258.185 158.133 255.839 157.12C253.545 156.107 250.559 155.093 246.879 154.08C244.105 153.333 241.919 152.64 240.319 152C238.719 151.36 237.385 150.507 236.319 149.44C235.305 148.32 234.799 146.907 234.799 145.2C234.799 142.693 235.625 140.773 237.279 139.44C238.932 138.107 241.065 137.44 243.679 137.44C246.559 137.44 248.879 138.16 250.639 139.6C252.399 141.04 253.359 142.773 253.519 144.8H263.599C263.225 140.107 261.305 136.427 257.839 133.76C254.425 131.04 250.025 129.68 244.639 129.68C240.852 129.68 237.519 130.32 234.639 131.6C231.759 132.88 229.519 134.72 227.919 137.12C226.319 139.52 225.519 142.32 225.519 145.52C225.519 148.987 226.319 151.76 227.919 153.84C229.519 155.92 231.439 157.467 233.679 158.48C235.972 159.44 238.932 160.4 242.559 161.36C245.439 162.107 247.679 162.8 249.279 163.44C250.932 164.08 252.292 164.987 253.359 166.16C254.479 167.333 255.039 168.853 255.039 170.72C255.039 173.12 254.159 175.093 252.399 176.64C250.639 178.133 248.185 178.88 245.039 178.88C241.999 178.88 239.625 178.107 237.919 176.56C236.265 175.013 235.332 173.04 235.119 170.64H225.359C225.359 173.84 226.212 176.64 227.919 179.04C229.625 181.44 231.972 183.307 234.959 184.64Z" fill="white"/>
</svg>
